{"glyphs":{"0":{"ha":783,"x_min":43,"x_max":742,"o":"m 346 -14 q 178 27 246 -14 q 77 140 111 68 q 43 304 43 211 q 93 537 43 436 q 233 694 143 638 q 439 750 322 750 q 606 709 539 750 q 708 597 674 668 q 742 432 742 525 q 692 199 742 300 q 552 42 642 99 q 346 -14 463 -14 m 358 97 q 530 138 460 97 q 637 246 600 178 q 674 397 674 314 q 608 574 674 508 q 426 639 542 639 q 255 599 325 639 q 148 490 185 558 q 111 339 111 422 q 178 163 111 228 q 358 97 244 97 z "},"1":{"ha":833,"x_min":68,"x_max":764,"o":"m 68 0 l 72 22 l 249 78 l 351 658 l 194 714 l 197 736 l 764 736 l 761 714 l 585 658 l 482 78 l 639 22 l 635 0 l 68 0 z "},"2":{"ha":833,"x_min":28,"x_max":726,"o":"m 28 0 l 39 60 q 223 205 147 144 q 346 308 299 265 q 419 385 393 351 q 456 448 446 418 q 465 514 465 478 q 433 594 465 565 q 333 624 400 624 q 219 583 267 624 q 142 481 172 543 l 93 500 q 239 683 144 615 q 457 750 333 750 q 644 693 578 750 q 710 547 710 636 q 666 411 710 468 q 529 300 622 354 q 289 176 436 246 l 610 176 l 703 311 l 726 311 l 656 0 l 28 0 z "},"3":{"ha":833,"x_min":-10,"x_max":701,"o":"m 274 -193 q 99 -160 169 -193 q -3 -74 28 -126 q -10 -51 -10 -60 q 21 -8 -10 -31 l 115 58 l 136 58 l 147 21 q 193 -89 168 -51 q 282 -126 218 -126 q 374 -96 338 -126 q 429 -16 411 -65 q 447 88 447 33 q 383 217 447 176 q 206 258 318 258 l 197 318 l 200 318 q 331 340 272 318 q 424 403 389 361 q 460 507 460 444 q 431 593 460 563 q 342 624 401 624 q 233 583 278 624 q 157 481 188 543 l 108 500 q 253 683 160 615 q 471 750 347 750 q 641 699 581 750 q 701 568 701 649 q 670 467 701 510 q 589 397 639 424 q 481 358 539 371 q 642 275 596 336 q 688 135 688 214 q 633 -30 688 44 q 485 -149 578 -104 q 274 -193 392 -193 z "},"4":{"ha":833,"x_min":-7,"x_max":736,"o":"m 294 -181 l 335 46 l -7 46 l 4 100 l 61 165 l 61 167 l 63 167 l 563 736 l 686 736 l 588 167 l 736 167 l 717 46 l 567 46 l 528 -181 l 294 -181 m 143 167 l 356 167 l 410 476 l 143 167 z "},"5":{"ha":833,"x_min":18,"x_max":717,"o":"m 278 -194 q 135 -175 194 -194 q 47 -128 76 -156 q 21 -75 18 -100 q 54 -37 22 -58 l 153 29 l 175 29 l 188 -8 q 234 -101 207 -69 q 319 -133 261 -133 q 428 -81 389 -133 q 468 54 468 -28 q 411 186 468 147 q 242 225 354 225 q 180 222 207 225 q 118 213 153 218 l 219 736 l 717 736 l 685 574 l 267 574 l 238 418 q 291 422 261 421 q 364 424 321 424 q 603 351 519 424 q 688 151 688 278 q 655 13 688 76 q 565 -97 622 -50 q 434 -169 508 -143 q 278 -194 360 -194 z "},"6":{"ha":833,"x_min":56,"x_max":739,"o":"m 363 -14 q 139 63 222 -14 q 56 283 56 140 q 140 579 56 444 q 377 806 224 714 q 739 931 531 897 l 729 876 q 543 777 621 840 q 415 634 465 714 q 335 468 364 554 q 510 553 407 553 q 667 487 617 553 q 718 319 718 421 q 623 75 718 164 q 363 -14 528 -14 m 292 196 q 365 56 292 56 q 451 128 421 56 q 482 321 482 200 q 408 443 482 443 q 313 385 354 443 q 297 288 301 336 q 292 196 292 240 z "},"7":{"ha":833,"x_min":118,"x_max":782,"o":"m 118 -181 q 313 122 189 -56 q 599 514 438 299 l 157 514 l 194 736 l 782 736 l 769 667 q 600 394 685 536 q 442 107 515 253 q 317 -181 368 -39 l 118 -181 z "},"8":{"ha":833,"x_min":42,"x_max":747,"o":"m 336 -14 q 119 42 197 -14 q 42 193 42 97 q 99 338 42 281 q 250 442 156 396 q 171 538 193 489 q 149 644 149 588 q 191 788 149 724 q 308 892 233 853 q 479 931 383 931 q 676 873 604 931 q 747 724 747 815 q 692 601 747 650 q 551 522 638 551 q 665 408 633 467 q 697 285 697 350 q 649 124 697 192 q 519 22 601 57 q 336 -14 438 -14 m 365 731 q 374 681 365 707 q 410 624 382 654 q 493 558 438 593 q 567 644 540 599 q 593 751 593 689 q 563 838 593 808 q 488 867 533 867 q 395 825 425 867 q 365 731 365 783 m 208 193 q 246 88 208 126 q 344 50 283 50 q 446 86 406 50 q 486 185 486 122 q 472 258 486 228 q 419 322 458 289 q 304 403 381 354 q 232 312 256 356 q 208 193 208 268 z "},"9":{"ha":833,"x_min":56,"x_max":739,"o":"m 56 -194 l 65 -140 q 251 -41 174 -104 q 380 102 329 22 q 460 268 431 182 q 285 183 388 183 q 127 249 178 183 q 76 417 76 315 q 172 661 76 572 q 432 750 267 750 q 656 673 572 750 q 739 453 739 596 q 690 225 739 332 q 551 33 642 118 q 335 -110 461 -51 q 56 -194 210 -169 m 313 415 q 386 293 313 293 q 482 351 440 293 q 498 448 493 400 q 503 540 503 496 q 429 681 503 681 q 343 608 374 681 q 313 415 313 536 z "}," ":{"ha":347,"x_min":0,"x_max":0,"o":""}," ":{"ha":694,"x_min":0,"x_max":0,"o":""}," ":{"ha":347,"x_min":0,"x_max":0,"o":""}," ":{"ha":174,"x_min":0,"x_max":0,"o":""}," ":{"ha":35,"x_min":0,"x_max":0,"o":""},"​":{"ha":0,"x_min":0,"x_max":0,"o":""},"A":{"ha":999,"x_min":-62,"x_max":904,"o":"m -62 0 l -58 22 l 21 65 l 506 924 l 649 924 l 825 69 l 904 22 l 900 0 l 450 0 l 454 22 l 571 74 l 529 288 l 236 288 l 114 69 l 213 22 l 207 0 l -62 0 m 279 364 l 514 364 l 451 675 l 279 364 z "},"B":{"ha":942,"x_min":-42,"x_max":865,"o":"m -42 0 l -37 22 l 83 81 l 217 836 l 115 894 l 119 917 l 557 917 q 717 896 647 917 q 826 833 786 875 q 865 726 865 790 q 802 588 865 653 q 631 497 739 524 q 806 426 747 481 q 865 288 865 371 q 819 149 865 214 q 683 42 774 83 q 457 0 592 0 l -42 0 m 475 840 l 454 840 l 396 504 l 426 504 q 569 559 518 504 q 621 692 621 614 q 589 802 621 764 q 475 840 557 840 m 447 442 l 385 442 l 321 76 l 407 76 q 523 107 478 76 q 590 185 568 138 q 611 285 611 233 q 573 402 611 363 q 447 442 535 442 z "},"C":{"ha":919,"x_min":56,"x_max":858,"o":"m 457 -14 q 244 35 333 -14 q 105 168 154 83 q 56 361 56 253 q 99 574 56 472 q 221 757 143 676 q 403 884 299 838 q 628 931 507 931 q 763 911 713 931 q 858 864 813 892 l 835 594 l 810 594 l 699 843 q 607 864 667 864 q 488 822 543 864 q 390 707 432 781 q 325 535 349 633 q 301 325 301 438 q 351 133 301 206 q 489 60 400 60 q 551 66 519 60 q 614 89 582 72 l 792 304 l 817 304 l 758 61 q 622 6 706 25 q 457 -14 539 -14 z "},"D":{"ha":1051,"x_min":-42,"x_max":996,"o":"m -42 0 l -37 22 l 78 78 l 211 839 l 115 894 l 119 917 l 521 917 q 780 867 674 917 q 941 729 886 818 q 996 521 996 640 q 949 314 996 408 q 820 149 903 219 q 628 39 738 78 q 396 0 519 0 l -42 0 m 483 843 l 451 843 l 314 67 l 414 67 q 583 126 506 67 q 706 292 660 186 q 751 538 751 397 q 679 761 751 679 q 483 843 607 843 z "},"E":{"ha":867,"x_min":-42,"x_max":846,"o":"m -42 0 l -37 22 l 83 81 l 217 836 l 115 894 l 119 917 l 846 917 l 804 675 l 783 675 l 710 840 l 454 840 l 396 504 l 563 504 l 671 626 l 693 626 l 639 322 l 617 322 l 551 442 l 385 442 l 321 76 l 599 76 l 753 304 l 775 304 l 721 0 l -42 0 z "},"F":{"ha":833,"x_min":-42,"x_max":840,"o":"m -42 0 l -37 22 l 83 81 l 217 836 l 115 894 l 119 917 l 840 917 l 799 675 l 776 675 l 704 840 l 454 840 l 396 504 l 557 504 l 665 626 l 688 626 l 633 322 l 611 322 l 546 442 l 385 442 l 321 81 l 463 22 l 458 0 l -42 0 z "},"G":{"ha":958,"x_min":56,"x_max":929,"o":"m 424 -14 q 233 34 317 -14 q 103 166 150 82 q 56 358 56 250 q 105 578 56 475 q 238 761 154 682 q 424 885 321 840 q 636 931 528 931 q 751 922 704 931 q 832 899 797 914 q 899 864 867 883 l 872 610 l 850 610 l 740 842 q 692 859 715 854 q 635 864 669 864 q 506 818 567 864 q 399 695 446 772 q 326 521 353 618 q 300 321 300 424 q 349 135 300 203 q 475 68 397 68 q 531 72 500 68 l 576 332 l 478 404 l 482 426 l 929 426 l 925 404 l 814 332 l 774 103 q 667 41 729 67 q 542 1 606 15 q 424 -14 478 -14 z "},"H":{"ha":1068,"x_min":-42,"x_max":1110,"o":"m -42 0 l -37 22 l 83 81 l 217 836 l 115 894 l 119 917 l 565 917 l 561 894 l 454 836 l 397 511 l 693 511 l 750 836 l 661 894 l 665 917 l 1110 917 l 1106 894 l 988 836 l 854 81 l 953 22 l 949 0 l 504 0 l 508 22 l 617 81 l 679 435 l 383 435 l 321 81 l 408 22 l 404 0 l -42 0 z "},"I":{"ha":538,"x_min":-42,"x_max":579,"o":"m -42 0 l -37 22 l 83 81 l 217 836 l 115 894 l 119 917 l 579 917 l 575 894 l 454 836 l 321 81 l 422 22 l 418 0 l -42 0 z "},"J":{"ha":551,"x_min":-124,"x_max":596,"o":"m -60 -240 q -109 -222 -94 -240 q -112 -169 -124 -203 l -82 -76 l -74 -76 q -7 -89 -39 -89 q 47 -75 25 -89 q 87 -17 69 -61 q 121 121 104 28 l 247 836 l 132 894 l 135 917 l 596 917 l 593 894 l 485 836 l 389 318 q 333 143 371 219 q 247 6 294 67 q 151 -101 199 -54 q 65 -185 97 -156 q 5 -228 32 -215 q -60 -240 -22 -240 z "},"K":{"ha":1019,"x_min":-42,"x_max":1019,"o":"m -42 0 l -37 22 l 83 81 l 217 836 l 115 894 l 119 917 l 581 917 l 575 894 l 454 836 l 321 81 l 424 22 l 418 0 l -42 0 m 639 0 l 392 460 l 792 846 l 701 894 l 706 917 l 1019 917 l 1014 894 l 931 861 l 596 549 l 875 72 l 953 22 l 949 0 l 639 0 z "},"L":{"ha":792,"x_min":-42,"x_max":743,"o":"m -42 0 l -37 22 l 83 81 l 217 836 l 115 894 l 119 917 l 593 917 l 589 894 l 454 836 l 319 76 l 549 76 l 721 340 l 743 340 l 679 0 l -42 0 z "},"M":{"ha":1307,"x_min":-42,"x_max":1307,"o":"m -42 0 l -37 22 l 83 81 l 243 838 l 133 894 l 138 917 l 507 917 l 642 329 l 958 917 l 1307 917 l 1303 894 l 1185 836 l 1100 81 l 1192 22 l 1188 0 l 747 0 l 751 22 l 864 79 l 933 690 l 551 -7 l 472 -7 l 306 724 l 175 79 l 282 22 l 276 0 l -42 0 z "},"N":{"ha":1043,"x_min":-35,"x_max":1085,"o":"m -35 0 l -31 22 l 90 81 l 224 836 l 122 894 l 126 917 l 397 917 l 772 324 l 863 836 l 718 894 l 722 917 l 1085 917 l 1081 894 l 963 836 l 814 -7 l 706 -7 l 289 640 l 190 81 l 335 22 l 331 0 l -35 0 z "},"O":{"ha":1082,"x_min":56,"x_max":1026,"o":"m 471 -14 q 244 35 336 -14 q 103 173 151 85 q 56 376 56 261 q 98 594 56 493 q 216 770 140 694 q 392 888 292 846 q 610 931 493 931 q 837 881 744 931 q 978 744 929 832 q 1026 542 1026 656 q 986 324 1026 425 q 872 147 946 224 q 696 28 797 71 q 471 -14 594 -14 m 485 58 q 603 99 550 58 q 695 213 657 140 q 754 378 733 285 q 775 578 775 472 q 758 724 775 661 q 703 822 742 786 q 599 857 664 857 q 484 816 538 857 q 391 703 431 775 q 329 538 351 631 q 307 340 307 444 q 351 137 307 215 q 485 58 394 58 z "},"P":{"ha":897,"x_min":-42,"x_max":890,"o":"m -42 0 l -37 22 l 83 81 l 217 836 l 115 894 l 119 917 l 532 917 q 804 861 718 917 q 890 700 890 806 q 840 554 890 619 q 687 450 790 489 q 421 411 583 411 l 378 411 l 321 81 l 451 22 l 447 0 l -42 0 m 453 840 l 389 474 l 439 474 q 553 503 508 474 q 619 583 599 533 q 640 693 640 633 q 598 801 640 763 q 475 840 556 840 l 453 840 z "},"Q":{"ha":1082,"x_min":56,"x_max":1033,"o":"m 850 -207 q 719 -190 799 -207 q 548 -128 639 -172 q 368 -6 457 -85 q 135 124 215 22 q 56 376 56 226 q 98 594 56 493 q 216 770 140 694 q 392 888 292 846 q 610 931 493 931 q 837 881 744 931 q 978 744 929 832 q 1026 542 1026 656 q 978 304 1026 414 q 840 117 929 194 q 632 7 751 40 q 767 -88 714 -56 q 863 -132 821 -121 q 947 -143 904 -143 q 996 -139 972 -143 q 1033 -129 1019 -135 l 1021 -169 q 946 -197 989 -186 q 850 -207 903 -207 m 485 58 q 603 99 550 58 q 695 213 657 140 q 754 378 733 285 q 775 578 775 472 q 758 724 775 661 q 703 822 742 786 q 599 857 664 857 q 484 816 538 857 q 391 703 431 775 q 329 538 351 631 q 307 340 307 444 q 351 137 307 215 q 485 58 394 58 z "},"R":{"ha":1007,"x_min":-42,"x_max":914,"o":"m -42 0 l -39 22 l 82 81 l 215 836 l 114 894 l 118 917 l 533 917 q 776 864 690 917 q 863 710 863 811 q 806 572 863 629 q 653 478 750 514 l 828 82 l 914 22 l 911 0 l 607 0 l 439 428 l 381 428 l 319 81 l 421 22 l 417 0 l -42 0 m 482 840 l 451 840 l 390 490 l 436 490 q 575 550 525 490 q 625 693 625 610 q 482 840 625 840 z "},"S":{"ha":796,"x_min":42,"x_max":747,"o":"m 313 -14 q 161 6 226 -14 q 42 61 96 26 l 67 301 l 92 301 l 176 106 q 228 75 196 90 q 307 60 260 60 q 433 98 381 60 q 486 200 486 136 q 469 269 486 242 q 409 328 451 297 q 292 406 367 358 q 207 469 239 439 q 160 538 175 500 q 144 629 144 575 q 193 781 144 713 q 325 890 242 850 q 515 931 408 931 q 642 913 582 931 q 747 864 703 894 l 725 642 l 700 642 l 617 813 q 572 843 597 831 q 508 856 547 856 q 404 817 446 856 q 363 724 363 778 q 374 666 363 692 q 417 613 386 640 q 507 549 447 586 q 614 475 571 508 q 678 400 657 442 q 700 299 700 358 q 651 144 700 215 q 515 29 601 72 q 313 -14 428 -14 z "},"T":{"ha":883,"x_min":63,"x_max":939,"o":"m 110 0 l 114 22 l 260 81 l 396 840 l 233 840 l 85 596 l 63 596 l 117 917 l 939 917 l 885 596 l 863 596 l 796 840 l 633 840 l 497 81 l 626 22 l 622 0 l 110 0 z "},"U":{"ha":1038,"x_min":108,"x_max":1108,"o":"m 485 -14 q 296 15 376 -14 q 171 112 215 44 q 126 293 126 179 q 139 419 126 349 l 211 836 l 108 894 l 113 917 l 575 917 l 571 894 l 449 836 l 374 403 q 365 310 365 350 q 391 190 365 233 q 461 126 417 146 q 561 107 506 107 q 668 131 617 107 q 758 210 719 156 q 813 354 797 264 l 896 839 l 793 894 l 797 917 l 1108 917 l 1104 894 l 982 838 l 910 419 q 822 161 881 256 q 679 26 764 67 q 485 -14 594 -14 z "},"V":{"ha":950,"x_min":81,"x_max":1036,"o":"m 356 -7 l 161 844 l 81 894 l 86 917 l 517 917 l 511 894 l 406 846 l 536 269 l 547 269 l 858 844 l 761 894 l 765 917 l 1036 917 l 1031 894 l 953 850 l 479 -7 l 356 -7 z "},"W":{"ha":1325,"x_min":81,"x_max":1411,"o":"m 267 -7 l 168 846 l 81 894 l 85 917 l 524 917 l 519 894 l 406 843 l 461 326 l 471 326 l 772 924 l 894 924 l 999 331 l 1007 331 l 1224 846 l 1124 894 l 1128 917 l 1411 917 l 1407 894 l 1317 849 l 944 -7 l 821 -7 l 708 607 l 701 607 l 390 -7 l 267 -7 z "},"X":{"ha":1001,"x_min":-64,"x_max":1042,"o":"m -64 0 l -60 22 l 51 76 l 388 435 l 176 847 l 101 894 l 106 917 l 557 917 l 553 894 l 442 844 l 442 838 l 582 572 l 828 838 l 829 843 l 733 894 l 738 917 l 1042 917 l 1038 894 l 942 844 l 617 504 l 842 76 l 926 22 l 922 0 l 465 0 l 469 22 l 571 72 l 571 78 l 425 363 l 163 82 l 157 76 l 251 22 l 247 0 l -64 0 z "},"Y":{"ha":958,"x_min":81,"x_max":1058,"o":"m 188 0 l 192 22 l 313 81 l 374 426 l 154 847 l 81 894 l 86 917 l 519 917 l 514 894 l 404 844 l 403 839 l 581 504 l 850 839 l 851 844 l 757 894 l 763 917 l 1058 917 l 1054 894 l 965 853 l 611 431 l 550 81 l 651 22 l 647 0 l 188 0 z "},"Z":{"ha":842,"x_min":-14,"x_max":847,"o":"m -14 0 l -6 51 l 561 840 l 271 840 l 121 613 l 99 613 l 156 917 l 847 917 l 839 865 l 281 90 l 589 90 l 744 318 l 767 318 l 707 0 l -14 0 z "},"À":{"ha":999,"x_min":-62,"x_max":904,"o":"m -62 0 l -58 22 l 21 65 l 506 924 l 649 924 l 825 69 l 904 22 l 900 0 l 450 0 l 454 22 l 571 74 l 529 288 l 236 288 l 114 69 l 213 22 l 207 0 l -62 0 m 279 364 l 514 364 l 451 675 l 279 364 m 565 986 l 354 1110 q 324 1146 328 1125 q 325 1197 321 1167 l 482 1197 l 600 986 l 565 986 z "},"Á":{"ha":999,"x_min":-62,"x_max":904,"o":"m -62 0 l -58 22 l 21 65 l 506 924 l 649 924 l 825 69 l 904 22 l 900 0 l 450 0 l 454 22 l 571 74 l 529 288 l 236 288 l 114 69 l 213 22 l 207 0 l -62 0 m 279 364 l 514 364 l 451 675 l 279 364 m 567 986 l 694 1197 l 869 1197 q 856 1153 865 1176 q 810 1110 846 1131 l 601 986 l 567 986 z "},"Â":{"ha":999,"x_min":-62,"x_max":904,"o":"m -62 0 l -58 22 l 21 65 l 506 924 l 649 924 l 825 69 l 904 22 l 900 0 l 450 0 l 454 22 l 571 74 l 529 288 l 236 288 l 114 69 l 213 22 l 207 0 l -62 0 m 279 364 l 514 364 l 451 675 l 279 364 m 364 986 l 583 1197 l 658 1197 l 800 986 l 765 986 l 600 1069 l 399 986 l 364 986 z "},"Ã":{"ha":999,"x_min":-62,"x_max":904,"o":"m -62 0 l -58 22 l 21 65 l 506 924 l 649 924 l 825 69 l 904 22 l 900 0 l 450 0 l 454 22 l 571 74 l 529 288 l 236 288 l 114 69 l 213 22 l 207 0 l -62 0 m 279 364 l 514 364 l 451 675 l 279 364 m 361 999 q 423 1120 396 1081 q 476 1172 450 1160 q 533 1185 503 1185 q 603 1166 572 1185 q 663 1128 635 1147 q 722 1108 692 1108 q 764 1121 744 1108 q 810 1185 783 1133 l 844 1185 q 782 1063 808 1103 q 729 1011 756 1024 q 672 999 703 999 q 602 1017 633 999 q 542 1056 571 1036 q 483 1075 514 1075 q 442 1063 461 1075 q 396 999 422 1050 l 361 999 z "},"Ä":{"ha":999,"x_min":-62,"x_max":904,"o":"m -62 0 l -58 22 l 21 65 l 506 924 l 649 924 l 825 69 l 904 22 l 900 0 l 450 0 l 454 22 l 571 74 l 529 288 l 236 288 l 114 69 l 213 22 l 207 0 l -62 0 m 279 364 l 514 364 l 451 675 l 279 364 m 464 1011 q 406 1035 428 1011 q 383 1092 383 1060 q 406 1148 383 1124 q 464 1172 428 1172 q 522 1148 500 1172 q 544 1092 544 1124 q 522 1035 544 1060 q 464 1011 500 1011 m 740 1011 q 683 1035 706 1011 q 660 1092 660 1060 q 683 1148 660 1124 q 740 1172 706 1172 q 798 1148 775 1172 q 821 1092 821 1124 q 798 1035 821 1060 q 740 1011 775 1011 z "},"Ā":{"ha":999,"x_min":-62,"x_max":904,"o":"m -62 0 l -58 22 l 21 65 l 506 924 l 649 924 l 825 69 l 904 22 l 900 0 l 450 0 l 454 22 l 571 74 l 529 288 l 236 288 l 114 69 l 213 22 l 207 0 l -62 0 m 279 364 l 514 364 l 451 675 l 279 364 m 382 1044 l 399 1136 l 824 1136 l 807 1044 l 382 1044 z "},"Ă":{"ha":999,"x_min":-62,"x_max":904,"o":"m -62 0 l -58 22 l 21 65 l 506 924 l 649 924 l 825 69 l 904 22 l 900 0 l 450 0 l 454 22 l 571 74 l 529 288 l 236 288 l 114 69 l 213 22 l 207 0 l -62 0 m 279 364 l 514 364 l 451 675 l 279 364 m 585 986 q 437 1036 481 986 q 385 1197 393 1086 l 419 1197 q 484 1120 439 1142 q 601 1099 529 1099 q 724 1119 672 1099 q 811 1197 776 1139 l 846 1197 q 742 1038 806 1089 q 585 986 679 986 z "},"Å":{"ha":999,"x_min":-62,"x_max":904,"o":"m -62 0 l -58 22 l 21 65 l 506 924 l 649 924 l 825 69 l 904 22 l 900 0 l 450 0 l 454 22 l 571 74 l 529 288 l 236 288 l 114 69 l 213 22 l 207 0 l -62 0 m 279 364 l 514 364 l 451 675 l 279 364 m 592 986 q 513 1015 538 986 q 489 1090 489 1044 q 526 1185 489 1146 q 621 1225 563 1225 q 699 1196 674 1225 q 725 1121 725 1167 q 688 1026 725 1065 q 592 986 651 986 m 597 1019 q 636 1047 621 1019 q 651 1124 651 1075 q 617 1192 651 1192 q 578 1164 593 1192 q 563 1088 563 1136 q 597 1019 563 1019 z "},"Ǻ":{"ha":999,"x_min":-62,"x_max":917,"o":"m -62 0 l -58 22 l 21 65 l 506 924 l 649 924 l 825 69 l 904 22 l 900 0 l 450 0 l 454 22 l 571 74 l 529 288 l 236 288 l 114 69 l 213 22 l 207 0 l -62 0 m 279 364 l 514 364 l 451 675 l 279 364 m 592 986 q 513 1015 538 986 q 489 1090 489 1044 q 526 1185 489 1146 q 621 1225 563 1225 q 699 1196 674 1225 q 725 1121 725 1167 q 688 1026 725 1065 q 592 986 651 986 m 597 1019 q 636 1047 621 1019 q 651 1124 651 1075 q 617 1192 651 1192 q 578 1164 593 1192 q 563 1088 563 1136 q 597 1019 563 1019 m 614 1257 l 742 1468 l 917 1468 q 903 1424 913 1447 q 857 1381 893 1401 l 649 1257 l 614 1257 z "},"Ạ":{"ha":999,"x_min":-62,"x_max":904,"o":"m -62 0 l -58 22 l 21 65 l 506 924 l 649 924 l 825 69 l 904 22 l 900 0 l 450 0 l 454 22 l 571 74 l 529 288 l 236 288 l 114 69 l 213 22 l 207 0 l -62 0 m 279 364 l 514 364 l 451 675 l 279 364 z "},"Ą":{"ha":999,"x_min":-62,"x_max":904,"o":"m -62 0 l -58 22 l 21 67 l 506 924 l 649 924 l 825 74 l 904 22 l 900 0 l 719 0 q 679 -88 696 -42 q 663 -181 663 -135 q 736 -254 663 -254 q 767 -248 750 -254 q 794 -232 783 -242 l 800 -232 l 792 -262 q 738 -314 771 -294 q 660 -333 706 -333 q 567 -303 600 -333 q 533 -222 533 -274 q 574 -105 533 -161 q 668 0 615 -49 l 450 0 l 454 22 l 571 74 l 529 288 l 236 288 l 115 71 l 213 22 l 207 0 l -62 0 m 279 364 l 514 364 l 451 675 l 279 364 z "},"Ȁ":{"ha":999,"x_min":-62,"x_max":904,"o":"m -62 0 l -58 22 l 21 65 l 506 924 l 649 924 l 825 69 l 904 22 l 900 0 l 450 0 l 454 22 l 571 74 l 529 288 l 236 288 l 114 69 l 213 22 l 207 0 l -62 0 m 279 364 l 514 364 l 451 675 l 279 364 m 672 986 l 499 1110 q 471 1149 476 1125 q 469 1197 465 1172 l 613 1197 l 707 986 l 672 986 m 461 986 l 261 1110 q 232 1149 238 1125 q 231 1197 226 1172 l 374 1197 l 496 986 l 461 986 z "},"Ȃ":{"ha":999,"x_min":-62,"x_max":904,"o":"m -62 0 l -58 22 l 21 65 l 506 924 l 649 924 l 825 69 l 904 22 l 900 0 l 450 0 l 454 22 l 571 74 l 529 288 l 236 288 l 114 69 l 213 22 l 207 0 l -62 0 m 279 364 l 514 364 l 451 675 l 279 364 m 358 986 q 462 1146 399 1094 q 619 1197 525 1197 q 767 1147 724 1197 q 819 986 811 1097 l 785 986 q 720 1063 765 1042 q 603 1085 675 1085 q 480 1065 532 1085 q 393 986 428 1044 l 358 986 z "},"Ắ":{"ha":999,"x_min":-62,"x_max":904,"o":"m -62 0 l -58 22 l 21 65 l 506 924 l 649 924 l 825 69 l 904 22 l 900 0 l 450 0 l 454 22 l 571 74 l 529 288 l 236 288 l 114 69 l 213 22 l 207 0 l -62 0 m 279 364 l 514 364 l 451 675 l 279 364 z "},"Ặ":{"ha":999,"x_min":-62,"x_max":904,"o":"m -62 0 l -58 22 l 21 65 l 506 924 l 649 924 l 825 69 l 904 22 l 900 0 l 450 0 l 454 22 l 571 74 l 529 288 l 236 288 l 114 69 l 213 22 l 207 0 l -62 0 m 279 364 l 514 364 l 451 675 l 279 364 m 585 986 q 437 1036 481 986 q 385 1197 393 1086 l 419 1197 q 484 1120 439 1142 q 601 1099 529 1099 q 724 1119 672 1099 q 811 1197 776 1139 l 846 1197 q 742 1038 806 1089 q 585 986 679 986 z "},"Ằ":{"ha":999,"x_min":-62,"x_max":904,"o":"m -62 0 l -58 22 l 21 65 l 506 924 l 649 924 l 825 69 l 904 22 l 900 0 l 450 0 l 454 22 l 571 74 l 529 288 l 236 288 l 114 69 l 213 22 l 207 0 l -62 0 m 279 364 l 514 364 l 451 675 l 279 364 z "},"Ẳ":{"ha":999,"x_min":-62,"x_max":904,"o":"m -62 0 l -58 22 l 21 65 l 506 924 l 649 924 l 825 69 l 904 22 l 900 0 l 450 0 l 454 22 l 571 74 l 529 288 l 236 288 l 114 69 l 213 22 l 207 0 l -62 0 m 279 364 l 514 364 l 451 675 l 279 364 z "},"Ẵ":{"ha":999,"x_min":-62,"x_max":904,"o":"m -62 0 l -58 22 l 21 65 l 506 924 l 649 924 l 825 69 l 904 22 l 900 0 l 450 0 l 454 22 l 571 74 l 529 288 l 236 288 l 114 69 l 213 22 l 207 0 l -62 0 m 279 364 l 514 364 l 451 675 l 279 364 z "},"Ấ":{"ha":999,"x_min":-62,"x_max":1011,"o":"m -62 0 l -58 22 l 21 65 l 506 924 l 649 924 l 825 69 l 904 22 l 900 0 l 450 0 l 454 22 l 571 74 l 529 288 l 236 288 l 114 69 l 213 22 l 207 0 l -62 0 m 279 364 l 514 364 l 451 675 l 279 364 m 760 1118 l 851 1317 l 1011 1317 q 996 1274 1007 1296 q 951 1229 985 1253 l 794 1118 l 760 1118 m 364 986 l 583 1197 l 658 1197 l 800 986 l 765 986 l 600 1069 l 399 986 l 364 986 z "},"Ậ":{"ha":999,"x_min":-62,"x_max":904,"o":"m -62 0 l -58 22 l 21 65 l 506 924 l 649 924 l 825 69 l 904 22 l 900 0 l 450 0 l 454 22 l 571 74 l 529 288 l 236 288 l 114 69 l 213 22 l 207 0 l -62 0 m 279 364 l 514 364 l 451 675 l 279 364 m 364 986 l 583 1197 l 658 1197 l 800 986 l 765 986 l 600 1069 l 399 986 l 364 986 z "},"Ầ":{"ha":999,"x_min":-62,"x_max":904,"o":"m -62 0 l -58 22 l 21 65 l 506 924 l 649 924 l 825 69 l 904 22 l 900 0 l 450 0 l 454 22 l 571 74 l 529 288 l 236 288 l 114 69 l 213 22 l 207 0 l -62 0 m 279 364 l 514 364 l 451 675 l 279 364 m 415 1118 l 258 1229 q 214 1267 226 1251 q 206 1317 201 1282 l 358 1317 l 450 1118 l 415 1118 m 364 986 l 583 1197 l 658 1197 l 800 986 l 765 986 l 600 1069 l 399 986 l 364 986 z "},"Ẩ":{"ha":999,"x_min":-62,"x_max":904,"o":"m -62 0 l -58 22 l 21 65 l 506 924 l 649 924 l 825 69 l 904 22 l 900 0 l 450 0 l 454 22 l 571 74 l 529 288 l 236 288 l 114 69 l 213 22 l 207 0 l -62 0 m 279 364 l 514 364 l 451 675 l 279 364 z "},"Ẫ":{"ha":999,"x_min":-62,"x_max":904,"o":"m -62 0 l -58 22 l 21 65 l 506 924 l 649 924 l 825 69 l 904 22 l 900 0 l 450 0 l 454 22 l 571 74 l 529 288 l 236 288 l 114 69 l 213 22 l 207 0 l -62 0 m 279 364 l 514 364 l 451 675 l 279 364 z "},"Ả":{"ha":999,"x_min":-62,"x_max":904,"o":"m -62 0 l -58 22 l 21 65 l 506 924 l 649 924 l 825 69 l 904 22 l 900 0 l 450 0 l 454 22 l 571 74 l 529 288 l 236 288 l 114 69 l 213 22 l 207 0 l -62 0 m 279 364 l 514 364 l 451 675 l 279 364 m 532 971 l 522 985 l 522 986 q 589 1013 569 997 q 608 1051 608 1028 q 590 1088 608 1072 q 531 1113 572 1104 l 567 1211 q 667 1169 636 1201 q 697 1100 697 1138 q 653 1013 697 1043 q 532 971 610 983 z "},"Æ":{"ha":1338,"x_min":-62,"x_max":1317,"o":"m -62 0 l -58 22 l 26 65 l 678 917 l 1317 917 l 1275 675 l 1254 675 l 1181 840 l 925 840 l 868 511 l 1035 511 l 1143 633 l 1165 633 l 1108 315 l 1086 315 l 1021 435 l 854 435 l 792 76 l 1069 76 l 1224 304 l 1246 304 l 1192 0 l 429 0 l 433 22 l 554 81 l 596 315 l 314 315 l 124 67 l 213 22 l 207 0 l -62 0 m 372 392 l 610 392 l 681 794 l 372 392 z "},"Ǽ":{"ha":1338,"x_min":-62,"x_max":1317,"o":"m -62 0 l -58 22 l 26 65 l 678 917 l 1317 917 l 1275 675 l 1254 675 l 1181 840 l 925 840 l 868 511 l 1035 511 l 1143 633 l 1165 633 l 1108 315 l 1086 315 l 1021 435 l 854 435 l 792 76 l 1069 76 l 1224 304 l 1246 304 l 1192 0 l 429 0 l 433 22 l 554 81 l 596 315 l 314 315 l 124 67 l 213 22 l 207 0 l -62 0 m 372 392 l 610 392 l 681 794 l 372 392 m 821 986 l 949 1197 l 1124 1197 q 1110 1153 1119 1176 q 1064 1110 1100 1131 l 856 986 l 821 986 z "},"Ć":{"ha":919,"x_min":56,"x_max":888,"o":"m 457 -14 q 244 35 333 -14 q 105 168 154 83 q 56 361 56 253 q 99 574 56 472 q 221 757 143 676 q 403 884 299 838 q 628 931 507 931 q 763 911 713 931 q 858 864 813 892 l 835 594 l 810 594 l 699 843 q 607 864 667 864 q 488 822 543 864 q 390 707 432 781 q 325 535 349 633 q 301 325 301 438 q 351 133 301 206 q 489 60 400 60 q 551 66 519 60 q 614 89 582 72 l 792 304 l 817 304 l 758 61 q 622 6 706 25 q 457 -14 539 -14 m 585 986 l 713 1197 l 888 1197 q 874 1153 883 1176 q 828 1110 864 1131 l 619 986 l 585 986 z "},"Ĉ":{"ha":919,"x_min":56,"x_max":858,"o":"m 457 -14 q 244 35 333 -14 q 105 168 154 83 q 56 361 56 253 q 99 574 56 472 q 221 757 143 676 q 403 884 299 838 q 628 931 507 931 q 763 911 713 931 q 858 864 813 892 l 835 594 l 810 594 l 699 843 q 607 864 667 864 q 488 822 543 864 q 390 707 432 781 q 325 535 349 633 q 301 325 301 438 q 351 133 301 206 q 489 60 400 60 q 551 66 519 60 q 614 89 582 72 l 792 304 l 817 304 l 758 61 q 622 6 706 25 q 457 -14 539 -14 m 382 986 l 601 1197 l 676 1197 l 818 986 l 783 986 l 618 1069 l 417 986 l 382 986 z "},"Č":{"ha":919,"x_min":56,"x_max":858,"o":"m 457 -14 q 244 35 333 -14 q 105 168 154 83 q 56 361 56 253 q 99 574 56 472 q 221 757 143 676 q 403 884 299 838 q 628 931 507 931 q 763 911 713 931 q 858 864 813 892 l 835 594 l 810 594 l 699 843 q 607 864 667 864 q 488 822 543 864 q 390 707 432 781 q 325 535 349 633 q 301 325 301 438 q 351 133 301 206 q 489 60 400 60 q 551 66 519 60 q 614 89 582 72 l 792 304 l 817 304 l 758 61 q 622 6 706 25 q 457 -14 539 -14 m 563 986 l 419 1197 l 454 1197 l 613 1114 l 821 1197 l 856 1197 l 638 986 l 563 986 z "},"Ċ":{"ha":919,"x_min":56,"x_max":858,"o":"m 457 -14 q 244 35 333 -14 q 105 168 154 83 q 56 361 56 253 q 99 574 56 472 q 221 757 143 676 q 403 884 299 838 q 628 931 507 931 q 763 911 713 931 q 858 864 813 892 l 835 594 l 810 594 l 699 843 q 607 864 667 864 q 488 822 543 864 q 390 707 432 781 q 325 535 349 633 q 301 325 301 438 q 351 133 301 206 q 489 60 400 60 q 551 66 519 60 q 614 89 582 72 l 792 304 l 817 304 l 758 61 q 622 6 706 25 q 457 -14 539 -14 m 619 985 q 543 1014 574 985 q 513 1090 513 1043 q 543 1168 513 1138 q 619 1199 574 1199 q 697 1168 667 1199 q 726 1090 726 1138 q 697 1014 726 1043 q 619 985 667 985 z "},"Ç":{"ha":919,"x_min":56,"x_max":858,"o":"m 415 -333 q 356 -326 381 -333 q 314 -307 332 -318 l 319 -276 l 325 -276 q 357 -286 338 -283 q 393 -289 376 -289 q 449 -274 428 -289 q 471 -232 471 -258 q 445 -185 471 -207 q 350 -149 419 -162 l 429 -14 q 231 42 315 -7 q 101 174 147 92 q 56 361 56 257 q 99 574 56 472 q 221 757 143 676 q 403 884 299 838 q 628 931 507 931 q 763 911 713 931 q 858 864 813 892 l 835 594 l 810 594 l 699 843 q 607 864 667 864 q 488 822 543 864 q 390 707 432 781 q 325 535 349 633 q 301 325 301 438 q 351 133 301 206 q 489 60 400 60 q 551 66 519 60 q 614 89 582 72 l 792 304 l 817 304 l 758 61 q 633 8 708 28 q 479 -14 557 -11 l 453 -60 q 553 -111 524 -76 q 583 -190 583 -146 q 536 -293 583 -253 q 415 -333 489 -333 z "},"Ḉ":{"ha":919,"x_min":56,"x_max":888,"o":"m 585 986 l 713 1197 l 888 1197 q 874 1153 883 1176 q 828 1110 864 1131 l 619 986 l 585 986 m 415 -333 q 356 -326 381 -333 q 314 -307 332 -318 l 319 -276 l 325 -276 q 357 -286 338 -283 q 393 -289 376 -289 q 449 -274 428 -289 q 471 -232 471 -258 q 445 -185 471 -207 q 350 -149 419 -162 l 429 -14 q 231 42 315 -7 q 101 174 147 92 q 56 361 56 257 q 99 574 56 472 q 221 757 143 676 q 403 884 299 838 q 628 931 507 931 q 763 911 713 931 q 858 864 813 892 l 835 594 l 810 594 l 699 843 q 607 864 667 864 q 488 822 543 864 q 390 707 432 781 q 325 535 349 633 q 301 325 301 438 q 351 133 301 206 q 489 60 400 60 q 551 66 519 60 q 614 89 582 72 l 792 304 l 817 304 l 758 61 q 633 8 708 28 q 479 -14 557 -11 l 453 -60 q 553 -111 524 -76 q 583 -190 583 -146 q 536 -293 583 -253 q 415 -333 489 -333 z "},"Ď":{"ha":1051,"x_min":-42,"x_max":996,"o":"m -42 0 l -37 22 l 78 78 l 211 839 l 115 894 l 119 917 l 521 917 q 780 867 674 917 q 941 729 886 818 q 996 521 996 640 q 949 314 996 408 q 820 149 903 219 q 628 39 738 78 q 396 0 519 0 l -42 0 m 483 843 l 451 843 l 314 67 l 414 67 q 583 126 506 67 q 706 292 660 186 q 751 538 751 397 q 679 761 751 679 q 483 843 607 843 m 519 986 l 376 1197 l 411 1197 l 569 1114 l 778 1197 l 813 1197 l 594 986 l 519 986 z "},"Đ":{"ha":1051,"x_min":-42,"x_max":996,"o":"m -42 0 l -37 22 l 78 78 l 140 438 l 35 438 l 47 510 l 153 510 l 211 839 l 115 894 l 119 917 l 521 917 q 780 867 674 917 q 941 729 886 818 q 996 521 996 640 q 949 314 996 408 q 820 149 903 219 q 628 39 738 78 q 396 0 519 0 l -42 0 m 547 438 l 379 438 l 314 67 l 414 67 q 583 126 506 67 q 706 292 660 186 q 751 538 751 397 q 679 761 751 679 q 483 843 607 843 l 451 843 l 392 510 l 560 510 l 547 438 z "},"Ḍ":{"ha":1051,"x_min":-42,"x_max":996,"o":"m -42 0 l -37 22 l 78 78 l 211 839 l 115 894 l 119 917 l 521 917 q 780 867 674 917 q 941 729 886 818 q 996 521 996 640 q 949 314 996 408 q 820 149 903 219 q 628 39 738 78 q 396 0 519 0 l -42 0 m 483 843 l 451 843 l 314 67 l 414 67 q 583 126 506 67 q 706 292 660 186 q 751 538 751 397 q 679 761 751 679 q 483 843 607 843 z "},"Ḏ":{"ha":1051,"x_min":-42,"x_max":996,"o":"m -42 0 l -37 22 l 78 78 l 211 839 l 115 894 l 119 917 l 521 917 q 780 867 674 917 q 941 729 886 818 q 996 521 996 640 q 949 314 996 408 q 820 149 903 219 q 628 39 738 78 q 396 0 519 0 l -42 0 m 483 843 l 451 843 l 314 67 l 414 67 q 583 126 506 67 q 706 292 660 186 q 751 538 751 397 q 679 761 751 679 q 483 843 607 843 z "},"È":{"ha":867,"x_min":-42,"x_max":846,"o":"m -42 0 l -37 22 l 83 81 l 217 836 l 115 894 l 119 917 l 846 917 l 804 675 l 783 675 l 710 840 l 454 840 l 396 504 l 563 504 l 671 626 l 693 626 l 639 322 l 617 322 l 551 442 l 385 442 l 321 76 l 599 76 l 753 304 l 775 304 l 721 0 l -42 0 m 515 986 l 304 1110 q 274 1146 278 1125 q 275 1197 271 1167 l 432 1197 l 550 986 l 515 986 z "},"É":{"ha":867,"x_min":-42,"x_max":846,"o":"m -42 0 l -37 22 l 83 81 l 217 836 l 115 894 l 119 917 l 846 917 l 804 675 l 783 675 l 710 840 l 454 840 l 396 504 l 563 504 l 671 626 l 693 626 l 639 322 l 617 322 l 551 442 l 385 442 l 321 76 l 599 76 l 753 304 l 775 304 l 721 0 l -42 0 m 517 986 l 644 1197 l 819 1197 q 806 1153 815 1176 q 760 1110 796 1131 l 551 986 l 517 986 z "},"Ê":{"ha":867,"x_min":-42,"x_max":846,"o":"m -42 0 l -37 22 l 83 81 l 217 836 l 115 894 l 119 917 l 846 917 l 804 675 l 783 675 l 710 840 l 454 840 l 396 504 l 563 504 l 671 626 l 693 626 l 639 322 l 617 322 l 551 442 l 385 442 l 321 76 l 599 76 l 753 304 l 775 304 l 721 0 l -42 0 m 314 986 l 533 1197 l 608 1197 l 750 986 l 715 986 l 550 1069 l 349 986 l 314 986 z "},"Ě":{"ha":867,"x_min":-42,"x_max":846,"o":"m -42 0 l -37 22 l 83 81 l 217 836 l 115 894 l 119 917 l 846 917 l 804 675 l 783 675 l 710 840 l 454 840 l 396 504 l 563 504 l 671 626 l 693 626 l 639 322 l 617 322 l 551 442 l 385 442 l 321 76 l 599 76 l 753 304 l 775 304 l 721 0 l -42 0 m 494 986 l 351 1197 l 386 1197 l 544 1114 l 753 1197 l 788 1197 l 569 986 l 494 986 z "},"Ẽ":{"ha":867,"x_min":-42,"x_max":846,"o":"m -42 0 l -37 22 l 83 81 l 217 836 l 115 894 l 119 917 l 846 917 l 804 675 l 783 675 l 710 840 l 454 840 l 396 504 l 563 504 l 671 626 l 693 626 l 639 322 l 617 322 l 551 442 l 385 442 l 321 76 l 599 76 l 753 304 l 775 304 l 721 0 l -42 0 m 311 999 q 373 1120 346 1081 q 426 1172 400 1160 q 483 1185 453 1185 q 553 1166 522 1185 q 613 1128 585 1147 q 672 1108 642 1108 q 714 1121 694 1108 q 760 1185 733 1133 l 794 1185 q 732 1063 758 1103 q 679 1011 706 1024 q 622 999 653 999 q 552 1017 583 999 q 492 1056 521 1036 q 433 1075 464 1075 q 392 1063 411 1075 q 346 999 372 1050 l 311 999 z "},"Ë":{"ha":867,"x_min":-42,"x_max":846,"o":"m -42 0 l -37 22 l 83 81 l 217 836 l 115 894 l 119 917 l 846 917 l 804 675 l 783 675 l 710 840 l 454 840 l 396 504 l 563 504 l 671 626 l 693 626 l 639 322 l 617 322 l 551 442 l 385 442 l 321 76 l 599 76 l 753 304 l 775 304 l 721 0 l -42 0 m 414 1011 q 356 1035 378 1011 q 333 1092 333 1060 q 356 1148 333 1124 q 414 1172 378 1172 q 472 1148 450 1172 q 494 1092 494 1124 q 472 1035 494 1060 q 414 1011 450 1011 m 690 1011 q 633 1035 656 1011 q 610 1092 610 1060 q 633 1148 610 1124 q 690 1172 656 1172 q 748 1148 725 1172 q 771 1092 771 1124 q 748 1035 771 1060 q 690 1011 725 1011 z "},"Ē":{"ha":867,"x_min":-42,"x_max":846,"o":"m -42 0 l -37 22 l 83 81 l 217 836 l 115 894 l 119 917 l 846 917 l 804 675 l 783 675 l 710 840 l 454 840 l 396 504 l 563 504 l 671 626 l 693 626 l 639 322 l 617 322 l 551 442 l 385 442 l 321 76 l 599 76 l 753 304 l 775 304 l 721 0 l -42 0 m 332 1044 l 349 1136 l 774 1136 l 757 1044 l 332 1044 z "},"Ĕ":{"ha":867,"x_min":-42,"x_max":846,"o":"m -42 0 l -37 22 l 83 81 l 217 836 l 115 894 l 119 917 l 846 917 l 804 675 l 783 675 l 710 840 l 454 840 l 396 504 l 563 504 l 671 626 l 693 626 l 639 322 l 617 322 l 551 442 l 385 442 l 321 76 l 599 76 l 753 304 l 775 304 l 721 0 l -42 0 m 535 986 q 387 1036 431 986 q 335 1197 343 1086 l 369 1197 q 434 1120 389 1142 q 551 1099 479 1099 q 674 1119 622 1099 q 761 1197 726 1139 l 796 1197 q 692 1038 756 1089 q 535 986 629 986 z "},"Ė":{"ha":867,"x_min":-42,"x_max":846,"o":"m -42 0 l -37 22 l 83 81 l 217 836 l 115 894 l 119 917 l 846 917 l 804 675 l 783 675 l 710 840 l 454 840 l 396 504 l 563 504 l 671 626 l 693 626 l 639 322 l 617 322 l 551 442 l 385 442 l 321 76 l 599 76 l 753 304 l 775 304 l 721 0 l -42 0 m 551 985 q 475 1014 506 985 q 444 1090 444 1043 q 475 1168 444 1138 q 551 1199 506 1199 q 628 1168 599 1199 q 658 1090 658 1138 q 628 1014 658 1043 q 551 985 599 985 z "},"Ę":{"ha":867,"x_min":-42,"x_max":846,"o":"m -42 0 l -37 22 l 83 81 l 217 836 l 115 894 l 119 917 l 846 917 l 804 675 l 783 675 l 710 840 l 454 840 l 396 504 l 563 504 l 671 626 l 693 626 l 639 322 l 617 322 l 551 442 l 385 442 l 321 76 l 599 76 l 753 304 l 775 304 l 721 0 l 606 0 q 565 -88 582 -42 q 549 -181 549 -135 q 622 -254 549 -254 q 653 -248 636 -254 q 681 -232 669 -242 l 686 -232 l 678 -262 q 624 -314 657 -294 q 546 -333 592 -333 q 453 -303 486 -333 q 419 -222 419 -274 q 460 -105 419 -161 q 554 0 501 -49 l -42 0 z "},"Ẹ":{"ha":867,"x_min":-42,"x_max":846,"o":"m -42 0 l -37 22 l 83 81 l 217 836 l 115 894 l 119 917 l 846 917 l 804 675 l 783 675 l 710 840 l 454 840 l 396 504 l 563 504 l 671 626 l 693 626 l 639 322 l 617 322 l 551 442 l 385 442 l 321 76 l 599 76 l 753 304 l 775 304 l 721 0 l -42 0 z "},"Ȅ":{"ha":867,"x_min":-42,"x_max":846,"o":"m -42 0 l -37 22 l 83 81 l 217 836 l 115 894 l 119 917 l 846 917 l 804 675 l 783 675 l 710 840 l 454 840 l 396 504 l 563 504 l 671 626 l 693 626 l 639 322 l 617 322 l 551 442 l 385 442 l 321 76 l 599 76 l 753 304 l 775 304 l 721 0 l -42 0 m 622 986 l 449 1110 q 421 1149 426 1125 q 419 1197 415 1172 l 563 1197 l 657 986 l 622 986 m 411 986 l 211 1110 q 182 1149 188 1125 q 181 1197 176 1172 l 324 1197 l 446 986 l 411 986 z "},"Ȇ":{"ha":867,"x_min":-42,"x_max":846,"o":"m -42 0 l -37 22 l 83 81 l 217 836 l 115 894 l 119 917 l 846 917 l 804 675 l 783 675 l 710 840 l 454 840 l 396 504 l 563 504 l 671 626 l 693 626 l 639 322 l 617 322 l 551 442 l 385 442 l 321 76 l 599 76 l 753 304 l 775 304 l 721 0 l -42 0 m 308 986 q 412 1146 349 1094 q 569 1197 475 1197 q 717 1147 674 1197 q 769 986 761 1097 l 735 986 q 670 1063 715 1042 q 553 1085 625 1085 q 430 1065 482 1085 q 343 986 378 1044 l 308 986 z "},"Ế":{"ha":867,"x_min":-42,"x_max":961,"o":"m -42 0 l -37 22 l 83 81 l 217 836 l 115 894 l 119 917 l 846 917 l 804 675 l 783 675 l 710 840 l 454 840 l 396 504 l 563 504 l 671 626 l 693 626 l 639 322 l 617 322 l 551 442 l 385 442 l 321 76 l 599 76 l 753 304 l 775 304 l 721 0 l -42 0 m 710 1118 l 801 1317 l 961 1317 q 946 1274 957 1296 q 901 1229 935 1253 l 744 1118 l 710 1118 m 314 986 l 533 1197 l 608 1197 l 750 986 l 715 986 l 550 1069 l 349 986 l 314 986 z "},"Ệ":{"ha":867,"x_min":-42,"x_max":846,"o":"m -42 0 l -37 22 l 83 81 l 217 836 l 115 894 l 119 917 l 846 917 l 804 675 l 783 675 l 710 840 l 454 840 l 396 504 l 563 504 l 671 626 l 693 626 l 639 322 l 617 322 l 551 442 l 385 442 l 321 76 l 599 76 l 753 304 l 775 304 l 721 0 l -42 0 m 314 986 l 533 1197 l 608 1197 l 750 986 l 715 986 l 550 1069 l 349 986 l 314 986 z "},"Ề":{"ha":867,"x_min":-42,"x_max":846,"o":"m -42 0 l -37 22 l 83 81 l 217 836 l 115 894 l 119 917 l 846 917 l 804 675 l 783 675 l 710 840 l 454 840 l 396 504 l 563 504 l 671 626 l 693 626 l 639 322 l 617 322 l 551 442 l 385 442 l 321 76 l 599 76 l 753 304 l 775 304 l 721 0 l -42 0 m 365 1118 l 208 1229 q 164 1267 176 1251 q 156 1317 151 1282 l 308 1317 l 400 1118 l 365 1118 m 314 986 l 533 1197 l 608 1197 l 750 986 l 715 986 l 550 1069 l 349 986 l 314 986 z "},"Ể":{"ha":867,"x_min":-42,"x_max":846,"o":"m -42 0 l -37 22 l 83 81 l 217 836 l 115 894 l 119 917 l 846 917 l 804 675 l 783 675 l 710 840 l 454 840 l 396 504 l 563 504 l 671 626 l 693 626 l 639 322 l 617 322 l 551 442 l 385 442 l 321 76 l 599 76 l 753 304 l 775 304 l 721 0 l -42 0 z "},"Ễ":{"ha":867,"x_min":-42,"x_max":847,"o":"m -42 0 l -37 22 l 83 81 l 217 836 l 115 894 l 119 917 l 846 917 l 804 675 l 783 675 l 710 840 l 454 840 l 396 504 l 563 504 l 671 626 l 693 626 l 639 322 l 617 322 l 551 442 l 385 442 l 321 76 l 599 76 l 753 304 l 775 304 l 721 0 l -42 0 z "},"Ẻ":{"ha":867,"x_min":-42,"x_max":846,"o":"m -42 0 l -37 22 l 83 81 l 217 836 l 115 894 l 119 917 l 846 917 l 804 675 l 783 675 l 710 840 l 454 840 l 396 504 l 563 504 l 671 626 l 693 626 l 639 322 l 617 322 l 551 442 l 385 442 l 321 76 l 599 76 l 753 304 l 775 304 l 721 0 l -42 0 m 482 971 l 472 985 l 472 986 q 539 1013 519 997 q 558 1051 558 1028 q 540 1088 558 1072 q 481 1113 522 1104 l 517 1211 q 617 1169 586 1201 q 647 1100 647 1138 q 603 1013 647 1043 q 482 971 560 983 z "},"Ḕ":{"ha":867,"x_min":-42,"x_max":846,"o":"m -42 0 l -37 22 l 83 81 l 217 836 l 115 894 l 119 917 l 846 917 l 804 675 l 783 675 l 710 840 l 454 840 l 396 504 l 563 504 l 671 626 l 693 626 l 639 322 l 617 322 l 551 442 l 385 442 l 321 76 l 599 76 l 753 304 l 775 304 l 721 0 l -42 0 z "},"Ḗ":{"ha":867,"x_min":-42,"x_max":857,"o":"m -42 0 l -37 22 l 83 81 l 217 836 l 115 894 l 119 917 l 846 917 l 804 675 l 783 675 l 710 840 l 454 840 l 396 504 l 563 504 l 671 626 l 693 626 l 639 322 l 617 322 l 551 442 l 385 442 l 321 76 l 599 76 l 753 304 l 775 304 l 721 0 l -42 0 z "},"Ḝ":{"ha":867,"x_min":-42,"x_max":846,"o":"m 535 986 q 387 1036 431 986 q 335 1197 343 1086 l 369 1197 q 433 1120 389 1142 q 551 1099 478 1099 q 674 1119 622 1099 q 761 1197 726 1139 l 796 1197 q 692 1038 756 1089 q 535 986 629 986 m -42 0 l -37 22 l 83 81 l 217 836 l 115 894 l 119 917 l 846 917 l 804 675 l 783 675 l 710 840 l 454 840 l 396 504 l 563 504 l 671 626 l 693 626 l 639 322 l 617 322 l 551 442 l 385 442 l 321 76 l 599 76 l 753 304 l 775 304 l 721 0 l 429 0 l 396 -60 q 497 -111 467 -76 q 526 -190 526 -146 q 479 -293 526 -253 q 358 -333 432 -333 q 299 -326 324 -333 q 257 -307 275 -318 l 263 -276 l 268 -276 q 300 -286 281 -283 q 336 -289 319 -289 q 393 -274 372 -289 q 414 -232 414 -258 q 388 -185 414 -207 q 293 -149 361 -162 l 381 0 l -42 0 z "},"Ĝ":{"ha":958,"x_min":56,"x_max":929,"o":"m 424 -14 q 233 34 317 -14 q 103 166 150 82 q 56 358 56 250 q 105 578 56 475 q 238 761 154 682 q 424 885 321 840 q 636 931 528 931 q 751 922 704 931 q 832 899 797 914 q 899 864 867 883 l 872 610 l 850 610 l 740 842 q 692 859 715 854 q 635 864 669 864 q 506 818 567 864 q 399 695 446 772 q 326 521 353 618 q 300 321 300 424 q 349 135 300 203 q 475 68 397 68 q 531 72 500 68 l 576 332 l 478 404 l 482 426 l 929 426 l 925 404 l 814 332 l 774 103 q 667 41 729 67 q 542 1 606 15 q 424 -14 478 -14 m 400 986 l 619 1197 l 694 1197 l 836 986 l 801 986 l 636 1069 l 435 986 l 400 986 z "},"Ğ":{"ha":958,"x_min":56,"x_max":929,"o":"m 424 -14 q 233 34 317 -14 q 103 166 150 82 q 56 358 56 250 q 105 578 56 475 q 238 761 154 682 q 424 885 321 840 q 636 931 528 931 q 751 922 704 931 q 832 899 797 914 q 899 864 867 883 l 872 610 l 850 610 l 740 842 q 692 859 715 854 q 635 864 669 864 q 506 818 567 864 q 399 695 446 772 q 326 521 353 618 q 300 321 300 424 q 349 135 300 203 q 475 68 397 68 q 531 72 500 68 l 576 332 l 478 404 l 482 426 l 929 426 l 925 404 l 814 332 l 774 103 q 667 41 729 67 q 542 1 606 15 q 424 -14 478 -14 m 621 986 q 473 1036 517 986 q 421 1197 429 1086 l 456 1197 q 520 1120 475 1142 q 638 1099 565 1099 q 760 1119 708 1099 q 847 1197 813 1139 l 882 1197 q 778 1038 842 1089 q 621 986 715 986 z "},"Ġ":{"ha":958,"x_min":56,"x_max":929,"o":"m 424 -14 q 233 34 317 -14 q 103 166 150 82 q 56 358 56 250 q 105 578 56 475 q 238 761 154 682 q 424 885 321 840 q 636 931 528 931 q 751 922 704 931 q 832 899 797 914 q 899 864 867 883 l 872 610 l 850 610 l 740 842 q 692 859 715 854 q 635 864 669 864 q 506 818 567 864 q 399 695 446 772 q 326 521 353 618 q 300 321 300 424 q 349 135 300 203 q 475 68 397 68 q 531 72 500 68 l 576 332 l 478 404 l 482 426 l 929 426 l 925 404 l 814 332 l 774 103 q 667 41 729 67 q 542 1 606 15 q 424 -14 478 -14 m 638 985 q 561 1014 592 985 q 531 1090 531 1043 q 561 1168 531 1138 q 638 1199 592 1199 q 715 1168 685 1199 q 744 1090 744 1138 q 715 1014 744 1043 q 638 985 685 985 z "},"Ģ":{"ha":958,"x_min":56,"x_max":929,"o":"m 424 -14 q 233 34 317 -14 q 103 166 150 82 q 56 358 56 250 q 105 578 56 475 q 238 761 154 682 q 424 885 321 840 q 636 931 528 931 q 751 922 704 931 q 832 899 797 914 q 899 864 867 883 l 872 610 l 850 610 l 740 842 q 692 859 715 854 q 635 864 669 864 q 506 818 567 864 q 399 695 446 772 q 326 521 353 618 q 300 321 300 424 q 349 135 300 203 q 475 68 397 68 q 531 72 500 68 l 576 332 l 478 404 l 482 426 l 929 426 l 925 404 l 814 332 l 774 103 q 667 41 729 67 q 542 1 606 15 q 424 -14 478 -14 m 663 986 q 560 1014 594 986 q 525 1092 525 1042 q 577 1183 525 1151 q 704 1215 629 1215 q 733 1214 718 1215 q 760 1210 749 1213 l 754 1183 q 732 1187 744 1186 q 713 1188 719 1188 q 642 1138 642 1188 q 666 1098 642 1110 q 738 1086 690 1086 l 724 1015 q 708 994 721 1003 q 663 986 694 986 z "},"Ǧ":{"ha":958,"x_min":56,"x_max":929,"o":"m 424 -14 q 233 34 317 -14 q 103 166 150 82 q 56 358 56 250 q 105 578 56 475 q 238 761 154 682 q 424 885 321 840 q 636 931 528 931 q 751 922 704 931 q 832 899 797 914 q 899 864 867 883 l 872 610 l 850 610 l 740 842 q 692 859 715 854 q 635 864 669 864 q 506 818 567 864 q 399 695 446 772 q 326 521 353 618 q 300 321 300 424 q 349 135 300 203 q 475 68 397 68 q 531 72 500 68 l 576 332 l 478 404 l 482 426 l 929 426 l 925 404 l 814 332 l 774 103 q 667 41 729 67 q 542 1 606 15 q 424 -14 478 -14 m 581 986 l 438 1197 l 472 1197 l 631 1114 l 839 1197 l 874 1197 l 656 986 l 581 986 z "},"Ḡ":{"ha":958,"x_min":56,"x_max":929,"o":"m 424 -14 q 233 34 317 -14 q 103 166 150 82 q 56 358 56 250 q 105 578 56 475 q 238 761 154 682 q 424 885 321 840 q 636 931 528 931 q 751 922 704 931 q 832 899 797 914 q 899 864 867 883 l 872 610 l 850 610 l 740 842 q 692 859 715 854 q 635 864 669 864 q 506 818 567 864 q 399 695 446 772 q 326 521 353 618 q 300 321 300 424 q 349 135 300 203 q 475 68 397 68 q 531 72 500 68 l 576 332 l 478 404 l 482 426 l 929 426 l 925 404 l 814 332 l 774 103 q 667 41 729 67 q 542 1 606 15 q 424 -14 478 -14 m 418 1044 l 435 1136 l 860 1136 l 843 1044 l 418 1044 z "},"Ĥ":{"ha":1068,"x_min":-42,"x_max":1110,"o":"m -42 0 l -37 22 l 83 81 l 217 836 l 115 894 l 119 917 l 565 917 l 561 894 l 454 836 l 397 511 l 693 511 l 750 836 l 661 894 l 665 917 l 1110 917 l 1106 894 l 988 836 l 854 81 l 953 22 l 949 0 l 504 0 l 508 22 l 617 81 l 679 435 l 383 435 l 321 81 l 408 22 l 404 0 l -42 0 m 404 986 l 624 1197 l 699 1197 l 840 986 l 806 986 l 640 1069 l 439 986 l 404 986 z "},"Ħ":{"ha":1068,"x_min":-42,"x_max":1110,"o":"m -42 0 l -37 22 l 83 81 l 185 651 l 72 651 l 88 724 l 197 724 l 217 836 l 115 894 l 119 917 l 565 917 l 561 894 l 454 836 l 435 724 l 731 724 l 750 836 l 661 894 l 665 917 l 1110 917 l 1106 894 l 988 836 l 968 724 l 1075 724 l 1060 651 l 956 651 l 854 81 l 953 22 l 949 0 l 504 0 l 508 22 l 617 81 l 679 435 l 383 435 l 321 81 l 408 22 l 404 0 l -42 0 m 397 511 l 693 511 l 718 651 l 422 651 l 397 511 z "},"Ḥ":{"ha":1068,"x_min":-42,"x_max":1110,"o":"m -42 0 l -37 22 l 83 81 l 217 836 l 115 894 l 119 917 l 565 917 l 561 894 l 454 836 l 397 511 l 693 511 l 750 836 l 661 894 l 665 917 l 1110 917 l 1106 894 l 988 836 l 854 81 l 953 22 l 949 0 l 504 0 l 508 22 l 617 81 l 679 435 l 383 435 l 321 81 l 408 22 l 404 0 l -42 0 z "},"Ḫ":{"ha":1068,"x_min":-42,"x_max":1110,"o":"m -42 0 l -37 22 l 83 81 l 217 836 l 115 894 l 119 917 l 565 917 l 561 894 l 454 836 l 397 511 l 693 511 l 750 836 l 661 894 l 665 917 l 1110 917 l 1106 894 l 988 836 l 854 81 l 953 22 l 949 0 l 504 0 l 508 22 l 617 81 l 679 435 l 383 435 l 321 81 l 408 22 l 404 0 l -42 0 z "},"Ì":{"ha":538,"x_min":-42,"x_max":579,"o":"m -42 0 l -37 22 l 83 81 l 217 836 l 115 894 l 119 917 l 579 917 l 575 894 l 454 836 l 321 81 l 422 22 l 418 0 l -42 0 m 342 986 l 131 1110 q 101 1146 104 1125 q 101 1197 97 1167 l 258 1197 l 376 986 l 342 986 z "},"Í":{"ha":538,"x_min":-42,"x_max":646,"o":"m -42 0 l -37 22 l 83 81 l 217 836 l 115 894 l 119 917 l 579 917 l 575 894 l 454 836 l 321 81 l 422 22 l 418 0 l -42 0 m 343 986 l 471 1197 l 646 1197 q 632 1153 642 1176 q 586 1110 622 1131 l 378 986 l 343 986 z "},"Î":{"ha":538,"x_min":-42,"x_max":579,"o":"m -42 0 l -37 22 l 83 81 l 217 836 l 115 894 l 119 917 l 579 917 l 575 894 l 454 836 l 321 81 l 422 22 l 418 0 l -42 0 m 140 986 l 360 1197 l 435 1197 l 576 986 l 542 986 l 376 1069 l 175 986 l 140 986 z "},"Ĩ":{"ha":538,"x_min":-42,"x_max":621,"o":"m -42 0 l -37 22 l 83 81 l 217 836 l 115 894 l 119 917 l 579 917 l 575 894 l 454 836 l 321 81 l 422 22 l 418 0 l -42 0 m 138 999 q 199 1120 172 1081 q 253 1172 226 1160 q 310 1185 279 1185 q 380 1166 349 1185 q 440 1128 411 1147 q 499 1108 468 1108 q 540 1121 521 1108 q 586 1185 560 1133 l 621 1185 q 558 1063 585 1103 q 506 1011 532 1024 q 449 999 479 999 q 378 1017 410 999 q 319 1056 347 1036 q 260 1075 290 1075 q 218 1063 238 1075 q 172 999 199 1050 l 138 999 z "},"Ï":{"ha":538,"x_min":-42,"x_max":597,"o":"m -42 0 l -37 22 l 83 81 l 217 836 l 115 894 l 119 917 l 579 917 l 575 894 l 454 836 l 321 81 l 422 22 l 418 0 l -42 0 m 240 1011 q 182 1035 204 1011 q 160 1092 160 1060 q 182 1148 160 1124 q 240 1172 204 1172 q 299 1148 276 1172 q 321 1092 321 1124 q 299 1035 321 1060 q 240 1011 276 1011 m 517 1011 q 459 1035 482 1011 q 436 1092 436 1060 q 459 1148 436 1124 q 517 1172 482 1172 q 574 1148 551 1172 q 597 1092 597 1124 q 574 1035 597 1060 q 517 1011 551 1011 z "},"Ī":{"ha":538,"x_min":-42,"x_max":600,"o":"m -42 0 l -37 22 l 83 81 l 217 836 l 115 894 l 119 917 l 579 917 l 575 894 l 454 836 l 321 81 l 422 22 l 418 0 l -42 0 m 158 1044 l 175 1136 l 600 1136 l 583 1044 l 158 1044 z "},"Ĭ":{"ha":538,"x_min":-42,"x_max":622,"o":"m -42 0 l -37 22 l 83 81 l 217 836 l 115 894 l 119 917 l 579 917 l 575 894 l 454 836 l 321 81 l 422 22 l 418 0 l -42 0 m 361 986 q 213 1036 257 986 q 161 1197 169 1086 l 196 1197 q 260 1120 215 1142 q 378 1099 306 1099 q 501 1119 449 1099 q 588 1197 553 1139 l 622 1197 q 519 1038 582 1089 q 361 986 456 986 z "},"İ":{"ha":538,"x_min":-42,"x_max":579,"o":"m -42 0 l -37 22 l 83 81 l 217 836 l 115 894 l 119 917 l 579 917 l 575 894 l 454 836 l 321 81 l 422 22 l 418 0 l -42 0 m 378 985 q 301 1014 332 985 q 271 1090 271 1043 q 301 1168 271 1138 q 378 1199 332 1199 q 455 1168 425 1199 q 485 1090 485 1138 q 455 1014 485 1043 q 378 985 425 985 z "},"Į":{"ha":538,"x_min":-42,"x_max":579,"o":"m -42 0 l -37 22 l 83 81 l 217 836 l 115 894 l 119 917 l 579 917 l 575 894 l 454 836 l 321 81 l 422 22 l 418 0 l 213 0 q 172 -88 189 -42 q 156 -181 156 -135 q 229 -254 156 -254 q 261 -248 244 -254 q 288 -232 278 -242 l 293 -232 l 285 -262 q 231 -314 264 -294 q 153 -333 199 -333 q 60 -303 93 -333 q 26 -222 26 -274 q 67 -105 26 -161 q 161 0 108 -49 l -42 0 z "},"Ị":{"ha":538,"x_min":-42,"x_max":579,"o":"m -42 0 l -37 22 l 83 81 l 217 836 l 115 894 l 119 917 l 579 917 l 575 894 l 454 836 l 321 81 l 422 22 l 418 0 l -42 0 z "},"Ȉ":{"ha":538,"x_min":-42,"x_max":579,"o":"m -42 0 l -37 22 l 83 81 l 217 836 l 115 894 l 119 917 l 579 917 l 575 894 l 454 836 l 321 81 l 422 22 l 418 0 l -42 0 m 449 986 l 275 1110 q 247 1149 253 1125 q 246 1197 242 1172 l 389 1197 l 483 986 l 449 986 m 238 986 l 38 1110 q 8 1149 14 1125 q 7 1197 3 1172 l 150 1197 l 272 986 l 238 986 z "},"Ȋ":{"ha":538,"x_min":-42,"x_max":596,"o":"m -42 0 l -37 22 l 83 81 l 217 836 l 115 894 l 119 917 l 579 917 l 575 894 l 454 836 l 321 81 l 422 22 l 418 0 l -42 0 m 135 986 q 238 1146 175 1094 q 396 1197 301 1197 q 544 1147 500 1197 q 596 986 588 1097 l 561 986 q 497 1063 542 1042 q 379 1085 451 1085 q 256 1065 308 1085 q 169 986 204 1044 l 135 986 z "},"Ỉ":{"ha":538,"x_min":-42,"x_max":579,"o":"m -42 0 l -37 22 l 83 81 l 217 836 l 115 894 l 119 917 l 579 917 l 575 894 l 454 836 l 321 81 l 422 22 l 418 0 l -42 0 m 308 971 l 299 985 l 299 986 q 365 1013 346 997 q 385 1051 385 1028 q 367 1088 385 1072 q 307 1113 349 1104 l 343 1211 q 443 1169 413 1201 q 474 1100 474 1138 q 430 1013 474 1043 q 308 971 386 983 z "},"Ḯ":{"ha":538,"x_min":-42,"x_max":683,"o":"m -42 0 l -37 22 l 83 81 l 217 836 l 115 894 l 119 917 l 579 917 l 575 894 l 454 836 l 321 81 l 422 22 l 418 0 l -42 0 z "},"Ĳ":{"ha":1089,"x_min":-42,"x_max":1133,"o":"m -42 0 l -37 22 l 83 81 l 217 836 l 115 894 l 119 917 l 579 917 l 575 894 l 454 836 l 321 81 l 422 22 l 418 0 l -42 0 m 478 -240 q 428 -222 443 -240 q 425 -169 414 -203 l 456 -76 l 464 -76 q 531 -89 499 -89 q 585 -75 563 -89 q 624 -17 607 -61 q 658 121 642 28 l 785 836 l 669 894 l 672 917 l 1133 917 l 1131 894 l 1022 836 l 926 318 q 870 143 908 219 q 784 6 832 67 q 689 -101 736 -54 q 602 -185 635 -156 q 542 -228 569 -215 q 478 -240 515 -240 z "},"Ĵ":{"ha":551,"x_min":-124,"x_max":603,"o":"m -60 -240 q -109 -222 -94 -240 q -112 -169 -124 -203 l -82 -76 l -74 -76 q -7 -89 -39 -89 q 47 -75 25 -89 q 87 -17 69 -61 q 121 121 104 28 l 247 836 l 132 894 l 135 917 l 596 917 l 593 894 l 485 836 l 389 318 q 333 143 371 219 q 247 6 294 67 q 151 -101 199 -54 q 65 -185 97 -156 q 5 -228 32 -215 q -60 -240 -22 -240 m 167 986 l 386 1197 l 461 1197 l 603 986 l 568 986 l 403 1069 l 201 986 l 167 986 z "},"Ķ":{"ha":1019,"x_min":-42,"x_max":1019,"o":"m -42 0 l -37 22 l 83 81 l 217 836 l 115 894 l 119 917 l 581 917 l 575 894 l 454 836 l 321 81 l 424 22 l 418 0 l -42 0 m 639 0 l 392 460 l 792 846 l 701 894 l 706 917 l 1019 917 l 1014 894 l 931 861 l 596 549 l 875 72 l 953 22 l 949 0 l 639 0 m 368 -332 q 338 -331 354 -332 q 313 -326 322 -329 l 318 -300 q 340 -303 328 -303 q 360 -304 353 -304 q 431 -254 431 -304 q 407 -215 431 -226 q 335 -203 383 -203 l 349 -132 q 364 -111 350 -119 q 410 -103 378 -103 q 513 -131 478 -103 q 547 -208 547 -158 q 495 -300 547 -268 q 368 -332 443 -332 z "},"Ĺ":{"ha":792,"x_min":-42,"x_max":743,"o":"m -42 0 l -37 22 l 83 81 l 217 836 l 115 894 l 119 917 l 593 917 l 589 894 l 454 836 l 319 76 l 549 76 l 721 340 l 743 340 l 679 0 l -42 0 m 343 986 l 471 1197 l 646 1197 q 632 1153 642 1176 q 586 1110 622 1131 l 378 986 l 343 986 z "},"Ľ":{"ha":792,"x_min":-42,"x_max":815,"o":"m -42 0 l -37 22 l 83 81 l 217 836 l 115 894 l 119 917 l 593 917 l 589 894 l 454 836 l 319 76 l 549 76 l 721 340 l 743 340 l 679 0 l -42 0 m 594 657 l 660 917 l 813 917 q 811 873 815 896 q 783 824 807 850 l 629 657 l 594 657 z "},"Ļ":{"ha":792,"x_min":-42,"x_max":743,"o":"m -42 0 l -37 22 l 83 81 l 217 836 l 115 894 l 119 917 l 593 917 l 589 894 l 454 836 l 319 76 l 549 76 l 721 340 l 743 340 l 679 0 l -42 0 m 261 -332 q 231 -331 247 -332 q 206 -326 215 -329 l 211 -300 q 233 -303 221 -303 q 253 -304 246 -304 q 324 -254 324 -304 q 300 -215 324 -226 q 228 -203 276 -203 l 242 -132 q 257 -111 243 -119 q 303 -103 271 -103 q 406 -131 371 -103 q 440 -208 440 -158 q 388 -300 440 -268 q 261 -332 336 -332 z "},"Ł":{"ha":792,"x_min":-42,"x_max":743,"o":"m -42 0 l -37 22 l 83 81 l 125 317 l 4 249 l 19 343 l 142 411 l 217 836 l 115 894 l 119 917 l 593 917 l 589 894 l 454 836 l 400 533 l 618 653 l 601 558 l 383 440 l 319 76 l 549 76 l 721 340 l 743 340 l 679 0 l -42 0 z "},"Ŀ":{"ha":792,"x_min":-42,"x_max":779,"o":"m -42 0 l -37 22 l 83 81 l 217 836 l 115 894 l 119 917 l 593 917 l 589 894 l 454 836 l 319 76 l 549 76 l 721 340 l 743 340 l 679 0 l -42 0 m 672 388 q 596 417 626 388 q 565 493 565 446 q 596 571 565 540 q 672 601 626 601 q 749 571 719 601 q 779 493 779 540 q 749 417 779 446 q 672 388 719 388 z "},"Ḷ":{"ha":792,"x_min":-42,"x_max":743,"o":"m -42 0 l -37 22 l 83 81 l 217 836 l 115 894 l 119 917 l 593 917 l 589 894 l 454 836 l 319 76 l 549 76 l 721 340 l 743 340 l 679 0 l -42 0 z "},"Ḻ":{"ha":792,"x_min":-42,"x_max":743,"o":"m -42 0 l -37 22 l 83 81 l 217 836 l 115 894 l 119 917 l 593 917 l 589 894 l 454 836 l 319 76 l 549 76 l 721 340 l 743 340 l 679 0 l -42 0 z "},"Ṃ":{"ha":1307,"x_min":-42,"x_max":1307,"o":"m -42 0 l -37 22 l 83 81 l 243 838 l 133 894 l 138 917 l 507 917 l 642 329 l 958 917 l 1307 917 l 1303 894 l 1185 836 l 1100 81 l 1192 22 l 1188 0 l 747 0 l 751 22 l 864 79 l 933 690 l 551 -7 l 472 -7 l 306 724 l 175 79 l 282 22 l 276 0 l -42 0 z "},"Ń":{"ha":1043,"x_min":-35,"x_max":1085,"o":"m -35 0 l -31 22 l 90 81 l 224 836 l 122 894 l 126 917 l 397 917 l 772 324 l 863 836 l 718 894 l 722 917 l 1085 917 l 1081 894 l 963 836 l 814 -7 l 706 -7 l 289 640 l 190 81 l 335 22 l 331 0 l -35 0 m 603 986 l 731 1197 l 906 1197 q 892 1153 901 1176 q 846 1110 882 1131 l 638 986 l 603 986 z "},"Ň":{"ha":1043,"x_min":-35,"x_max":1085,"o":"m -35 0 l -31 22 l 90 81 l 224 836 l 122 894 l 126 917 l 397 917 l 772 324 l 863 836 l 718 894 l 722 917 l 1085 917 l 1081 894 l 963 836 l 814 -7 l 706 -7 l 289 640 l 190 81 l 335 22 l 331 0 l -35 0 m 581 986 l 438 1197 l 472 1197 l 631 1114 l 839 1197 l 874 1197 l 656 986 l 581 986 z "},"Ñ":{"ha":1043,"x_min":-35,"x_max":1085,"o":"m -35 0 l -31 22 l 90 81 l 224 836 l 122 894 l 126 917 l 397 917 l 772 324 l 863 836 l 718 894 l 722 917 l 1085 917 l 1081 894 l 963 836 l 814 -7 l 706 -7 l 289 640 l 190 81 l 335 22 l 331 0 l -35 0 m 397 999 q 459 1120 432 1081 q 513 1172 486 1160 q 569 1185 539 1185 q 640 1166 608 1185 q 699 1128 671 1147 q 758 1108 728 1108 q 800 1121 781 1108 q 846 1185 819 1133 l 881 1185 q 818 1063 844 1103 q 765 1011 792 1024 q 708 999 739 999 q 638 1017 669 999 q 578 1056 607 1036 q 519 1075 550 1075 q 478 1063 497 1075 q 432 999 458 1050 l 397 999 z "},"Ņ":{"ha":1043,"x_min":-35,"x_max":1085,"o":"m -35 0 l -31 22 l 90 81 l 224 836 l 122 894 l 126 917 l 397 917 l 772 324 l 863 836 l 718 894 l 722 917 l 1085 917 l 1081 894 l 963 836 l 814 -7 l 706 -7 l 289 640 l 190 81 l 335 22 l 331 0 l -35 0 m 356 -332 q 326 -331 342 -332 q 300 -326 310 -329 l 306 -300 q 328 -303 315 -303 q 347 -304 340 -304 q 418 -254 418 -304 q 394 -215 418 -226 q 322 -203 371 -203 l 336 -132 q 351 -111 338 -119 q 397 -103 365 -103 q 500 -131 465 -103 q 535 -208 535 -158 q 483 -300 535 -268 q 356 -332 431 -332 z "},"Ṅ":{"ha":1043,"x_min":-35,"x_max":1085,"o":"m -35 0 l -31 22 l 90 81 l 224 836 l 122 894 l 126 917 l 397 917 l 772 324 l 863 836 l 718 894 l 722 917 l 1085 917 l 1081 894 l 963 836 l 814 -7 l 706 -7 l 289 640 l 190 81 l 335 22 l 331 0 l -35 0 m 638 985 q 561 1014 592 985 q 531 1090 531 1043 q 561 1168 531 1138 q 638 1199 592 1199 q 715 1168 685 1199 q 744 1090 744 1138 q 715 1014 744 1043 q 638 985 685 985 z "},"Ṇ":{"ha":1043,"x_min":-35,"x_max":1085,"o":"m -35 0 l -31 22 l 90 81 l 224 836 l 122 894 l 126 917 l 397 917 l 772 324 l 863 836 l 718 894 l 722 917 l 1085 917 l 1081 894 l 963 836 l 814 -7 l 706 -7 l 289 640 l 190 81 l 335 22 l 331 0 l -35 0 z "},"Ṉ":{"ha":1043,"x_min":-35,"x_max":1085,"o":"m -35 0 l -31 22 l 90 81 l 224 836 l 122 894 l 126 917 l 397 917 l 772 324 l 863 836 l 718 894 l 722 917 l 1085 917 l 1081 894 l 963 836 l 814 -7 l 706 -7 l 289 640 l 190 81 l 335 22 l 331 0 l -35 0 z "},"Ò":{"ha":1082,"x_min":56,"x_max":1026,"o":"m 471 -14 q 244 35 336 -14 q 103 173 151 85 q 56 376 56 261 q 98 594 56 493 q 216 770 140 694 q 392 888 292 846 q 610 931 493 931 q 837 881 744 931 q 978 744 929 832 q 1026 542 1026 656 q 986 324 1026 425 q 872 147 946 224 q 696 28 797 71 q 471 -14 594 -14 m 485 58 q 603 99 550 58 q 695 213 657 140 q 754 378 733 285 q 775 578 775 472 q 758 724 775 661 q 703 822 742 786 q 599 857 664 857 q 484 816 538 857 q 391 703 431 775 q 329 538 351 631 q 307 340 307 444 q 351 137 307 215 q 485 58 394 58 m 613 986 l 401 1110 q 372 1146 375 1125 q 372 1197 368 1167 l 529 1197 l 647 986 l 613 986 z "},"Ó":{"ha":1082,"x_min":56,"x_max":1026,"o":"m 471 -14 q 244 35 336 -14 q 103 173 151 85 q 56 376 56 261 q 98 594 56 493 q 216 770 140 694 q 392 888 292 846 q 610 931 493 931 q 837 881 744 931 q 978 744 929 832 q 1026 542 1026 656 q 986 324 1026 425 q 872 147 946 224 q 696 28 797 71 q 471 -14 594 -14 m 485 58 q 603 99 550 58 q 695 213 657 140 q 754 378 733 285 q 775 578 775 472 q 758 724 775 661 q 703 822 742 786 q 599 857 664 857 q 484 816 538 857 q 391 703 431 775 q 329 538 351 631 q 307 340 307 444 q 351 137 307 215 q 485 58 394 58 m 614 986 l 742 1197 l 917 1197 q 903 1153 913 1176 q 857 1110 893 1131 l 649 986 l 614 986 z "},"Ô":{"ha":1082,"x_min":56,"x_max":1026,"o":"m 471 -14 q 244 35 336 -14 q 103 173 151 85 q 56 376 56 261 q 98 594 56 493 q 216 770 140 694 q 392 888 292 846 q 610 931 493 931 q 837 881 744 931 q 978 744 929 832 q 1026 542 1026 656 q 986 324 1026 425 q 872 147 946 224 q 696 28 797 71 q 471 -14 594 -14 m 485 58 q 603 99 550 58 q 695 213 657 140 q 754 378 733 285 q 775 578 775 472 q 758 724 775 661 q 703 822 742 786 q 599 857 664 857 q 484 816 538 857 q 391 703 431 775 q 329 538 351 631 q 307 340 307 444 q 351 137 307 215 q 485 58 394 58 m 411 986 l 631 1197 l 706 1197 l 847 986 l 813 986 l 647 1069 l 446 986 l 411 986 z "},"Õ":{"ha":1082,"x_min":56,"x_max":1026,"o":"m 471 -14 q 244 35 336 -14 q 103 173 151 85 q 56 376 56 261 q 98 594 56 493 q 216 770 140 694 q 392 888 292 846 q 610 931 493 931 q 837 881 744 931 q 978 744 929 832 q 1026 542 1026 656 q 986 324 1026 425 q 872 147 946 224 q 696 28 797 71 q 471 -14 594 -14 m 485 58 q 603 99 550 58 q 695 213 657 140 q 754 378 733 285 q 775 578 775 472 q 758 724 775 661 q 703 822 742 786 q 599 857 664 857 q 484 816 538 857 q 391 703 431 775 q 329 538 351 631 q 307 340 307 444 q 351 137 307 215 q 485 58 394 58 m 408 999 q 470 1120 443 1081 q 524 1172 497 1160 q 581 1185 550 1185 q 651 1166 619 1185 q 710 1128 682 1147 q 769 1108 739 1108 q 811 1121 792 1108 q 857 1185 831 1133 l 892 1185 q 829 1063 856 1103 q 776 1011 803 1024 q 719 999 750 999 q 649 1017 681 999 q 590 1056 618 1036 q 531 1075 561 1075 q 489 1063 508 1075 q 443 999 469 1050 l 408 999 z "},"Ö":{"ha":1082,"x_min":56,"x_max":1026,"o":"m 471 -14 q 244 35 336 -14 q 103 173 151 85 q 56 376 56 261 q 98 594 56 493 q 216 770 140 694 q 392 888 292 846 q 610 931 493 931 q 837 881 744 931 q 978 744 929 832 q 1026 542 1026 656 q 986 324 1026 425 q 872 147 946 224 q 696 28 797 71 q 471 -14 594 -14 m 485 58 q 603 99 550 58 q 695 213 657 140 q 754 378 733 285 q 775 578 775 472 q 758 724 775 661 q 703 822 742 786 q 599 857 664 857 q 484 816 538 857 q 391 703 431 775 q 329 538 351 631 q 307 340 307 444 q 351 137 307 215 q 485 58 394 58 m 511 1011 q 453 1035 475 1011 q 431 1092 431 1060 q 453 1148 431 1124 q 511 1172 475 1172 q 569 1148 547 1172 q 592 1092 592 1124 q 569 1035 592 1060 q 511 1011 547 1011 m 788 1011 q 730 1035 753 1011 q 707 1092 707 1060 q 730 1148 707 1124 q 788 1172 753 1172 q 845 1148 822 1172 q 868 1092 868 1124 q 845 1035 868 1060 q 788 1011 822 1011 z "},"Ō":{"ha":1082,"x_min":56,"x_max":1026,"o":"m 471 -14 q 244 35 336 -14 q 103 173 151 85 q 56 376 56 261 q 98 594 56 493 q 216 770 140 694 q 392 888 292 846 q 610 931 493 931 q 837 881 744 931 q 978 744 929 832 q 1026 542 1026 656 q 986 324 1026 425 q 872 147 946 224 q 696 28 797 71 q 471 -14 594 -14 m 485 58 q 603 99 550 58 q 695 213 657 140 q 754 378 733 285 q 775 578 775 472 q 758 724 775 661 q 703 822 742 786 q 599 857 664 857 q 484 816 538 857 q 391 703 431 775 q 329 538 351 631 q 307 340 307 444 q 351 137 307 215 q 485 58 394 58 m 429 1044 l 446 1136 l 871 1136 l 854 1044 l 429 1044 z "},"Ŏ":{"ha":1082,"x_min":56,"x_max":1026,"o":"m 471 -14 q 244 35 336 -14 q 103 173 151 85 q 56 376 56 261 q 98 594 56 493 q 216 770 140 694 q 392 888 292 846 q 610 931 493 931 q 837 881 744 931 q 978 744 929 832 q 1026 542 1026 656 q 986 324 1026 425 q 872 147 946 224 q 696 28 797 71 q 471 -14 594 -14 m 485 58 q 603 99 550 58 q 695 213 657 140 q 754 378 733 285 q 775 578 775 472 q 758 724 775 661 q 703 822 742 786 q 599 857 664 857 q 484 816 538 857 q 391 703 431 775 q 329 538 351 631 q 307 340 307 444 q 351 137 307 215 q 485 58 394 58 m 632 986 q 484 1036 528 986 q 432 1197 440 1086 l 467 1197 q 531 1120 486 1142 q 649 1099 576 1099 q 772 1119 719 1099 q 858 1197 824 1139 l 893 1197 q 790 1038 853 1089 q 632 986 726 986 z "},"Ő":{"ha":1082,"x_min":56,"x_max":1026,"o":"m 471 -14 q 244 35 336 -14 q 103 173 151 85 q 56 376 56 261 q 98 594 56 493 q 216 770 140 694 q 392 888 292 846 q 610 931 493 931 q 837 881 744 931 q 978 744 929 832 q 1026 542 1026 656 q 986 324 1026 425 q 872 147 946 224 q 696 28 797 71 q 471 -14 594 -14 m 485 58 q 603 99 550 58 q 695 213 657 140 q 754 378 733 285 q 775 578 775 472 q 758 724 775 661 q 703 822 742 786 q 599 857 664 857 q 484 816 538 857 q 391 703 431 775 q 329 538 351 631 q 307 340 307 444 q 351 137 307 215 q 485 58 394 58 m 508 986 l 603 1197 l 746 1197 q 744 1149 750 1172 q 717 1110 739 1125 l 543 986 l 508 986 m 719 986 l 842 1197 l 985 1197 q 983 1149 989 1172 q 954 1110 978 1125 l 754 986 l 719 986 z "},"Ọ":{"ha":1082,"x_min":56,"x_max":1026,"o":"m 471 -14 q 244 35 336 -14 q 103 173 151 85 q 56 376 56 261 q 98 594 56 493 q 216 770 140 694 q 392 888 292 846 q 610 931 493 931 q 837 881 744 931 q 978 744 929 832 q 1026 542 1026 656 q 986 324 1026 425 q 872 147 946 224 q 696 28 797 71 q 471 -14 594 -14 m 485 58 q 603 99 550 58 q 695 213 657 140 q 754 378 733 285 q 775 578 775 472 q 758 724 775 661 q 703 822 742 786 q 599 857 664 857 q 484 816 538 857 q 391 703 431 775 q 329 538 351 631 q 307 340 307 444 q 351 137 307 215 q 485 58 394 58 z "},"Ǫ":{"ha":1082,"x_min":56,"x_max":1026,"o":"m 432 -333 q 339 -303 372 -333 q 306 -222 306 -274 q 342 -111 306 -164 q 426 -12 378 -58 q 223 47 306 -4 q 98 183 140 99 q 56 376 56 268 q 98 594 56 493 q 216 770 140 694 q 392 888 292 846 q 610 931 493 931 q 837 881 744 931 q 978 744 929 832 q 1026 542 1026 656 q 987 326 1026 426 q 875 151 947 226 q 703 32 803 75 q 485 -14 604 -11 q 449 -96 463 -53 q 435 -181 435 -139 q 508 -254 435 -254 q 539 -248 522 -254 q 567 -232 556 -242 l 572 -232 l 564 -262 q 510 -314 543 -294 q 432 -333 478 -333 m 485 58 q 603 99 550 58 q 695 213 657 140 q 754 378 733 285 q 775 578 775 472 q 758 724 775 661 q 703 822 742 786 q 599 857 664 857 q 484 816 538 857 q 391 703 431 775 q 329 538 351 631 q 307 340 307 444 q 351 137 307 215 q 485 58 394 58 z "},"Ȍ":{"ha":1082,"x_min":56,"x_max":1026,"o":"m 471 -14 q 244 35 336 -14 q 103 173 151 85 q 56 376 56 261 q 98 594 56 493 q 216 770 140 694 q 392 888 292 846 q 610 931 493 931 q 837 881 744 931 q 978 744 929 832 q 1026 542 1026 656 q 986 324 1026 425 q 872 147 946 224 q 696 28 797 71 q 471 -14 594 -14 m 485 58 q 603 99 550 58 q 695 213 657 140 q 754 378 733 285 q 775 578 775 472 q 758 724 775 661 q 703 822 742 786 q 599 857 664 857 q 484 816 538 857 q 391 703 431 775 q 329 538 351 631 q 307 340 307 444 q 351 137 307 215 q 485 58 394 58 m 719 986 l 546 1110 q 518 1149 524 1125 q 517 1197 513 1172 l 660 1197 l 754 986 l 719 986 m 508 986 l 308 1110 q 279 1149 285 1125 q 278 1197 274 1172 l 421 1197 l 543 986 l 508 986 z "},"Ȏ":{"ha":1082,"x_min":56,"x_max":1026,"o":"m 471 -14 q 244 35 336 -14 q 103 173 151 85 q 56 376 56 261 q 98 594 56 493 q 216 770 140 694 q 392 888 292 846 q 610 931 493 931 q 837 881 744 931 q 978 744 929 832 q 1026 542 1026 656 q 986 324 1026 425 q 872 147 946 224 q 696 28 797 71 q 471 -14 594 -14 m 485 58 q 603 99 550 58 q 695 213 657 140 q 754 378 733 285 q 775 578 775 472 q 758 724 775 661 q 703 822 742 786 q 599 857 664 857 q 484 816 538 857 q 391 703 431 775 q 329 538 351 631 q 307 340 307 444 q 351 137 307 215 q 485 58 394 58 m 406 986 q 509 1146 446 1094 q 667 1197 572 1197 q 815 1147 771 1197 q 867 986 858 1097 l 832 986 q 767 1063 813 1042 q 650 1085 722 1085 q 527 1065 579 1085 q 440 986 475 1044 l 406 986 z "},"Ȫ":{"ha":1082,"x_min":56,"x_max":1026,"o":"m 471 -14 q 244 35 336 -14 q 103 173 151 85 q 56 376 56 261 q 98 594 56 493 q 216 770 140 694 q 392 888 292 846 q 610 931 493 931 q 837 881 744 931 q 978 744 929 832 q 1026 542 1026 656 q 986 324 1026 425 q 872 147 946 224 q 696 28 797 71 q 471 -14 594 -14 m 485 58 q 603 99 550 58 q 695 213 657 140 q 754 378 733 285 q 775 578 775 472 q 758 724 775 661 q 703 822 742 786 q 599 857 664 857 q 484 816 538 857 q 391 703 431 775 q 329 538 351 631 q 307 340 307 444 q 351 137 307 215 q 485 58 394 58 z "},"Ȭ":{"ha":1082,"x_min":56,"x_max":1026,"o":"m 471 -14 q 244 35 336 -14 q 103 173 151 85 q 56 376 56 261 q 98 594 56 493 q 216 770 140 694 q 392 888 292 846 q 610 931 493 931 q 837 881 744 931 q 978 744 929 832 q 1026 542 1026 656 q 986 324 1026 425 q 872 147 946 224 q 696 28 797 71 q 471 -14 594 -14 m 485 58 q 603 99 550 58 q 695 213 657 140 q 754 378 733 285 q 775 578 775 472 q 758 724 775 661 q 703 822 742 786 q 599 857 664 857 q 484 816 538 857 q 391 703 431 775 q 329 538 351 631 q 307 340 307 444 q 351 137 307 215 q 485 58 394 58 z "},"Ȱ":{"ha":1082,"x_min":56,"x_max":1026,"o":"m 471 -14 q 244 35 336 -14 q 103 173 151 85 q 56 376 56 261 q 98 594 56 493 q 216 770 140 694 q 392 888 292 846 q 610 931 493 931 q 837 881 744 931 q 978 744 929 832 q 1026 542 1026 656 q 986 324 1026 425 q 872 147 946 224 q 696 28 797 71 q 471 -14 594 -14 m 485 58 q 603 99 550 58 q 695 213 657 140 q 754 378 733 285 q 775 578 775 472 q 758 724 775 661 q 703 822 742 786 q 599 857 664 857 q 484 816 538 857 q 391 703 431 775 q 329 538 351 631 q 307 340 307 444 q 351 137 307 215 q 485 58 394 58 z "},"Ố":{"ha":1082,"x_min":56,"x_max":1058,"o":"m 471 -14 q 244 35 336 -14 q 103 173 151 85 q 56 376 56 261 q 98 594 56 493 q 216 770 140 694 q 392 888 292 846 q 610 931 493 931 q 837 881 744 931 q 978 744 929 832 q 1026 542 1026 656 q 986 324 1026 425 q 872 147 946 224 q 696 28 797 71 q 471 -14 594 -14 m 485 58 q 603 99 550 58 q 695 213 657 140 q 754 378 733 285 q 775 578 775 472 q 758 724 775 661 q 703 822 742 786 q 599 857 664 857 q 484 816 538 857 q 391 703 431 775 q 329 538 351 631 q 307 340 307 444 q 351 137 307 215 q 485 58 394 58 m 807 1118 l 899 1317 l 1058 1317 q 1043 1274 1054 1296 q 999 1229 1032 1253 l 842 1118 l 807 1118 m 411 986 l 631 1197 l 706 1197 l 847 986 l 813 986 l 647 1069 l 446 986 l 411 986 z "},"Ộ":{"ha":1082,"x_min":56,"x_max":1026,"o":"m 471 -14 q 244 35 336 -14 q 103 173 151 85 q 56 376 56 261 q 98 594 56 493 q 216 770 140 694 q 392 888 292 846 q 610 931 493 931 q 837 881 744 931 q 978 744 929 832 q 1026 542 1026 656 q 986 324 1026 425 q 872 147 946 224 q 696 28 797 71 q 471 -14 594 -14 m 485 58 q 603 99 550 58 q 695 213 657 140 q 754 378 733 285 q 775 578 775 472 q 758 724 775 661 q 703 822 742 786 q 599 857 664 857 q 484 816 538 857 q 391 703 431 775 q 329 538 351 631 q 307 340 307 444 q 351 137 307 215 q 485 58 394 58 m 411 986 l 631 1197 l 706 1197 l 847 986 l 813 986 l 647 1069 l 446 986 l 411 986 z "},"Ồ":{"ha":1082,"x_min":56,"x_max":1026,"o":"m 471 -14 q 244 35 336 -14 q 103 173 151 85 q 56 376 56 261 q 98 594 56 493 q 216 770 140 694 q 392 888 292 846 q 610 931 493 931 q 837 881 744 931 q 978 744 929 832 q 1026 542 1026 656 q 986 324 1026 425 q 872 147 946 224 q 696 28 797 71 q 471 -14 594 -14 m 485 58 q 603 99 550 58 q 695 213 657 140 q 754 378 733 285 q 775 578 775 472 q 758 724 775 661 q 703 822 742 786 q 599 857 664 857 q 484 816 538 857 q 391 703 431 775 q 329 538 351 631 q 307 340 307 444 q 351 137 307 215 q 485 58 394 58 m 463 1118 l 306 1229 q 261 1267 274 1251 q 253 1317 249 1282 l 406 1317 l 497 1118 l 463 1118 m 411 986 l 631 1197 l 706 1197 l 847 986 l 813 986 l 647 1069 l 446 986 l 411 986 z "},"Ổ":{"ha":1082,"x_min":56,"x_max":1026,"o":"m 471 -14 q 244 35 336 -14 q 103 173 151 85 q 56 376 56 261 q 98 594 56 493 q 216 770 140 694 q 392 888 292 846 q 610 931 493 931 q 837 881 744 931 q 978 744 929 832 q 1026 542 1026 656 q 986 324 1026 425 q 872 147 946 224 q 696 28 797 71 q 471 -14 594 -14 m 485 58 q 603 99 550 58 q 695 213 657 140 q 754 378 733 285 q 775 578 775 472 q 758 724 775 661 q 703 822 742 786 q 599 857 664 857 q 484 816 538 857 q 391 703 431 775 q 329 538 351 631 q 307 340 307 444 q 351 137 307 215 q 485 58 394 58 z "},"Ỗ":{"ha":1082,"x_min":56,"x_max":1026,"o":"m 471 -14 q 244 35 336 -14 q 103 173 151 85 q 56 376 56 261 q 98 594 56 493 q 216 770 140 694 q 392 888 292 846 q 610 931 493 931 q 837 881 744 931 q 978 744 929 832 q 1026 542 1026 656 q 986 324 1026 425 q 872 147 946 224 q 696 28 797 71 q 471 -14 594 -14 m 485 58 q 603 99 550 58 q 695 213 657 140 q 754 378 733 285 q 775 578 775 472 q 758 724 775 661 q 703 822 742 786 q 599 857 664 857 q 484 816 538 857 q 391 703 431 775 q 329 538 351 631 q 307 340 307 444 q 351 137 307 215 q 485 58 394 58 z "},"Ỏ":{"ha":1082,"x_min":56,"x_max":1026,"o":"m 471 -14 q 244 35 336 -14 q 103 173 151 85 q 56 376 56 261 q 98 594 56 493 q 216 770 140 694 q 392 888 292 846 q 610 931 493 931 q 837 881 744 931 q 978 744 929 832 q 1026 542 1026 656 q 986 324 1026 425 q 872 147 946 224 q 696 28 797 71 q 471 -14 594 -14 m 485 58 q 603 99 550 58 q 695 213 657 140 q 754 378 733 285 q 775 578 775 472 q 758 724 775 661 q 703 822 742 786 q 599 857 664 857 q 484 816 538 857 q 391 703 431 775 q 329 538 351 631 q 307 340 307 444 q 351 137 307 215 q 485 58 394 58 m 579 971 l 569 985 l 569 986 q 636 1013 617 997 q 656 1051 656 1028 q 638 1088 656 1072 q 578 1113 619 1104 l 614 1211 q 714 1169 683 1201 q 744 1100 744 1138 q 701 1013 744 1043 q 579 971 657 983 z "},"Ṍ":{"ha":1082,"x_min":56,"x_max":1026,"o":"m 471 -14 q 244 35 336 -14 q 103 173 151 85 q 56 376 56 261 q 98 594 56 493 q 216 770 140 694 q 392 888 292 846 q 610 931 493 931 q 837 881 744 931 q 978 744 929 832 q 1026 542 1026 656 q 986 324 1026 425 q 872 147 946 224 q 696 28 797 71 q 471 -14 594 -14 m 485 58 q 603 99 550 58 q 695 213 657 140 q 754 378 733 285 q 775 578 775 472 q 758 724 775 661 q 703 822 742 786 q 599 857 664 857 q 484 816 538 857 q 391 703 431 775 q 329 538 351 631 q 307 340 307 444 q 351 137 307 215 q 485 58 394 58 z "},"Ṏ":{"ha":1082,"x_min":56,"x_max":1026,"o":"m 471 -14 q 244 35 336 -14 q 103 173 151 85 q 56 376 56 261 q 98 594 56 493 q 216 770 140 694 q 392 888 292 846 q 610 931 493 931 q 837 881 744 931 q 978 744 929 832 q 1026 542 1026 656 q 986 324 1026 425 q 872 147 946 224 q 696 28 797 71 q 471 -14 594 -14 m 485 58 q 603 99 550 58 q 695 213 657 140 q 754 378 733 285 q 775 578 775 472 q 758 724 775 661 q 703 822 742 786 q 599 857 664 857 q 484 816 538 857 q 391 703 431 775 q 329 538 351 631 q 307 340 307 444 q 351 137 307 215 q 485 58 394 58 z "},"Ṑ":{"ha":1082,"x_min":56,"x_max":1026,"o":"m 471 -14 q 244 35 336 -14 q 103 173 151 85 q 56 376 56 261 q 98 594 56 493 q 216 770 140 694 q 392 888 292 846 q 610 931 493 931 q 837 881 744 931 q 978 744 929 832 q 1026 542 1026 656 q 986 324 1026 425 q 872 147 946 224 q 696 28 797 71 q 471 -14 594 -14 m 485 58 q 603 99 550 58 q 695 213 657 140 q 754 378 733 285 q 775 578 775 472 q 758 724 775 661 q 703 822 742 786 q 599 857 664 857 q 484 816 538 857 q 391 703 431 775 q 329 538 351 631 q 307 340 307 444 q 351 137 307 215 q 485 58 394 58 z "},"Ṓ":{"ha":1082,"x_min":56,"x_max":1026,"o":"m 471 -14 q 244 35 336 -14 q 103 173 151 85 q 56 376 56 261 q 98 594 56 493 q 216 770 140 694 q 392 888 292 846 q 610 931 493 931 q 837 881 744 931 q 978 744 929 832 q 1026 542 1026 656 q 986 324 1026 425 q 872 147 946 224 q 696 28 797 71 q 471 -14 594 -14 m 485 58 q 603 99 550 58 q 695 213 657 140 q 754 378 733 285 q 775 578 775 472 q 758 724 775 661 q 703 822 742 786 q 599 857 664 857 q 484 816 538 857 q 391 703 431 775 q 329 538 351 631 q 307 340 307 444 q 351 137 307 215 q 485 58 394 58 z "},"Ø":{"ha":1082,"x_min":-17,"x_max":1099,"o":"m -17 -14 l 133 126 q 56 376 56 226 q 98 594 56 493 q 217 770 140 694 q 394 888 293 846 q 611 931 494 931 q 774 907 701 931 q 897 842 846 883 l 993 931 l 1099 931 l 949 790 q 1026 542 1026 690 q 986 324 1026 425 q 872 147 946 224 q 696 28 797 71 q 471 -14 594 -14 q 308 10 379 -14 q 185 75 236 33 l 89 -14 l -17 -14 m 307 340 q 308 290 307 314 l 761 714 q 706 819 744 781 q 599 857 667 857 q 484 816 538 857 q 391 703 431 775 q 329 538 351 631 q 307 340 307 444 m 485 58 q 603 99 550 58 q 695 213 657 140 q 754 378 733 285 q 775 578 775 472 q 774 626 775 604 l 324 206 q 382 98 342 138 q 485 58 422 58 z "},"Ǿ":{"ha":1082,"x_min":-17,"x_max":1099,"o":"m -17 -14 l 133 126 q 56 376 56 226 q 98 594 56 493 q 217 770 140 694 q 394 888 293 846 q 611 931 494 931 q 774 907 701 931 q 897 842 846 883 l 993 931 l 1099 931 l 949 790 q 1026 542 1026 690 q 986 324 1026 425 q 872 147 946 224 q 696 28 797 71 q 471 -14 594 -14 q 308 10 379 -14 q 185 75 236 33 l 89 -14 l -17 -14 m 307 340 q 308 290 307 314 l 761 714 q 706 819 744 781 q 599 857 667 857 q 484 816 538 857 q 391 703 431 775 q 329 538 351 631 q 307 340 307 444 m 485 58 q 603 99 550 58 q 695 213 657 140 q 754 378 733 285 q 775 578 775 472 q 774 626 775 604 l 324 206 q 382 98 342 138 q 485 58 422 58 m 614 986 l 742 1197 l 917 1197 q 903 1153 913 1176 q 857 1110 893 1131 l 649 986 l 614 986 z "},"Ơ":{"ha":1082,"x_min":56,"x_max":1118,"o":"m 471 -14 q 244 35 336 -14 q 103 173 151 85 q 56 376 56 261 q 98 594 56 493 q 216 770 140 694 q 392 888 292 846 q 610 931 493 931 q 814 892 725 931 q 844 890 826 890 q 933 913 906 890 q 968 974 961 935 l 978 1038 l 988 1046 l 1085 1046 q 1110 1041 1103 1046 q 1118 1019 1118 1036 q 1062 897 1118 949 q 893 844 1006 844 l 893 844 q 992 715 958 793 q 1026 542 1026 638 q 986 324 1026 425 q 872 147 946 224 q 696 28 797 71 q 471 -14 594 -14 m 485 58 q 603 99 550 58 q 695 213 657 140 q 754 378 733 285 q 775 578 775 472 q 758 724 775 661 q 703 822 742 786 q 599 857 664 857 q 484 816 538 857 q 391 703 431 775 q 329 538 351 631 q 307 340 307 444 q 351 137 307 215 q 485 58 394 58 z "},"Ớ":{"ha":1082,"x_min":56,"x_max":1118,"o":"m 471 -14 q 244 35 336 -14 q 103 173 151 85 q 56 376 56 261 q 98 594 56 493 q 216 770 140 694 q 392 888 292 846 q 610 931 493 931 q 814 892 725 931 q 844 890 826 890 q 933 913 906 890 q 968 974 961 935 l 978 1038 l 988 1046 l 1085 1046 q 1110 1041 1103 1046 q 1118 1019 1118 1036 q 1062 897 1118 949 q 893 844 1006 844 l 893 844 q 992 715 958 793 q 1026 542 1026 638 q 986 324 1026 425 q 872 147 946 224 q 696 28 797 71 q 471 -14 594 -14 m 485 58 q 603 99 550 58 q 695 213 657 140 q 754 378 733 285 q 775 578 775 472 q 758 724 775 661 q 703 822 742 786 q 599 857 664 857 q 484 816 538 857 q 391 703 431 775 q 329 538 351 631 q 307 340 307 444 q 351 137 307 215 q 485 58 394 58 m 614 986 l 742 1197 l 917 1197 q 903 1153 913 1176 q 857 1110 893 1131 l 649 986 l 614 986 z "},"Ợ":{"ha":1082,"x_min":56,"x_max":1118,"o":"m 471 -14 q 244 35 336 -14 q 103 173 151 85 q 56 376 56 261 q 98 594 56 493 q 216 770 140 694 q 392 888 292 846 q 610 931 493 931 q 814 892 725 931 q 844 890 826 890 q 933 913 906 890 q 968 974 961 935 l 978 1038 l 988 1046 l 1085 1046 q 1110 1041 1103 1046 q 1118 1019 1118 1036 q 1062 897 1118 949 q 893 844 1006 844 l 893 844 q 992 715 958 793 q 1026 542 1026 638 q 986 324 1026 425 q 872 147 946 224 q 696 28 797 71 q 471 -14 594 -14 m 485 58 q 603 99 550 58 q 695 213 657 140 q 754 378 733 285 q 775 578 775 472 q 758 724 775 661 q 703 822 742 786 q 599 857 664 857 q 484 816 538 857 q 391 703 431 775 q 329 538 351 631 q 307 340 307 444 q 351 137 307 215 q 485 58 394 58 z "},"Ờ":{"ha":1082,"x_min":56,"x_max":1118,"o":"m 471 -14 q 244 35 336 -14 q 103 173 151 85 q 56 376 56 261 q 98 594 56 493 q 216 770 140 694 q 392 888 292 846 q 610 931 493 931 q 814 892 725 931 q 844 890 826 890 q 933 913 906 890 q 968 974 961 935 l 978 1038 l 988 1046 l 1085 1046 q 1110 1041 1103 1046 q 1118 1019 1118 1036 q 1062 897 1118 949 q 893 844 1006 844 l 893 844 q 992 715 958 793 q 1026 542 1026 638 q 986 324 1026 425 q 872 147 946 224 q 696 28 797 71 q 471 -14 594 -14 m 485 58 q 603 99 550 58 q 695 213 657 140 q 754 378 733 285 q 775 578 775 472 q 758 724 775 661 q 703 822 742 786 q 599 857 664 857 q 484 816 538 857 q 391 703 431 775 q 329 538 351 631 q 307 340 307 444 q 351 137 307 215 q 485 58 394 58 m 613 986 l 401 1110 q 372 1146 375 1125 q 372 1197 368 1167 l 529 1197 l 647 986 l 613 986 z "},"Ở":{"ha":1082,"x_min":56,"x_max":1118,"o":"m 471 -14 q 244 35 336 -14 q 103 173 151 85 q 56 376 56 261 q 98 594 56 493 q 216 770 140 694 q 392 888 292 846 q 610 931 493 931 q 814 892 725 931 q 844 890 826 890 q 933 913 906 890 q 968 974 961 935 l 978 1038 l 988 1046 l 1085 1046 q 1110 1041 1103 1046 q 1118 1019 1118 1036 q 1062 897 1118 949 q 893 844 1006 844 l 893 844 q 992 715 958 793 q 1026 542 1026 638 q 986 324 1026 425 q 872 147 946 224 q 696 28 797 71 q 471 -14 594 -14 m 485 58 q 603 99 550 58 q 695 213 657 140 q 754 378 733 285 q 775 578 775 472 q 758 724 775 661 q 703 822 742 786 q 599 857 664 857 q 484 816 538 857 q 391 703 431 775 q 329 538 351 631 q 307 340 307 444 q 351 137 307 215 q 485 58 394 58 m 579 971 l 569 985 l 569 986 q 636 1013 617 997 q 656 1051 656 1028 q 638 1088 656 1072 q 578 1113 619 1104 l 614 1211 q 714 1169 683 1201 q 744 1100 744 1138 q 701 1013 744 1043 q 579 971 657 983 z "},"Ỡ":{"ha":1082,"x_min":56,"x_max":1118,"o":"m 471 -14 q 244 35 336 -14 q 103 173 151 85 q 56 376 56 261 q 98 594 56 493 q 216 770 140 694 q 392 888 292 846 q 610 931 493 931 q 814 892 725 931 q 844 890 826 890 q 933 913 906 890 q 968 974 961 935 l 978 1038 l 988 1046 l 1085 1046 q 1110 1041 1103 1046 q 1118 1019 1118 1036 q 1062 897 1118 949 q 893 844 1006 844 l 893 844 q 992 715 958 793 q 1026 542 1026 638 q 986 324 1026 425 q 872 147 946 224 q 696 28 797 71 q 471 -14 594 -14 m 485 58 q 603 99 550 58 q 695 213 657 140 q 754 378 733 285 q 775 578 775 472 q 758 724 775 661 q 703 822 742 786 q 599 857 664 857 q 484 816 538 857 q 391 703 431 775 q 329 538 351 631 q 307 340 307 444 q 351 137 307 215 q 485 58 394 58 m 408 999 q 470 1120 443 1081 q 524 1172 497 1160 q 581 1185 550 1185 q 651 1166 619 1185 q 710 1128 682 1147 q 769 1108 739 1108 q 811 1121 792 1108 q 857 1185 831 1133 l 892 1185 q 829 1063 856 1103 q 776 1011 803 1024 q 719 999 750 999 q 649 1017 681 999 q 590 1056 618 1036 q 531 1075 561 1075 q 489 1063 508 1075 q 443 999 469 1050 l 408 999 z "},"Œ":{"ha":1403,"x_min":56,"x_max":1382,"o":"m 531 0 q 272 49 378 0 q 110 188 165 99 q 56 396 56 276 q 98 603 56 508 q 219 768 140 697 q 409 878 299 839 q 656 917 519 917 l 1382 917 l 1340 675 l 1319 675 l 1246 840 l 990 840 l 933 511 l 1100 511 l 1208 633 l 1231 633 l 1174 315 l 1151 315 l 1086 435 l 919 435 l 857 76 l 1135 76 l 1289 304 l 1311 304 l 1257 0 l 531 0 m 568 74 l 618 74 l 754 850 l 665 850 q 467 790 549 850 q 343 625 386 731 q 300 379 300 519 q 372 151 300 228 q 568 74 444 74 z "},"Ŕ":{"ha":1007,"x_min":-42,"x_max":914,"o":"m -42 0 l -39 22 l 82 81 l 215 836 l 114 894 l 118 917 l 533 917 q 776 864 690 917 q 863 710 863 811 q 806 572 863 629 q 653 478 750 514 l 828 82 l 914 22 l 911 0 l 607 0 l 439 428 l 381 428 l 319 81 l 421 22 l 417 0 l -42 0 m 482 840 l 451 840 l 390 490 l 436 490 q 575 550 525 490 q 625 693 625 610 q 482 840 625 840 m 494 986 l 622 1197 l 797 1197 q 783 1153 793 1176 q 738 1110 774 1131 l 529 986 l 494 986 z "},"Ř":{"ha":1007,"x_min":-42,"x_max":914,"o":"m -42 0 l -39 22 l 82 81 l 215 836 l 114 894 l 118 917 l 533 917 q 776 864 690 917 q 863 710 863 811 q 806 572 863 629 q 653 478 750 514 l 828 82 l 914 22 l 911 0 l 607 0 l 439 428 l 381 428 l 319 81 l 421 22 l 417 0 l -42 0 m 482 840 l 451 840 l 390 490 l 436 490 q 575 550 525 490 q 625 693 625 610 q 482 840 625 840 m 472 986 l 329 1197 l 364 1197 l 522 1114 l 731 1197 l 765 1197 l 547 986 l 472 986 z "},"Ŗ":{"ha":1007,"x_min":-42,"x_max":914,"o":"m -42 0 l -39 22 l 82 81 l 215 836 l 114 894 l 118 917 l 533 917 q 776 864 690 917 q 863 710 863 811 q 806 572 863 629 q 653 478 750 514 l 828 82 l 914 22 l 911 0 l 607 0 l 439 428 l 381 428 l 319 81 l 421 22 l 417 0 l -42 0 m 482 840 l 451 840 l 390 490 l 436 490 q 575 550 525 490 q 625 693 625 610 q 482 840 625 840 m 313 -332 q 283 -331 299 -332 q 257 -326 267 -329 l 263 -300 q 285 -303 272 -303 q 304 -304 297 -304 q 375 -254 375 -304 q 351 -215 375 -226 q 279 -203 328 -203 l 293 -132 q 308 -111 294 -119 q 354 -103 322 -103 q 457 -131 422 -103 q 492 -208 492 -158 q 440 -300 492 -268 q 313 -332 388 -332 z "},"Ȑ":{"ha":1007,"x_min":-42,"x_max":914,"o":"m -42 0 l -39 22 l 82 81 l 215 836 l 114 894 l 118 917 l 533 917 q 776 864 690 917 q 863 710 863 811 q 806 572 863 629 q 653 478 750 514 l 828 82 l 914 22 l 911 0 l 607 0 l 439 428 l 381 428 l 319 81 l 421 22 l 417 0 l -42 0 m 482 840 l 451 840 l 390 490 l 436 490 q 575 550 525 490 q 625 693 625 610 q 482 840 625 840 m 600 986 l 426 1110 q 399 1149 404 1125 q 397 1197 393 1172 l 540 1197 l 635 986 l 600 986 m 389 986 l 189 1110 q 160 1149 165 1125 q 158 1197 154 1172 l 301 1197 l 424 986 l 389 986 z "},"Ȓ":{"ha":1007,"x_min":-42,"x_max":914,"o":"m -42 0 l -39 22 l 82 81 l 215 836 l 114 894 l 118 917 l 533 917 q 776 864 690 917 q 863 710 863 811 q 806 572 863 629 q 653 478 750 514 l 828 82 l 914 22 l 911 0 l 607 0 l 439 428 l 381 428 l 319 81 l 421 22 l 417 0 l -42 0 m 482 840 l 451 840 l 390 490 l 436 490 q 575 550 525 490 q 625 693 625 610 q 482 840 625 840 m 286 986 q 390 1146 326 1094 q 547 1197 453 1197 q 695 1147 651 1197 q 747 986 739 1097 l 713 986 q 648 1063 693 1042 q 531 1085 603 1085 q 408 1065 460 1085 q 321 986 356 1044 l 286 986 z "},"Ṛ":{"ha":1007,"x_min":-42,"x_max":914,"o":"m -42 0 l -39 22 l 82 81 l 215 836 l 114 894 l 118 917 l 533 917 q 776 864 690 917 q 863 710 863 811 q 806 572 863 629 q 653 478 750 514 l 828 82 l 914 22 l 911 0 l 607 0 l 439 428 l 381 428 l 319 81 l 421 22 l 417 0 l -42 0 m 482 840 l 451 840 l 390 490 l 436 490 q 575 550 525 490 q 625 693 625 610 q 482 840 625 840 z "},"Ṟ":{"ha":1007,"x_min":-42,"x_max":914,"o":"m -42 0 l -39 22 l 82 81 l 215 836 l 114 894 l 118 917 l 533 917 q 776 864 690 917 q 863 710 863 811 q 806 572 863 629 q 653 478 750 514 l 828 82 l 914 22 l 911 0 l 607 0 l 439 428 l 381 428 l 319 81 l 421 22 l 417 0 l -42 0 m 482 840 l 451 840 l 390 490 l 436 490 q 575 550 525 490 q 625 693 625 610 q 482 840 625 840 z "},"ẞ":{"ha":1578,"x_min":42,"x_max":1529,"o":"m 313 -14 q 161 6 226 -14 q 42 61 96 26 l 67 301 l 92 301 l 176 106 q 228 75 196 90 q 307 60 260 60 q 433 98 381 60 q 486 200 486 136 q 469 269 486 242 q 409 328 451 297 q 292 406 367 358 q 207 469 239 439 q 160 538 175 500 q 144 629 144 575 q 193 781 144 713 q 325 890 242 850 q 515 931 408 931 q 642 913 582 931 q 747 864 703 894 l 725 642 l 700 642 l 617 813 q 572 843 597 831 q 508 856 547 856 q 404 817 446 856 q 363 724 363 778 q 374 666 363 692 q 417 613 386 640 q 507 549 447 586 q 614 475 571 508 q 678 400 657 442 q 700 299 700 358 q 651 144 700 215 q 515 29 601 72 q 313 -14 428 -14 m 1094 -14 q 943 6 1008 -14 q 824 61 878 26 l 849 301 l 874 301 l 958 106 q 1010 75 978 90 q 1089 60 1042 60 q 1215 98 1163 60 q 1268 200 1268 136 q 1251 269 1268 242 q 1191 328 1233 297 q 1074 406 1149 358 q 989 469 1021 439 q 942 538 957 500 q 926 629 926 575 q 975 781 926 713 q 1107 890 1024 850 q 1297 931 1190 931 q 1424 913 1364 931 q 1529 864 1485 894 l 1507 642 l 1482 642 l 1399 813 q 1354 843 1379 831 q 1290 856 1329 856 q 1186 817 1228 856 q 1144 724 1144 778 q 1156 666 1144 692 q 1199 613 1168 640 q 1289 549 1229 586 q 1396 475 1353 508 q 1460 400 1439 442 q 1482 299 1482 358 q 1433 144 1482 215 q 1297 29 1383 72 q 1094 -14 1210 -14 z "},"Ś":{"ha":796,"x_min":42,"x_max":813,"o":"m 313 -14 q 161 6 226 -14 q 42 61 96 26 l 67 301 l 92 301 l 176 106 q 228 75 196 90 q 307 60 260 60 q 433 98 381 60 q 486 200 486 136 q 469 269 486 242 q 409 328 451 297 q 292 406 367 358 q 207 469 239 439 q 160 538 175 500 q 144 629 144 575 q 193 781 144 713 q 325 890 242 850 q 515 931 408 931 q 642 913 582 931 q 747 864 703 894 l 725 642 l 700 642 l 617 813 q 572 843 597 831 q 508 856 547 856 q 404 817 446 856 q 363 724 363 778 q 374 666 363 692 q 417 613 386 640 q 507 549 447 586 q 614 475 571 508 q 678 400 657 442 q 700 299 700 358 q 651 144 700 215 q 515 29 601 72 q 313 -14 428 -14 m 510 986 l 638 1197 l 813 1197 q 799 1153 808 1176 q 753 1110 789 1131 l 544 986 l 510 986 z "},"Ŝ":{"ha":796,"x_min":42,"x_max":747,"o":"m 313 -14 q 161 6 226 -14 q 42 61 96 26 l 67 301 l 92 301 l 176 106 q 228 75 196 90 q 307 60 260 60 q 433 98 381 60 q 486 200 486 136 q 469 269 486 242 q 409 328 451 297 q 292 406 367 358 q 207 469 239 439 q 160 538 175 500 q 144 629 144 575 q 193 781 144 713 q 325 890 242 850 q 515 931 408 931 q 642 913 582 931 q 747 864 703 894 l 725 642 l 700 642 l 617 813 q 572 843 597 831 q 508 856 547 856 q 404 817 446 856 q 363 724 363 778 q 374 666 363 692 q 417 613 386 640 q 507 549 447 586 q 614 475 571 508 q 678 400 657 442 q 700 299 700 358 q 651 144 700 215 q 515 29 601 72 q 313 -14 428 -14 m 307 986 l 526 1197 l 601 1197 l 743 986 l 708 986 l 543 1069 l 342 986 l 307 986 z "},"Š":{"ha":796,"x_min":42,"x_max":781,"o":"m 313 -14 q 161 6 226 -14 q 42 61 96 26 l 67 301 l 92 301 l 176 106 q 228 75 196 90 q 307 60 260 60 q 433 98 381 60 q 486 200 486 136 q 469 269 486 242 q 409 328 451 297 q 292 406 367 358 q 207 469 239 439 q 160 538 175 500 q 144 629 144 575 q 193 781 144 713 q 325 890 242 850 q 515 931 408 931 q 642 913 582 931 q 747 864 703 894 l 725 642 l 700 642 l 617 813 q 572 843 597 831 q 508 856 547 856 q 404 817 446 856 q 363 724 363 778 q 374 666 363 692 q 417 613 386 640 q 507 549 447 586 q 614 475 571 508 q 678 400 657 442 q 700 299 700 358 q 651 144 700 215 q 515 29 601 72 q 313 -14 428 -14 m 488 986 l 344 1197 l 379 1197 l 538 1114 l 746 1197 l 781 1197 l 563 986 l 488 986 z "},"Ş":{"ha":796,"x_min":42,"x_max":747,"o":"m 281 -333 q 222 -326 246 -333 q 179 -307 197 -318 l 185 -276 l 190 -276 q 222 -286 203 -283 q 258 -289 242 -289 q 315 -274 294 -289 q 336 -232 336 -258 q 310 -185 336 -207 q 215 -149 283 -162 l 294 -14 q 154 9 215 -11 q 42 61 93 29 l 67 301 l 92 301 l 176 106 q 228 75 196 90 q 307 60 260 60 q 433 98 381 60 q 486 200 486 136 q 469 267 486 240 q 409 324 451 294 q 292 401 367 354 q 207 465 239 435 q 160 534 175 496 q 144 629 144 572 q 193 781 144 713 q 325 890 242 850 q 515 931 408 931 q 642 913 582 931 q 747 864 703 894 l 725 642 l 700 642 l 617 813 q 572 843 597 831 q 508 856 547 856 q 404 817 446 856 q 363 724 363 778 q 394 640 363 676 q 507 553 425 604 q 615 478 572 513 q 678 401 657 443 q 700 299 700 360 q 655 151 700 219 q 530 38 610 82 q 344 -12 450 -7 l 318 -60 q 419 -111 389 -76 q 449 -190 449 -146 q 401 -293 449 -253 q 281 -333 354 -333 z "},"Ș":{"ha":796,"x_min":42,"x_max":747,"o":"m 313 -14 q 161 6 226 -14 q 42 61 96 26 l 67 301 l 92 301 l 176 106 q 228 75 196 90 q 307 60 260 60 q 433 98 381 60 q 486 200 486 136 q 469 269 486 242 q 409 328 451 297 q 292 406 367 358 q 207 469 239 439 q 160 538 175 500 q 144 629 144 575 q 193 781 144 713 q 325 890 242 850 q 515 931 408 931 q 642 913 582 931 q 747 864 703 894 l 725 642 l 700 642 l 617 813 q 572 843 597 831 q 508 856 547 856 q 404 817 446 856 q 363 724 363 778 q 374 666 363 692 q 417 613 386 640 q 507 549 447 586 q 614 475 571 508 q 678 400 657 442 q 700 299 700 358 q 651 144 700 215 q 515 29 601 72 q 313 -14 428 -14 z "},"Ṡ":{"ha":796,"x_min":42,"x_max":747,"o":"m 313 -14 q 161 6 226 -14 q 42 61 96 26 l 67 301 l 92 301 l 176 106 q 228 75 196 90 q 307 60 260 60 q 433 98 381 60 q 486 200 486 136 q 469 269 486 242 q 409 328 451 297 q 292 406 367 358 q 207 469 239 439 q 160 538 175 500 q 144 629 144 575 q 193 781 144 713 q 325 890 242 850 q 515 931 408 931 q 642 913 582 931 q 747 864 703 894 l 725 642 l 700 642 l 617 813 q 572 843 597 831 q 508 856 547 856 q 404 817 446 856 q 363 724 363 778 q 374 666 363 692 q 417 613 386 640 q 507 549 447 586 q 614 475 571 508 q 678 400 657 442 q 700 299 700 358 q 651 144 700 215 q 515 29 601 72 q 313 -14 428 -14 m 544 985 q 468 1014 499 985 q 438 1090 438 1043 q 468 1168 438 1138 q 544 1199 499 1199 q 622 1168 592 1199 q 651 1090 651 1138 q 622 1014 651 1043 q 544 985 592 985 z "},"Ṣ":{"ha":796,"x_min":42,"x_max":747,"o":"m 313 -14 q 161 6 226 -14 q 42 61 96 26 l 67 301 l 92 301 l 176 106 q 228 75 196 90 q 307 60 260 60 q 433 98 381 60 q 486 200 486 136 q 469 269 486 242 q 409 328 451 297 q 292 406 367 358 q 207 469 239 439 q 160 538 175 500 q 144 629 144 575 q 193 781 144 713 q 325 890 242 850 q 515 931 408 931 q 642 913 582 931 q 747 864 703 894 l 725 642 l 700 642 l 617 813 q 572 843 597 831 q 508 856 547 856 q 404 817 446 856 q 363 724 363 778 q 374 666 363 692 q 417 613 386 640 q 507 549 447 586 q 614 475 571 508 q 678 400 657 442 q 700 299 700 358 q 651 144 700 215 q 515 29 601 72 q 313 -14 428 -14 z "},"Ṥ":{"ha":796,"x_min":42,"x_max":814,"o":"m 313 -14 q 161 6 226 -14 q 42 61 96 26 l 67 301 l 92 301 l 176 106 q 228 75 196 90 q 307 60 260 60 q 433 98 381 60 q 486 200 486 136 q 469 269 486 242 q 409 328 451 297 q 292 406 367 358 q 207 469 239 439 q 160 538 175 500 q 144 629 144 575 q 193 781 144 713 q 325 890 242 850 q 515 931 408 931 q 642 913 582 931 q 747 864 703 894 l 725 642 l 700 642 l 617 813 q 572 843 597 831 q 508 856 547 856 q 404 817 446 856 q 363 724 363 778 q 374 666 363 692 q 417 613 386 640 q 507 549 447 586 q 614 475 571 508 q 678 400 657 442 q 700 299 700 358 q 651 144 700 215 q 515 29 601 72 q 313 -14 428 -14 z "},"Ṧ":{"ha":796,"x_min":42,"x_max":781,"o":"m 313 -14 q 161 6 226 -14 q 42 61 96 26 l 67 301 l 92 301 l 176 106 q 228 75 196 90 q 307 60 260 60 q 433 98 381 60 q 486 200 486 136 q 469 269 486 242 q 409 328 451 297 q 292 406 367 358 q 207 469 239 439 q 160 538 175 500 q 144 629 144 575 q 193 781 144 713 q 325 890 242 850 q 515 931 408 931 q 642 913 582 931 q 747 864 703 894 l 725 642 l 700 642 l 617 813 q 572 843 597 831 q 508 856 547 856 q 404 817 446 856 q 363 724 363 778 q 374 666 363 692 q 417 613 386 640 q 507 549 447 586 q 614 475 571 508 q 678 400 657 442 q 700 299 700 358 q 651 144 700 215 q 515 29 601 72 q 313 -14 428 -14 z "},"Ṩ":{"ha":796,"x_min":42,"x_max":747,"o":"m 313 -14 q 161 6 226 -14 q 42 61 96 26 l 67 301 l 92 301 l 176 106 q 228 75 196 90 q 307 60 260 60 q 433 98 381 60 q 486 200 486 136 q 469 269 486 242 q 409 328 451 297 q 292 406 367 358 q 207 469 239 439 q 160 538 175 500 q 144 629 144 575 q 193 781 144 713 q 325 890 242 850 q 515 931 408 931 q 642 913 582 931 q 747 864 703 894 l 725 642 l 700 642 l 617 813 q 572 843 597 831 q 508 856 547 856 q 404 817 446 856 q 363 724 363 778 q 374 666 363 692 q 417 613 386 640 q 507 549 447 586 q 614 475 571 508 q 678 400 657 442 q 700 299 700 358 q 651 144 700 215 q 515 29 601 72 q 313 -14 428 -14 m 544 985 q 468 1014 499 985 q 438 1090 438 1043 q 468 1168 438 1138 q 544 1199 499 1199 q 622 1168 592 1199 q 651 1090 651 1138 q 622 1014 651 1043 q 544 985 592 985 z "},"Ť":{"ha":883,"x_min":63,"x_max":939,"o":"m 110 0 l 114 22 l 260 81 l 396 840 l 233 840 l 85 596 l 63 596 l 117 917 l 939 917 l 885 596 l 863 596 l 796 840 l 633 840 l 497 81 l 626 22 l 622 0 l 110 0 m 497 986 l 354 1197 l 389 1197 l 547 1114 l 756 1197 l 790 1197 l 572 986 l 497 986 z "},"Ț":{"ha":883,"x_min":63,"x_max":939,"o":"m 110 0 l 114 22 l 260 81 l 396 840 l 233 840 l 85 596 l 63 596 l 117 917 l 939 917 l 885 596 l 863 596 l 796 840 l 633 840 l 497 81 l 626 22 l 622 0 l 110 0 z "},"Ŧ":{"ha":883,"x_min":63,"x_max":939,"o":"m 176 438 l 189 510 l 336 510 l 396 840 l 233 840 l 85 596 l 63 596 l 117 917 l 939 917 l 885 596 l 863 596 l 796 840 l 633 840 l 574 510 l 722 510 l 710 438 l 561 438 l 497 81 l 626 22 l 622 0 l 110 0 l 114 22 l 260 81 l 324 438 l 176 438 z "},"Ţ":{"ha":883,"x_min":63,"x_max":939,"o":"m 110 0 l 114 22 l 260 81 l 396 840 l 233 840 l 85 596 l 63 596 l 117 917 l 939 917 l 885 596 l 863 596 l 796 840 l 633 840 l 497 81 l 626 22 l 622 0 l 383 0 l 350 -60 q 451 -111 421 -76 q 481 -190 481 -146 q 433 -293 481 -253 q 313 -333 386 -333 q 253 -326 278 -333 q 211 -307 229 -318 l 217 -276 l 222 -276 q 254 -286 235 -283 q 290 -289 274 -289 q 347 -274 325 -289 q 368 -232 368 -258 q 342 -185 368 -207 q 247 -149 317 -162 l 335 0 l 110 0 z "},"Ṭ":{"ha":883,"x_min":63,"x_max":939,"o":"m 110 0 l 114 22 l 260 81 l 396 840 l 233 840 l 85 596 l 63 596 l 117 917 l 939 917 l 885 596 l 863 596 l 796 840 l 633 840 l 497 81 l 626 22 l 622 0 l 110 0 z "},"Ṯ":{"ha":883,"x_min":63,"x_max":939,"o":"m 110 0 l 114 22 l 260 81 l 396 840 l 233 840 l 85 596 l 63 596 l 117 917 l 939 917 l 885 596 l 863 596 l 796 840 l 633 840 l 497 81 l 626 22 l 622 0 l 110 0 z "},"Ù":{"ha":1038,"x_min":108,"x_max":1108,"o":"m 485 -14 q 296 15 376 -14 q 171 112 215 44 q 126 293 126 179 q 139 419 126 349 l 211 836 l 108 894 l 113 917 l 575 917 l 571 894 l 449 836 l 374 403 q 365 310 365 350 q 391 190 365 233 q 461 126 417 146 q 561 107 506 107 q 668 131 617 107 q 758 210 719 156 q 813 354 797 264 l 896 839 l 793 894 l 797 917 l 1108 917 l 1104 894 l 982 838 l 910 419 q 822 161 881 256 q 679 26 764 67 q 485 -14 594 -14 m 675 986 l 464 1110 q 434 1146 438 1125 q 435 1197 431 1167 l 592 1197 l 710 986 l 675 986 z "},"Ú":{"ha":1038,"x_min":108,"x_max":1108,"o":"m 485 -14 q 296 15 376 -14 q 171 112 215 44 q 126 293 126 179 q 139 419 126 349 l 211 836 l 108 894 l 113 917 l 575 917 l 571 894 l 449 836 l 374 403 q 365 310 365 350 q 391 190 365 233 q 461 126 417 146 q 561 107 506 107 q 668 131 617 107 q 758 210 719 156 q 813 354 797 264 l 896 839 l 793 894 l 797 917 l 1108 917 l 1104 894 l 982 838 l 910 419 q 822 161 881 256 q 679 26 764 67 q 485 -14 594 -14 m 676 986 l 804 1197 l 979 1197 q 965 1153 975 1176 q 919 1110 956 1131 l 711 986 l 676 986 z "},"Û":{"ha":1038,"x_min":108,"x_max":1108,"o":"m 485 -14 q 296 15 376 -14 q 171 112 215 44 q 126 293 126 179 q 139 419 126 349 l 211 836 l 108 894 l 113 917 l 575 917 l 571 894 l 449 836 l 374 403 q 365 310 365 350 q 391 190 365 233 q 461 126 417 146 q 561 107 506 107 q 668 131 617 107 q 758 210 719 156 q 813 354 797 264 l 896 839 l 793 894 l 797 917 l 1108 917 l 1104 894 l 982 838 l 910 419 q 822 161 881 256 q 679 26 764 67 q 485 -14 594 -14 m 474 986 l 693 1197 l 768 1197 l 910 986 l 875 986 l 710 1069 l 508 986 l 474 986 z "},"Ũ":{"ha":1038,"x_min":108,"x_max":1108,"o":"m 485 -14 q 296 15 376 -14 q 171 112 215 44 q 126 293 126 179 q 139 419 126 349 l 211 836 l 108 894 l 113 917 l 575 917 l 571 894 l 449 836 l 374 403 q 365 310 365 350 q 391 190 365 233 q 461 126 417 146 q 561 107 506 107 q 668 131 617 107 q 758 210 719 156 q 813 354 797 264 l 896 839 l 793 894 l 797 917 l 1108 917 l 1104 894 l 982 838 l 910 419 q 822 161 881 256 q 679 26 764 67 q 485 -14 594 -14 m 471 999 q 533 1120 506 1081 q 586 1172 560 1160 q 643 1185 613 1185 q 713 1166 682 1185 q 773 1128 744 1147 q 832 1108 801 1108 q 874 1121 854 1108 q 919 1185 893 1133 l 954 1185 q 892 1063 918 1103 q 839 1011 865 1024 q 782 999 813 999 q 712 1017 743 999 q 652 1056 681 1036 q 593 1075 624 1075 q 551 1063 571 1075 q 506 999 532 1050 l 471 999 z "},"Ü":{"ha":1038,"x_min":108,"x_max":1108,"o":"m 485 -14 q 296 15 376 -14 q 171 112 215 44 q 126 293 126 179 q 139 419 126 349 l 211 836 l 108 894 l 113 917 l 575 917 l 571 894 l 449 836 l 374 403 q 365 310 365 350 q 391 190 365 233 q 461 126 417 146 q 561 107 506 107 q 668 131 617 107 q 758 210 719 156 q 813 354 797 264 l 896 839 l 793 894 l 797 917 l 1108 917 l 1104 894 l 982 838 l 910 419 q 822 161 881 256 q 679 26 764 67 q 485 -14 594 -14 m 574 1011 q 515 1035 538 1011 q 493 1092 493 1060 q 515 1148 493 1124 q 574 1172 538 1172 q 632 1148 610 1172 q 654 1092 654 1124 q 632 1035 654 1060 q 574 1011 610 1011 m 850 1011 q 792 1035 815 1011 q 769 1092 769 1060 q 792 1148 769 1124 q 850 1172 815 1172 q 908 1148 885 1172 q 931 1092 931 1124 q 908 1035 931 1060 q 850 1011 885 1011 z "},"Ū":{"ha":1038,"x_min":108,"x_max":1108,"o":"m 485 -14 q 296 15 376 -14 q 171 112 215 44 q 126 293 126 179 q 139 419 126 349 l 211 836 l 108 894 l 113 917 l 575 917 l 571 894 l 449 836 l 374 403 q 365 310 365 350 q 391 190 365 233 q 461 126 417 146 q 561 107 506 107 q 668 131 617 107 q 758 210 719 156 q 813 354 797 264 l 896 839 l 793 894 l 797 917 l 1108 917 l 1104 894 l 982 838 l 910 419 q 822 161 881 256 q 679 26 764 67 q 485 -14 594 -14 m 492 1044 l 508 1136 l 933 1136 l 917 1044 l 492 1044 z "},"Ŭ":{"ha":1038,"x_min":108,"x_max":1108,"o":"m 485 -14 q 296 15 376 -14 q 171 112 215 44 q 126 293 126 179 q 139 419 126 349 l 211 836 l 108 894 l 113 917 l 575 917 l 571 894 l 449 836 l 374 403 q 365 310 365 350 q 391 190 365 233 q 461 126 417 146 q 561 107 506 107 q 668 131 617 107 q 758 210 719 156 q 813 354 797 264 l 896 839 l 793 894 l 797 917 l 1108 917 l 1104 894 l 982 838 l 910 419 q 822 161 881 256 q 679 26 764 67 q 485 -14 594 -14 m 694 986 q 547 1036 590 986 q 494 1197 503 1086 l 529 1197 q 594 1120 549 1142 q 711 1099 639 1099 q 834 1119 782 1099 q 921 1197 886 1139 l 956 1197 q 852 1038 915 1089 q 694 986 789 986 z "},"Ů":{"ha":1038,"x_min":108,"x_max":1108,"o":"m 485 -14 q 296 15 376 -14 q 171 112 215 44 q 126 293 126 179 q 139 419 126 349 l 211 836 l 108 894 l 113 917 l 575 917 l 571 894 l 449 836 l 374 403 q 365 310 365 350 q 391 190 365 233 q 461 126 417 146 q 561 107 506 107 q 668 131 617 107 q 758 210 719 156 q 813 354 797 264 l 896 839 l 793 894 l 797 917 l 1108 917 l 1104 894 l 982 838 l 910 419 q 822 161 881 256 q 679 26 764 67 q 485 -14 594 -14 m 701 986 q 623 1015 647 986 q 599 1090 599 1044 q 635 1185 599 1146 q 731 1225 672 1225 q 809 1196 783 1225 q 835 1121 835 1167 q 798 1026 835 1065 q 701 986 761 986 m 707 1019 q 746 1047 731 1019 q 761 1124 761 1075 q 726 1192 761 1192 q 688 1164 703 1192 q 672 1088 672 1136 q 707 1019 672 1019 z "},"Ű":{"ha":1038,"x_min":108,"x_max":1108,"o":"m 485 -14 q 296 15 376 -14 q 171 112 215 44 q 126 293 126 179 q 139 419 126 349 l 211 836 l 108 894 l 113 917 l 575 917 l 571 894 l 449 836 l 374 403 q 365 310 365 350 q 391 190 365 233 q 461 126 417 146 q 561 107 506 107 q 668 131 617 107 q 758 210 719 156 q 813 354 797 264 l 896 839 l 793 894 l 797 917 l 1108 917 l 1104 894 l 982 838 l 910 419 q 822 161 881 256 q 679 26 764 67 q 485 -14 594 -14 m 571 986 l 665 1197 l 808 1197 q 807 1149 813 1172 q 779 1110 801 1125 l 606 986 l 571 986 m 782 986 l 904 1197 l 1047 1197 q 1046 1149 1051 1172 q 1017 1110 1040 1125 l 817 986 l 782 986 z "},"Ų":{"ha":1038,"x_min":122,"x_max":1122,"o":"m 582 -262 q 528 -314 561 -294 q 450 -333 496 -333 q 357 -303 390 -333 q 324 -222 324 -274 q 360 -111 324 -164 q 446 -12 396 -58 q 223 67 306 -3 q 140 293 140 136 q 153 419 140 349 l 225 836 l 122 894 l 126 917 l 589 917 l 585 894 l 463 836 l 388 403 q 379 310 379 350 q 405 190 379 233 q 475 126 431 146 q 575 107 519 107 q 682 131 631 107 q 772 210 733 156 q 826 354 811 264 l 910 839 l 807 894 l 811 917 l 1122 917 l 1118 894 l 996 838 l 924 419 q 837 161 894 256 q 694 26 779 67 q 503 -14 610 -14 q 467 -96 481 -53 q 453 -181 453 -139 q 526 -254 453 -254 q 558 -248 542 -254 q 585 -232 575 -242 l 590 -232 l 582 -262 z "},"Ụ":{"ha":1038,"x_min":108,"x_max":1108,"o":"m 485 -14 q 296 15 376 -14 q 171 112 215 44 q 126 293 126 179 q 139 419 126 349 l 211 836 l 108 894 l 113 917 l 575 917 l 571 894 l 449 836 l 374 403 q 365 310 365 350 q 391 190 365 233 q 461 126 417 146 q 561 107 506 107 q 668 131 617 107 q 758 210 719 156 q 813 354 797 264 l 896 839 l 793 894 l 797 917 l 1108 917 l 1104 894 l 982 838 l 910 419 q 822 161 881 256 q 679 26 764 67 q 485 -14 594 -14 z "},"Ȕ":{"ha":1038,"x_min":108,"x_max":1108,"o":"m 485 -14 q 296 15 376 -14 q 171 112 215 44 q 126 293 126 179 q 139 419 126 349 l 211 836 l 108 894 l 113 917 l 575 917 l 571 894 l 449 836 l 374 403 q 365 310 365 350 q 391 190 365 233 q 461 126 417 146 q 561 107 506 107 q 668 131 617 107 q 758 210 719 156 q 813 354 797 264 l 896 839 l 793 894 l 797 917 l 1108 917 l 1104 894 l 982 838 l 910 419 q 822 161 881 256 q 679 26 764 67 q 485 -14 594 -14 m 782 986 l 608 1110 q 581 1149 586 1125 q 579 1197 575 1172 l 722 1197 l 817 986 l 782 986 m 571 986 l 371 1110 q 342 1149 347 1125 q 340 1197 336 1172 l 483 1197 l 606 986 l 571 986 z "},"Ȗ":{"ha":1038,"x_min":108,"x_max":1108,"o":"m 485 -14 q 296 15 376 -14 q 171 112 215 44 q 126 293 126 179 q 139 419 126 349 l 211 836 l 108 894 l 113 917 l 575 917 l 571 894 l 449 836 l 374 403 q 365 310 365 350 q 391 190 365 233 q 461 126 417 146 q 561 107 506 107 q 668 131 617 107 q 758 210 719 156 q 813 354 797 264 l 896 839 l 793 894 l 797 917 l 1108 917 l 1104 894 l 982 838 l 910 419 q 822 161 881 256 q 679 26 764 67 q 485 -14 594 -14 m 468 986 q 572 1146 508 1094 q 729 1197 635 1197 q 877 1147 833 1197 q 929 986 921 1097 l 894 986 q 830 1063 875 1042 q 713 1085 785 1085 q 590 1065 642 1085 q 503 986 538 1044 l 468 986 z "},"Ủ":{"ha":1038,"x_min":108,"x_max":1108,"o":"m 485 -14 q 296 15 376 -14 q 171 112 215 44 q 126 293 126 179 q 139 419 126 349 l 211 836 l 108 894 l 113 917 l 575 917 l 571 894 l 449 836 l 374 403 q 365 310 365 350 q 391 190 365 233 q 461 126 417 146 q 561 107 506 107 q 668 131 617 107 q 758 210 719 156 q 813 354 797 264 l 896 839 l 793 894 l 797 917 l 1108 917 l 1104 894 l 982 838 l 910 419 q 822 161 881 256 q 679 26 764 67 q 485 -14 594 -14 m 642 971 l 632 985 l 632 986 q 699 1013 679 997 q 718 1051 718 1028 q 700 1088 718 1072 q 640 1113 682 1104 l 676 1211 q 776 1169 746 1201 q 807 1100 807 1138 q 763 1013 807 1043 q 642 971 719 983 z "},"Ṹ":{"ha":1038,"x_min":108,"x_max":1108,"o":"m 485 -14 q 296 15 376 -14 q 171 112 215 44 q 126 293 126 179 q 139 419 126 349 l 211 836 l 108 894 l 113 917 l 575 917 l 571 894 l 449 836 l 374 403 q 365 310 365 350 q 391 190 365 233 q 461 126 417 146 q 561 107 506 107 q 668 131 617 107 q 758 210 719 156 q 813 354 797 264 l 896 839 l 793 894 l 797 917 l 1108 917 l 1104 894 l 982 838 l 910 419 q 822 161 881 256 q 679 26 764 67 q 485 -14 594 -14 z "},"Ṻ":{"ha":1038,"x_min":108,"x_max":1108,"o":"m 485 -14 q 296 15 376 -14 q 171 112 215 44 q 126 293 126 179 q 139 419 126 349 l 211 836 l 108 894 l 113 917 l 575 917 l 571 894 l 449 836 l 374 403 q 365 310 365 350 q 391 190 365 233 q 461 126 417 146 q 561 107 506 107 q 668 131 617 107 q 758 210 719 156 q 813 354 797 264 l 896 839 l 793 894 l 797 917 l 1108 917 l 1104 894 l 982 838 l 910 419 q 822 161 881 256 q 679 26 764 67 q 485 -14 594 -14 z "},"Ư":{"ha":1038,"x_min":108,"x_max":1328,"o":"m 485 -14 q 296 15 376 -14 q 171 112 215 44 q 126 293 126 179 q 139 419 126 349 l 211 836 l 108 894 l 113 917 l 575 917 l 571 894 l 449 836 l 374 403 q 365 310 365 350 q 391 190 365 233 q 461 126 417 146 q 561 107 506 107 q 668 131 617 107 q 758 210 719 156 q 813 354 797 264 l 896 839 l 793 894 l 797 917 l 1054 917 q 1144 932 1115 917 q 1178 974 1174 947 l 1188 1038 l 1197 1046 l 1294 1046 q 1320 1041 1313 1046 q 1328 1019 1328 1036 q 1272 919 1328 958 q 1103 881 1215 881 l 1075 881 l 982 838 l 910 419 q 822 161 881 256 q 679 26 764 67 q 485 -14 594 -14 z "},"Ứ":{"ha":1038,"x_min":108,"x_max":1328,"o":"m 485 -14 q 296 15 376 -14 q 171 112 215 44 q 126 293 126 179 q 139 419 126 349 l 211 836 l 108 894 l 113 917 l 575 917 l 571 894 l 449 836 l 374 403 q 365 310 365 350 q 391 190 365 233 q 461 126 417 146 q 561 107 506 107 q 668 131 617 107 q 758 210 719 156 q 813 354 797 264 l 896 839 l 793 894 l 797 917 l 1054 917 q 1144 932 1115 917 q 1178 974 1174 947 l 1188 1038 l 1197 1046 l 1294 1046 q 1320 1041 1313 1046 q 1328 1019 1328 1036 q 1272 919 1328 958 q 1103 881 1215 881 l 1075 881 l 982 838 l 910 419 q 822 161 881 256 q 679 26 764 67 q 485 -14 594 -14 m 676 986 l 804 1197 l 979 1197 q 965 1153 975 1176 q 919 1110 956 1131 l 711 986 l 676 986 z "},"Ự":{"ha":1038,"x_min":108,"x_max":1328,"o":"m 485 -14 q 296 15 376 -14 q 171 112 215 44 q 126 293 126 179 q 139 419 126 349 l 211 836 l 108 894 l 113 917 l 575 917 l 571 894 l 449 836 l 374 403 q 365 310 365 350 q 391 190 365 233 q 461 126 417 146 q 561 107 506 107 q 668 131 617 107 q 758 210 719 156 q 813 354 797 264 l 896 839 l 793 894 l 797 917 l 1054 917 q 1144 932 1115 917 q 1178 974 1174 947 l 1188 1038 l 1197 1046 l 1294 1046 q 1320 1041 1313 1046 q 1328 1019 1328 1036 q 1272 919 1328 958 q 1103 881 1215 881 l 1075 881 l 982 838 l 910 419 q 822 161 881 256 q 679 26 764 67 q 485 -14 594 -14 z "},"Ừ":{"ha":1038,"x_min":108,"x_max":1328,"o":"m 485 -14 q 296 15 376 -14 q 171 112 215 44 q 126 293 126 179 q 139 419 126 349 l 211 836 l 108 894 l 113 917 l 575 917 l 571 894 l 449 836 l 374 403 q 365 310 365 350 q 391 190 365 233 q 461 126 417 146 q 561 107 506 107 q 668 131 617 107 q 758 210 719 156 q 813 354 797 264 l 896 839 l 793 894 l 797 917 l 1054 917 q 1144 932 1115 917 q 1178 974 1174 947 l 1188 1038 l 1197 1046 l 1294 1046 q 1320 1041 1313 1046 q 1328 1019 1328 1036 q 1272 919 1328 958 q 1103 881 1215 881 l 1075 881 l 982 838 l 910 419 q 822 161 881 256 q 679 26 764 67 q 485 -14 594 -14 m 675 986 l 464 1110 q 434 1146 438 1125 q 435 1197 431 1167 l 592 1197 l 710 986 l 675 986 z "},"Ử":{"ha":1038,"x_min":108,"x_max":1328,"o":"m 485 -14 q 296 15 376 -14 q 171 112 215 44 q 126 293 126 179 q 139 419 126 349 l 211 836 l 108 894 l 113 917 l 575 917 l 571 894 l 449 836 l 374 403 q 365 310 365 350 q 391 190 365 233 q 461 126 417 146 q 561 107 506 107 q 668 131 617 107 q 758 210 719 156 q 813 354 797 264 l 896 839 l 793 894 l 797 917 l 1054 917 q 1144 932 1115 917 q 1178 974 1174 947 l 1188 1038 l 1197 1046 l 1294 1046 q 1320 1041 1313 1046 q 1328 1019 1328 1036 q 1272 919 1328 958 q 1103 881 1215 881 l 1075 881 l 982 838 l 910 419 q 822 161 881 256 q 679 26 764 67 q 485 -14 594 -14 m 642 971 l 632 985 l 632 986 q 699 1013 679 997 q 718 1051 718 1028 q 700 1088 718 1072 q 640 1113 682 1104 l 676 1211 q 776 1169 746 1201 q 807 1100 807 1138 q 763 1013 807 1043 q 642 971 719 983 z "},"Ữ":{"ha":1038,"x_min":108,"x_max":1328,"o":"m 485 -14 q 296 15 376 -14 q 171 112 215 44 q 126 293 126 179 q 139 419 126 349 l 211 836 l 108 894 l 113 917 l 575 917 l 571 894 l 449 836 l 374 403 q 365 310 365 350 q 391 190 365 233 q 461 126 417 146 q 561 107 506 107 q 668 131 617 107 q 758 210 719 156 q 813 354 797 264 l 896 839 l 793 894 l 797 917 l 1054 917 q 1144 932 1115 917 q 1178 974 1174 947 l 1188 1038 l 1197 1046 l 1294 1046 q 1320 1041 1313 1046 q 1328 1019 1328 1036 q 1272 919 1328 958 q 1103 881 1215 881 l 1075 881 l 982 838 l 910 419 q 822 161 881 256 q 679 26 764 67 q 485 -14 594 -14 m 471 999 q 533 1120 506 1081 q 586 1172 560 1160 q 643 1185 613 1185 q 713 1166 682 1185 q 773 1128 744 1147 q 832 1108 801 1108 q 874 1121 854 1108 q 919 1185 893 1133 l 954 1185 q 892 1063 918 1103 q 839 1011 865 1024 q 782 999 813 999 q 712 1017 743 999 q 652 1056 681 1036 q 593 1075 624 1075 q 551 1063 571 1075 q 506 999 532 1050 l 471 999 z "},"Ẁ":{"ha":1325,"x_min":81,"x_max":1411,"o":"m 267 -7 l 168 846 l 81 894 l 85 917 l 524 917 l 519 894 l 406 843 l 461 326 l 471 326 l 772 924 l 894 924 l 999 331 l 1007 331 l 1224 846 l 1124 894 l 1128 917 l 1411 917 l 1407 894 l 1317 849 l 944 -7 l 821 -7 l 708 607 l 701 607 l 390 -7 l 267 -7 m 822 986 l 611 1110 q 581 1146 585 1125 q 582 1197 578 1167 l 739 1197 l 857 986 l 822 986 z "},"Ẃ":{"ha":1325,"x_min":81,"x_max":1411,"o":"m 267 -7 l 168 846 l 81 894 l 85 917 l 524 917 l 519 894 l 406 843 l 461 326 l 471 326 l 772 924 l 894 924 l 999 331 l 1007 331 l 1224 846 l 1124 894 l 1128 917 l 1411 917 l 1407 894 l 1317 849 l 944 -7 l 821 -7 l 708 607 l 701 607 l 390 -7 l 267 -7 m 824 986 l 951 1197 l 1126 1197 q 1113 1153 1122 1176 q 1067 1110 1103 1131 l 858 986 l 824 986 z "},"Ŵ":{"ha":1325,"x_min":81,"x_max":1411,"o":"m 267 -7 l 168 846 l 81 894 l 85 917 l 524 917 l 519 894 l 406 843 l 461 326 l 471 326 l 772 924 l 894 924 l 999 331 l 1007 331 l 1224 846 l 1124 894 l 1128 917 l 1411 917 l 1407 894 l 1317 849 l 944 -7 l 821 -7 l 708 607 l 701 607 l 390 -7 l 267 -7 m 621 986 l 840 1197 l 915 1197 l 1057 986 l 1022 986 l 857 1069 l 656 986 l 621 986 z "},"Ẅ":{"ha":1325,"x_min":81,"x_max":1411,"o":"m 267 -7 l 168 846 l 81 894 l 85 917 l 524 917 l 519 894 l 406 843 l 461 326 l 471 326 l 772 924 l 894 924 l 999 331 l 1007 331 l 1224 846 l 1124 894 l 1128 917 l 1411 917 l 1407 894 l 1317 849 l 944 -7 l 821 -7 l 708 607 l 701 607 l 390 -7 l 267 -7 m 721 1011 q 663 1035 685 1011 q 640 1092 640 1060 q 663 1148 640 1124 q 721 1172 685 1172 q 779 1148 757 1172 q 801 1092 801 1124 q 779 1035 801 1060 q 721 1011 757 1011 m 997 1011 q 940 1035 963 1011 q 917 1092 917 1060 q 940 1148 917 1124 q 997 1172 963 1172 q 1055 1148 1032 1172 q 1078 1092 1078 1124 q 1055 1035 1078 1060 q 997 1011 1032 1011 z "},"Ỳ":{"ha":958,"x_min":81,"x_max":1058,"o":"m 188 0 l 192 22 l 313 81 l 374 426 l 154 847 l 81 894 l 86 917 l 519 917 l 514 894 l 404 844 l 403 839 l 581 504 l 850 839 l 851 844 l 757 894 l 763 917 l 1058 917 l 1054 894 l 965 853 l 611 431 l 550 81 l 651 22 l 647 0 l 188 0 m 628 986 l 417 1110 q 387 1146 390 1125 q 388 1197 383 1167 l 544 1197 l 663 986 l 628 986 z "},"Ý":{"ha":958,"x_min":81,"x_max":1058,"o":"m 188 0 l 192 22 l 313 81 l 374 426 l 154 847 l 81 894 l 86 917 l 519 917 l 514 894 l 404 844 l 403 839 l 581 504 l 850 839 l 851 844 l 757 894 l 763 917 l 1058 917 l 1054 894 l 965 853 l 611 431 l 550 81 l 651 22 l 647 0 l 188 0 m 629 986 l 757 1197 l 932 1197 q 918 1153 928 1176 q 872 1110 908 1131 l 664 986 l 629 986 z "},"Ŷ":{"ha":958,"x_min":81,"x_max":1058,"o":"m 188 0 l 192 22 l 313 81 l 374 426 l 154 847 l 81 894 l 86 917 l 519 917 l 514 894 l 404 844 l 403 839 l 581 504 l 850 839 l 851 844 l 757 894 l 763 917 l 1058 917 l 1054 894 l 965 853 l 611 431 l 550 81 l 651 22 l 647 0 l 188 0 m 426 986 l 646 1197 l 721 1197 l 863 986 l 828 986 l 663 1069 l 461 986 l 426 986 z "},"Ÿ":{"ha":958,"x_min":81,"x_max":1058,"o":"m 188 0 l 192 22 l 313 81 l 374 426 l 154 847 l 81 894 l 86 917 l 519 917 l 514 894 l 404 844 l 403 839 l 581 504 l 850 839 l 851 844 l 757 894 l 763 917 l 1058 917 l 1054 894 l 965 853 l 611 431 l 550 81 l 651 22 l 647 0 l 188 0 m 526 1011 q 468 1035 490 1011 q 446 1092 446 1060 q 468 1148 446 1124 q 526 1172 490 1172 q 585 1148 563 1172 q 607 1092 607 1124 q 585 1035 607 1060 q 526 1011 563 1011 m 803 1011 q 745 1035 768 1011 q 722 1092 722 1060 q 745 1148 722 1124 q 803 1172 768 1172 q 860 1148 838 1172 q 883 1092 883 1124 q 860 1035 883 1060 q 803 1011 838 1011 z "},"Ỹ":{"ha":958,"x_min":81,"x_max":1058,"o":"m 188 0 l 192 22 l 313 81 l 374 426 l 154 847 l 81 894 l 86 917 l 519 917 l 514 894 l 404 844 l 403 839 l 581 504 l 850 839 l 851 844 l 757 894 l 763 917 l 1058 917 l 1054 894 l 965 853 l 611 431 l 550 81 l 651 22 l 647 0 l 188 0 m 424 999 q 485 1120 458 1081 q 539 1172 513 1160 q 596 1185 565 1185 q 666 1166 635 1185 q 726 1128 697 1147 q 785 1108 754 1108 q 826 1121 807 1108 q 872 1185 846 1133 l 907 1185 q 844 1063 871 1103 q 792 1011 818 1024 q 735 999 765 999 q 665 1017 696 999 q 605 1056 633 1036 q 546 1075 576 1075 q 504 1063 524 1075 q 458 999 485 1050 l 424 999 z "},"Ȳ":{"ha":958,"x_min":81,"x_max":1058,"o":"m 188 0 l 192 22 l 313 81 l 374 426 l 154 847 l 81 894 l 86 917 l 519 917 l 514 894 l 404 844 l 403 839 l 581 504 l 850 839 l 851 844 l 757 894 l 763 917 l 1058 917 l 1054 894 l 965 853 l 611 431 l 550 81 l 651 22 l 647 0 l 188 0 m 444 1044 l 461 1136 l 886 1136 l 869 1044 l 444 1044 z "},"Ỵ":{"ha":958,"x_min":81,"x_max":1058,"o":"m 188 0 l 192 22 l 313 81 l 374 426 l 154 847 l 81 894 l 86 917 l 519 917 l 514 894 l 404 844 l 403 839 l 581 504 l 850 839 l 851 844 l 757 894 l 763 917 l 1058 917 l 1054 894 l 965 853 l 611 431 l 550 81 l 651 22 l 647 0 l 188 0 z "},"Ỷ":{"ha":958,"x_min":81,"x_max":1058,"o":"m 188 0 l 192 22 l 313 81 l 374 426 l 154 847 l 81 894 l 86 917 l 519 917 l 514 894 l 404 844 l 403 839 l 581 504 l 850 839 l 851 844 l 757 894 l 763 917 l 1058 917 l 1054 894 l 965 853 l 611 431 l 550 81 l 651 22 l 647 0 l 188 0 m 594 971 l 585 985 l 585 986 q 651 1013 632 997 q 671 1051 671 1028 q 653 1088 671 1072 q 593 1113 635 1104 l 629 1211 q 729 1169 699 1201 q 760 1100 760 1138 q 716 1013 760 1043 q 594 971 672 983 z "},"Ẏ":{"ha":958,"x_min":81,"x_max":1058,"o":"m 188 0 l 192 22 l 313 81 l 374 426 l 154 847 l 81 894 l 86 917 l 519 917 l 514 894 l 404 844 l 403 839 l 581 504 l 850 839 l 851 844 l 757 894 l 763 917 l 1058 917 l 1054 894 l 965 853 l 611 431 l 550 81 l 651 22 l 647 0 l 188 0 m 664 985 q 588 1014 618 985 q 557 1090 557 1043 q 588 1168 557 1138 q 664 1199 618 1199 q 741 1168 711 1199 q 771 1090 771 1138 q 741 1014 771 1043 q 664 985 711 985 z "},"Ź":{"ha":842,"x_min":-14,"x_max":847,"o":"m -14 0 l -6 51 l 561 840 l 271 840 l 121 613 l 99 613 l 156 917 l 847 917 l 839 865 l 281 90 l 589 90 l 744 318 l 767 318 l 707 0 l -14 0 m 500 986 l 628 1197 l 803 1197 q 789 1153 799 1176 q 743 1110 779 1131 l 535 986 l 500 986 z "},"Ž":{"ha":842,"x_min":-14,"x_max":847,"o":"m -14 0 l -6 51 l 561 840 l 271 840 l 121 613 l 99 613 l 156 917 l 847 917 l 839 865 l 281 90 l 589 90 l 744 318 l 767 318 l 707 0 l -14 0 m 478 986 l 335 1197 l 369 1197 l 528 1114 l 736 1197 l 771 1197 l 553 986 l 478 986 z "},"Ż":{"ha":842,"x_min":-14,"x_max":847,"o":"m -14 0 l -6 51 l 561 840 l 271 840 l 121 613 l 99 613 l 156 917 l 847 917 l 839 865 l 281 90 l 589 90 l 744 318 l 767 318 l 707 0 l -14 0 m 535 985 q 458 1014 489 985 q 428 1090 428 1043 q 458 1168 428 1138 q 535 1199 489 1199 q 612 1168 582 1199 q 642 1090 642 1138 q 612 1014 642 1043 q 535 985 582 985 z "},"Ẓ":{"ha":842,"x_min":-14,"x_max":847,"o":"m -14 0 l -6 51 l 561 840 l 271 840 l 121 613 l 99 613 l 156 917 l 847 917 l 839 865 l 281 90 l 589 90 l 744 318 l 767 318 l 707 0 l -14 0 z "},"Ə":{"ha":932,"x_min":49,"x_max":883,"o":"m 381 -12 q 133 72 217 -12 q 49 307 49 156 q 49 355 49 331 q 54 406 50 379 l 64 415 l 632 415 q 636 501 636 457 q 576 699 636 628 q 383 769 515 769 q 237 742 300 769 q 107 658 174 714 l 101 658 l 113 722 q 274 872 172 814 q 500 931 376 931 q 783 833 682 931 q 883 569 883 736 q 845 337 883 443 q 739 152 807 231 q 579 31 671 74 q 381 -12 488 -12 m 281 278 q 312 113 281 158 q 411 67 343 67 q 543 142 488 67 q 622 339 599 217 l 285 339 q 282 307 283 322 q 281 278 281 292 z "},"Ŋ":{"ha":1028,"x_min":-35,"x_max":1085,"o":"m -35 0 l -31 22 l 90 81 l 224 836 l 122 894 l 126 917 l 397 917 l 772 324 l 863 836 l 718 894 l 722 917 l 1085 917 l 1081 894 l 963 836 l 814 -7 q 760 -178 794 -118 q 681 -274 725 -239 q 585 -319 642 -304 q 479 -333 529 -333 q 447 -293 438 -333 l 475 -171 l 486 -162 l 539 -162 q 633 -151 600 -162 q 684 -109 667 -140 q 713 -18 701 -78 l 289 640 l 190 81 l 335 22 l 331 0 l -35 0 z "},"Ð":{"ha":1051,"x_min":-42,"x_max":996,"o":"m -42 0 l -37 22 l 78 78 l 140 438 l 35 438 l 47 510 l 153 510 l 211 839 l 115 894 l 119 917 l 521 917 q 780 867 674 917 q 941 729 886 818 q 996 521 996 640 q 949 314 996 408 q 820 149 903 219 q 628 39 738 78 q 396 0 519 0 l -42 0 m 547 438 l 379 438 l 314 67 l 414 67 q 583 126 506 67 q 706 292 660 186 q 751 538 751 397 q 679 761 751 679 q 483 843 607 843 l 451 843 l 392 510 l 560 510 l 547 438 z "},"Þ":{"ha":869,"x_min":-42,"x_max":860,"o":"m 578 917 l 574 894 l 453 836 l 435 731 l 501 731 q 774 675 688 731 q 860 514 860 619 q 810 368 860 433 q 656 264 760 303 q 390 225 553 225 l 346 225 l 321 81 l 422 22 l 418 0 l -42 0 l -37 22 l 83 81 l 217 836 l 115 894 l 119 917 l 578 917 m 444 654 l 421 654 l 357 288 l 408 288 q 523 317 478 288 q 589 397 568 347 q 610 507 610 447 q 567 615 610 576 q 444 654 525 654 z "},"Ǆ":{"ha":1893,"x_min":-42,"x_max":1899,"o":"m -42 0 l -37 22 l 78 78 l 211 839 l 115 894 l 119 917 l 521 917 q 780 867 674 917 q 941 729 886 818 q 996 521 996 640 q 949 314 996 408 q 820 149 903 219 q 628 39 738 78 q 396 0 519 0 l -42 0 m 483 843 l 451 843 l 314 67 l 414 67 q 583 126 506 67 q 706 292 660 186 q 751 538 751 397 q 679 761 751 679 q 483 843 607 843 m 1038 0 l 1046 51 l 1613 840 l 1322 840 l 1172 613 l 1150 613 l 1207 917 l 1899 917 l 1890 865 l 1332 90 l 1640 90 l 1796 318 l 1818 318 l 1758 0 l 1038 0 m 1529 986 l 1386 1197 l 1421 1197 l 1579 1114 l 1788 1197 l 1822 1197 l 1604 986 l 1529 986 z "},"Ǉ":{"ha":1343,"x_min":-42,"x_max":1388,"o":"m -42 0 l -37 22 l 83 81 l 217 836 l 115 894 l 119 917 l 593 917 l 589 894 l 454 836 l 319 76 l 549 76 l 721 340 l 743 340 l 679 0 l -42 0 m 732 -240 q 683 -222 697 -240 q 679 -169 668 -203 l 710 -76 l 718 -76 q 785 -89 753 -89 q 839 -75 817 -89 q 878 -17 861 -61 q 913 121 896 28 l 1039 836 l 924 894 l 926 917 l 1388 917 l 1385 894 l 1276 836 l 1181 318 q 1124 143 1163 219 q 1038 6 1086 67 q 943 -101 990 -54 q 856 -185 889 -156 q 797 -228 824 -215 q 732 -240 769 -240 z "},"Ǌ":{"ha":1594,"x_min":-35,"x_max":1639,"o":"m -35 0 l -31 22 l 90 81 l 224 836 l 122 894 l 126 917 l 397 917 l 772 324 l 863 836 l 718 894 l 722 917 l 1085 917 l 1081 894 l 963 836 l 814 -7 l 706 -7 l 289 640 l 190 81 l 335 22 l 331 0 l -35 0 m 983 -240 q 934 -222 949 -240 q 931 -169 919 -203 l 961 -76 l 969 -76 q 1036 -89 1004 -89 q 1090 -75 1068 -89 q 1130 -17 1113 -61 q 1164 121 1147 28 l 1290 836 l 1175 894 l 1178 917 l 1639 917 l 1636 894 l 1528 836 l 1432 318 q 1376 143 1414 219 q 1290 6 1338 67 q 1194 -101 1242 -54 q 1108 -185 1140 -156 q 1048 -228 1075 -215 q 983 -240 1021 -240 z "},"Ђ":{"ha":1100,"x_min":63,"x_max":1031,"o":"m 96 0 l 100 22 l 246 81 l 382 840 l 233 840 l 85 596 l 63 596 l 117 917 l 939 917 l 885 638 l 863 638 l 796 840 l 619 840 l 554 476 q 653 522 590 503 q 799 542 717 542 q 942 505 889 542 q 1013 405 994 468 q 1017 261 1031 342 q 959 98 1000 172 q 872 -31 918 24 q 793 -118 825 -86 q 681 -204 742 -168 q 568 -240 621 -240 q 533 -200 525 -240 q 549 -147 536 -181 q 575 -78 561 -114 l 589 -78 q 616 -85 606 -83 q 640 -87 626 -87 q 681 -77 663 -87 q 714 -31 699 -67 q 742 78 729 4 l 771 246 q 765 376 786 328 q 658 425 743 425 q 591 417 621 425 q 540 396 561 408 l 483 81 l 613 22 l 608 0 l 96 0 z "},"Є":{"ha":919,"x_min":56,"x_max":858,"o":"m 457 -14 q 244 35 333 -14 q 105 168 154 83 q 56 361 56 253 q 99 574 56 472 q 221 757 143 676 q 403 884 299 838 q 628 931 507 931 q 763 911 713 931 q 858 864 813 892 l 835 594 l 810 594 l 699 843 q 607 864 667 864 q 483 819 540 864 q 383 694 425 774 q 319 511 340 615 l 539 511 l 643 633 l 665 633 l 610 315 l 588 315 l 525 435 l 307 435 q 301 325 301 381 q 351 133 301 206 q 489 60 400 60 q 551 66 519 60 q 614 89 582 72 l 792 304 l 817 304 l 758 61 q 622 6 706 25 q 457 -14 539 -14 z "},"Ѕ":{"ha":796,"x_min":42,"x_max":747,"o":"m 313 -14 q 161 6 226 -14 q 42 61 96 26 l 67 301 l 92 301 l 176 106 q 228 75 196 90 q 307 60 260 60 q 433 98 381 60 q 486 200 486 136 q 469 269 486 242 q 409 328 451 297 q 292 406 367 358 q 207 469 239 439 q 160 538 175 500 q 144 629 144 575 q 193 781 144 713 q 325 890 242 850 q 515 931 408 931 q 642 913 582 931 q 747 864 703 894 l 725 642 l 700 642 l 617 813 q 572 843 597 831 q 508 856 547 856 q 404 817 446 856 q 363 724 363 778 q 374 666 363 692 q 417 613 386 640 q 507 549 447 586 q 614 475 571 508 q 678 400 657 442 q 700 299 700 358 q 651 144 700 215 q 515 29 601 72 q 313 -14 428 -14 z "},"І":{"ha":538,"x_min":-42,"x_max":579,"o":"m -42 0 l -37 22 l 83 81 l 217 836 l 115 894 l 119 917 l 579 917 l 575 894 l 454 836 l 321 81 l 422 22 l 418 0 l -42 0 z "},"Ї":{"ha":538,"x_min":-42,"x_max":597,"o":"m -42 0 l -37 22 l 83 81 l 217 836 l 115 894 l 119 917 l 579 917 l 575 894 l 454 836 l 321 81 l 422 22 l 418 0 l -42 0 m 240 1011 q 182 1035 204 1011 q 160 1092 160 1060 q 182 1148 160 1124 q 240 1172 204 1172 q 299 1148 276 1172 q 321 1092 321 1124 q 299 1035 321 1060 q 240 1011 276 1011 m 517 1011 q 459 1035 482 1011 q 436 1092 436 1060 q 459 1148 436 1124 q 517 1172 482 1172 q 574 1148 551 1172 q 597 1092 597 1124 q 574 1035 597 1060 q 517 1011 551 1011 z "},"Ј":{"ha":551,"x_min":-124,"x_max":596,"o":"m -60 -240 q -109 -222 -94 -240 q -112 -169 -124 -203 l -82 -76 l -74 -76 q -7 -89 -39 -89 q 47 -75 25 -89 q 87 -17 69 -61 q 121 121 104 28 l 247 836 l 132 894 l 135 917 l 596 917 l 593 894 l 485 836 l 389 318 q 333 143 371 219 q 247 6 294 67 q 151 -101 199 -54 q 65 -185 97 -156 q 5 -228 32 -215 q -60 -240 -22 -240 z "},"Љ":{"ha":1326,"x_min":-44,"x_max":1299,"o":"m 382 668 q 321 382 353 499 q 254 189 289 265 q 141 28 201 71 q 0 -14 81 -14 q -37 -6 -31 -14 q -40 26 -44 3 l -18 153 l -8 161 l 4 161 q 126 209 75 161 q 217 368 178 257 q 289 669 256 479 l 318 836 l 206 894 l 210 917 l 1024 917 l 1019 894 l 885 836 l 835 551 l 903 551 q 1192 489 1086 551 q 1299 297 1299 426 q 1240 145 1299 213 q 1081 39 1181 78 q 858 0 981 0 l 389 0 l 393 22 l 514 82 l 647 840 l 411 840 l 382 668 m 751 76 l 815 76 q 941 106 889 76 q 1020 187 993 136 q 1047 299 1047 238 q 996 435 1047 394 q 847 475 944 475 l 821 475 l 751 76 z "},"Њ":{"ha":1431,"x_min":-42,"x_max":1403,"o":"m -42 0 l -37 22 l 83 81 l 217 836 l 115 894 l 119 917 l 565 917 l 561 894 l 454 836 l 399 524 l 696 524 l 751 836 l 650 894 l 654 917 l 1128 917 l 1124 894 l 989 836 l 933 524 l 1007 524 q 1297 465 1190 524 q 1403 283 1403 406 q 1344 139 1403 203 q 1185 38 1285 75 q 963 0 1086 0 l 493 0 l 497 22 l 618 82 l 682 447 l 386 447 l 321 81 l 408 22 l 404 0 l -42 0 m 856 76 l 919 76 q 1046 105 994 76 q 1124 181 1097 133 q 1151 285 1151 228 q 1100 410 1151 374 q 951 447 1049 447 l 921 447 l 856 76 z "},"Ћ":{"ha":1193,"x_min":63,"x_max":1082,"o":"m 96 0 l 100 22 l 246 81 l 382 840 l 233 840 l 85 596 l 63 596 l 117 917 l 939 917 l 885 638 l 863 638 l 796 840 l 619 840 l 554 476 q 653 522 590 503 q 799 542 717 542 q 975 465 925 542 q 1003 263 1025 389 l 971 81 l 1082 22 l 1078 0 l 714 0 l 760 258 q 752 378 772 331 q 656 425 732 425 q 589 417 618 425 q 540 396 560 408 l 483 81 l 613 22 l 608 0 l 96 0 z "},"Џ":{"ha":1054,"x_min":-42,"x_max":1096,"o":"m 343 0 l -42 0 l -37 22 l 81 81 l 214 836 l 115 894 l 119 917 l 564 917 l 560 894 l 451 836 l 318 76 l 600 76 l 733 836 l 646 894 l 650 917 l 1096 917 l 1092 894 l 971 836 l 838 81 l 939 22 l 935 0 l 526 0 l 403 -244 l 381 -244 l 343 0 z "},"А":{"ha":999,"x_min":-62,"x_max":904,"o":"m -62 0 l -58 22 l 21 65 l 506 924 l 649 924 l 825 69 l 904 22 l 900 0 l 450 0 l 454 22 l 571 74 l 529 288 l 236 288 l 114 69 l 213 22 l 207 0 l -62 0 m 279 364 l 514 364 l 451 675 l 279 364 z "},"Б":{"ha":931,"x_min":-42,"x_max":868,"o":"m 119 917 l 854 917 l 813 675 l 790 675 l 718 840 l 454 840 l 401 536 l 472 536 q 762 476 656 536 q 868 289 868 415 q 809 140 868 206 q 650 38 750 75 q 428 0 550 0 l -42 0 l -37 22 l 83 82 l 217 836 l 115 894 l 119 917 m 321 76 l 385 76 q 510 106 458 76 q 590 183 563 135 q 617 290 617 231 q 565 421 617 382 q 417 460 514 460 l 388 460 l 321 76 z "},"В":{"ha":942,"x_min":-42,"x_max":865,"o":"m -42 0 l -37 22 l 83 81 l 217 836 l 115 894 l 119 917 l 557 917 q 717 896 647 917 q 826 833 786 875 q 865 726 865 790 q 802 588 865 653 q 631 497 739 524 q 806 426 747 481 q 865 288 865 371 q 819 149 865 214 q 683 42 774 83 q 457 0 592 0 l -42 0 m 475 840 l 454 840 l 396 504 l 426 504 q 569 559 518 504 q 621 692 621 614 q 589 802 621 764 q 475 840 557 840 m 447 442 l 385 442 l 321 76 l 407 76 q 523 107 478 76 q 590 185 568 138 q 611 285 611 233 q 573 402 611 363 q 447 442 535 442 z "},"Г":{"ha":806,"x_min":-42,"x_max":826,"o":"m -42 0 l -37 22 l 83 81 l 217 836 l 115 894 l 119 917 l 826 917 l 785 675 l 763 675 l 690 840 l 454 840 l 321 81 l 463 22 l 458 0 l -42 0 z "},"Ѓ":{"ha":806,"x_min":-42,"x_max":826,"o":"m -42 0 l -37 22 l 83 81 l 217 836 l 115 894 l 119 917 l 826 917 l 785 675 l 763 675 l 690 840 l 454 840 l 321 81 l 463 22 l 458 0 l -42 0 z "},"Ғ":{"ha":799,"x_min":-49,"x_max":819,"o":"m -49 0 l -44 22 l 76 81 l 139 438 l 35 438 l 47 510 l 153 510 l 210 836 l 108 894 l 113 917 l 819 917 l 778 675 l 756 675 l 683 840 l 447 840 l 389 510 l 606 510 l 593 438 l 376 438 l 314 81 l 456 22 l 451 0 l -49 0 z "},"Д":{"ha":967,"x_min":-90,"x_max":1008,"o":"m 125 0 l -68 -244 l -90 -244 l -33 76 l 56 76 q 170 308 119 167 q 260 669 221 449 l 289 836 l 176 894 l 181 917 l 1008 917 l 1004 894 l 883 836 l 749 76 l 874 76 l 817 -244 l 794 -244 l 688 0 l 125 0 m 353 668 q 270 316 318 464 q 164 76 222 168 l 511 76 l 646 840 l 382 840 l 353 668 z "},"Е":{"ha":867,"x_min":-42,"x_max":846,"o":"m -42 0 l -37 22 l 83 81 l 217 836 l 115 894 l 119 917 l 846 917 l 804 675 l 783 675 l 710 840 l 454 840 l 396 504 l 563 504 l 671 626 l 693 626 l 639 322 l 617 322 l 551 442 l 385 442 l 321 76 l 599 76 l 753 304 l 775 304 l 721 0 l -42 0 z "},"Ё":{"ha":867,"x_min":-42,"x_max":846,"o":"m -42 0 l -37 22 l 83 81 l 217 836 l 115 894 l 119 917 l 846 917 l 804 675 l 783 675 l 710 840 l 454 840 l 396 504 l 563 504 l 671 626 l 693 626 l 639 322 l 617 322 l 551 442 l 385 442 l 321 76 l 599 76 l 753 304 l 775 304 l 721 0 l -42 0 m 414 1011 q 356 1035 378 1011 q 333 1092 333 1060 q 356 1148 333 1124 q 414 1172 378 1172 q 472 1148 450 1172 q 494 1092 494 1124 q 472 1035 494 1060 q 414 1011 450 1011 m 690 1011 q 633 1035 656 1011 q 610 1092 610 1060 q 633 1148 610 1124 q 690 1172 656 1172 q 748 1148 725 1172 q 771 1092 771 1124 q 748 1035 771 1060 q 690 1011 725 1011 z "},"Ж":{"ha":1500,"x_min":-97,"x_max":1500,"o":"m 440 0 l 443 22 l 565 81 l 699 836 l 597 894 l 600 917 l 1061 917 l 1057 894 l 936 836 l 803 81 l 904 22 l 900 0 l 440 0 m 1119 0 l 872 460 l 1272 846 l 1182 894 l 1186 917 l 1500 917 l 1494 894 l 1411 861 l 1076 549 l 1356 72 l 1433 22 l 1429 0 l 1119 0 m 219 0 l -97 0 l -93 22 l 1 72 l 451 567 l 260 847 l 144 894 l 147 917 l 475 917 l 471 894 l 374 850 l 628 460 l 219 0 z "},"З":{"ha":904,"x_min":42,"x_max":828,"o":"m 461 861 q 414 856 433 861 q 376 842 394 851 l 167 594 l 142 594 l 210 864 q 347 913 276 894 q 511 931 417 931 q 750 874 672 931 q 828 728 828 818 q 793 619 828 672 q 690 528 758 567 q 524 478 622 489 q 724 414 654 465 q 793 283 793 363 q 742 140 793 208 q 589 29 692 72 q 331 -14 486 -14 q 167 6 247 -14 q 42 61 88 26 l 60 304 l 85 304 l 219 82 q 269 67 243 71 q 321 63 294 63 q 441 93 392 63 q 516 172 490 124 q 542 268 542 219 q 522 349 542 311 q 459 411 501 388 q 353 435 417 435 l 271 435 l 285 511 l 360 511 q 479 544 431 511 q 553 626 528 576 q 578 725 578 675 q 548 820 578 779 q 461 861 518 861 z "},"И":{"ha":1082,"x_min":-42,"x_max":1124,"o":"m -42 0 l -37 22 l 83 81 l 217 836 l 115 894 l 119 917 l 565 917 l 561 894 l 454 836 l 356 278 l 754 778 l 764 836 l 675 894 l 679 917 l 1124 917 l 1119 894 l 1001 836 l 868 81 l 967 22 l 963 0 l 518 0 l 522 22 l 631 81 l 731 644 l 332 144 l 321 81 l 408 22 l 404 0 l -42 0 z "},"Й":{"ha":1082,"x_min":-42,"x_max":1124,"o":"m -42 0 l -37 22 l 83 81 l 217 836 l 115 894 l 119 917 l 565 917 l 561 894 l 454 836 l 356 278 l 754 778 l 764 836 l 675 894 l 679 917 l 1124 917 l 1119 894 l 1001 836 l 868 81 l 967 22 l 963 0 l 518 0 l 522 22 l 631 81 l 731 644 l 332 144 l 321 81 l 408 22 l 404 0 l -42 0 m 425 1197 l 572 1197 q 576 1081 560 1125 q 640 1036 593 1036 q 722 1081 692 1036 q 764 1197 751 1125 l 911 1197 q 824 1046 896 1106 q 632 986 751 986 q 463 1046 515 986 q 425 1197 410 1106 z "},"Ӣ":{"ha":1082,"x_min":-42,"x_max":1124,"o":"m -42 0 l -37 22 l 83 81 l 217 836 l 115 894 l 119 917 l 565 917 l 561 894 l 454 836 l 356 278 l 754 778 l 764 836 l 675 894 l 679 917 l 1124 917 l 1119 894 l 1001 836 l 868 81 l 967 22 l 963 0 l 518 0 l 522 22 l 631 81 l 731 644 l 332 144 l 321 81 l 408 22 l 404 0 l -42 0 z "},"К":{"ha":1019,"x_min":-42,"x_max":1019,"o":"m -42 0 l -37 22 l 83 81 l 217 836 l 115 894 l 119 917 l 581 917 l 575 894 l 454 836 l 321 81 l 424 22 l 418 0 l -42 0 m 639 0 l 392 460 l 792 846 l 701 894 l 706 917 l 1019 917 l 1014 894 l 931 861 l 596 549 l 875 72 l 953 22 l 949 0 l 639 0 z "},"Ќ":{"ha":1019,"x_min":-42,"x_max":1019,"o":"m -42 0 l -37 22 l 83 81 l 217 836 l 115 894 l 119 917 l 581 917 l 575 894 l 454 836 l 321 81 l 424 22 l 418 0 l -42 0 m 639 0 l 392 460 l 792 846 l 701 894 l 706 917 l 1019 917 l 1014 894 l 931 861 l 596 549 l 875 72 l 953 22 l 949 0 l 639 0 z "},"Л":{"ha":982,"x_min":-44,"x_max":1024,"o":"m 403 0 l 407 22 l 528 81 l 661 840 l 411 840 l 382 668 q 321 382 353 499 q 254 189 289 265 q 141 28 201 71 q 0 -14 81 -14 q -37 -6 -31 -14 q -40 26 -44 3 l -18 153 l -8 161 l 4 161 q 126 209 75 161 q 217 368 178 257 q 289 669 256 479 l 318 836 l 206 894 l 210 917 l 1024 917 l 1019 894 l 899 836 l 765 81 l 867 22 l 863 0 l 403 0 z "},"М":{"ha":1307,"x_min":-42,"x_max":1307,"o":"m -42 0 l -37 22 l 83 81 l 243 838 l 133 894 l 138 917 l 507 917 l 642 329 l 958 917 l 1307 917 l 1303 894 l 1185 836 l 1100 81 l 1192 22 l 1188 0 l 747 0 l 751 22 l 864 79 l 933 690 l 551 -7 l 472 -7 l 306 724 l 175 79 l 282 22 l 276 0 l -42 0 z "},"Н":{"ha":1068,"x_min":-42,"x_max":1110,"o":"m -42 0 l -37 22 l 83 81 l 217 836 l 115 894 l 119 917 l 565 917 l 561 894 l 454 836 l 397 511 l 693 511 l 750 836 l 661 894 l 665 917 l 1110 917 l 1106 894 l 988 836 l 854 81 l 953 22 l 949 0 l 504 0 l 508 22 l 617 81 l 679 435 l 383 435 l 321 81 l 408 22 l 404 0 l -42 0 z "},"О":{"ha":1082,"x_min":56,"x_max":1026,"o":"m 471 -14 q 244 35 336 -14 q 103 173 151 85 q 56 376 56 261 q 98 594 56 493 q 216 770 140 694 q 392 888 292 846 q 610 931 493 931 q 837 881 744 931 q 978 744 929 832 q 1026 542 1026 656 q 986 324 1026 425 q 872 147 946 224 q 696 28 797 71 q 471 -14 594 -14 m 485 58 q 603 99 550 58 q 695 213 657 140 q 754 378 733 285 q 775 578 775 472 q 758 724 775 661 q 703 822 742 786 q 599 857 664 857 q 484 816 538 857 q 391 703 431 775 q 329 538 351 631 q 307 340 307 444 q 351 137 307 215 q 485 58 394 58 z "},"П":{"ha":1054,"x_min":-42,"x_max":1096,"o":"m -42 0 l -37 22 l 83 81 l 217 836 l 115 894 l 119 917 l 1096 917 l 1092 894 l 974 836 l 840 81 l 939 22 l 935 0 l 490 0 l 494 22 l 603 81 l 736 840 l 454 840 l 321 81 l 408 22 l 404 0 l -42 0 z "},"Р":{"ha":897,"x_min":-42,"x_max":890,"o":"m -42 0 l -37 22 l 83 81 l 217 836 l 115 894 l 119 917 l 532 917 q 804 861 718 917 q 890 700 890 806 q 840 554 890 619 q 687 450 790 489 q 421 411 583 411 l 378 411 l 321 81 l 451 22 l 447 0 l -42 0 m 453 840 l 389 474 l 439 474 q 553 503 508 474 q 619 583 599 533 q 640 693 640 633 q 598 801 640 763 q 475 840 556 840 l 453 840 z "},"С":{"ha":919,"x_min":56,"x_max":858,"o":"m 457 -14 q 244 35 333 -14 q 105 168 154 83 q 56 361 56 253 q 99 574 56 472 q 221 757 143 676 q 403 884 299 838 q 628 931 507 931 q 763 911 713 931 q 858 864 813 892 l 835 594 l 810 594 l 699 843 q 607 864 667 864 q 488 822 543 864 q 390 707 432 781 q 325 535 349 633 q 301 325 301 438 q 351 133 301 206 q 489 60 400 60 q 551 66 519 60 q 614 89 582 72 l 792 304 l 817 304 l 758 61 q 622 6 706 25 q 457 -14 539 -14 z "},"Т":{"ha":883,"x_min":63,"x_max":939,"o":"m 110 0 l 114 22 l 260 81 l 396 840 l 233 840 l 85 596 l 63 596 l 117 917 l 939 917 l 885 596 l 863 596 l 796 840 l 633 840 l 497 81 l 626 22 l 622 0 l 110 0 z "},"У":{"ha":964,"x_min":81,"x_max":1063,"o":"m 613 314 q 415 69 507 151 q 213 -14 322 -14 q 174 -6 181 -14 q 172 26 168 3 l 194 153 l 204 161 l 240 161 q 349 175 301 161 q 440 233 397 189 l 199 819 l 81 894 l 85 917 l 518 917 l 514 894 l 422 853 l 422 843 l 589 456 l 604 456 l 847 836 l 847 846 l 757 894 l 761 917 l 1063 917 l 1058 894 l 953 840 l 613 314 z "},"Ў":{"ha":964,"x_min":81,"x_max":1063,"o":"m 613 314 q 415 69 507 151 q 213 -14 322 -14 q 174 -6 181 -14 q 172 26 168 3 l 194 153 l 204 161 l 240 161 q 349 175 301 161 q 440 233 397 189 l 199 819 l 81 894 l 85 917 l 518 917 l 514 894 l 422 853 l 422 843 l 589 456 l 604 456 l 847 836 l 847 846 l 757 894 l 761 917 l 1063 917 l 1058 894 l 953 840 l 613 314 m 444 1197 l 592 1197 q 596 1081 579 1125 q 660 1036 613 1036 q 741 1081 711 1036 q 783 1197 771 1125 l 931 1197 q 843 1046 915 1106 q 651 986 771 986 q 482 1046 535 986 q 444 1197 429 1106 z "},"Ӯ":{"ha":964,"x_min":81,"x_max":1063,"o":"m 613 314 q 415 69 507 151 q 213 -14 322 -14 q 174 -6 181 -14 q 172 26 168 3 l 194 153 l 204 161 l 240 161 q 349 175 301 161 q 440 233 397 189 l 199 819 l 81 894 l 85 917 l 518 917 l 514 894 l 422 853 l 422 843 l 589 456 l 604 456 l 847 836 l 847 846 l 757 894 l 761 917 l 1063 917 l 1058 894 l 953 840 l 613 314 z "},"Ф":{"ha":1244,"x_min":42,"x_max":1203,"o":"m 294 -28 l 299 -6 l 433 53 l 443 111 q 144 201 246 119 q 42 415 42 282 q 103 606 42 519 q 282 746 165 693 q 565 806 399 799 l 575 864 l 463 922 l 467 944 l 951 944 l 947 922 l 813 864 l 803 806 q 1101 716 1000 797 q 1203 501 1203 635 q 1142 311 1203 397 q 964 172 1081 225 q 681 111 847 118 l 671 53 l 783 -6 l 779 -28 l 294 -28 m 292 415 q 338 261 292 319 q 457 189 383 203 l 553 733 q 422 691 481 729 q 327 583 363 653 q 292 415 292 513 m 953 501 q 908 654 953 596 q 789 728 863 713 l 693 183 q 824 226 765 188 q 917 335 882 265 q 953 501 953 404 z "},"Х":{"ha":1001,"x_min":-64,"x_max":1042,"o":"m -64 0 l -60 22 l 51 76 l 388 435 l 176 847 l 101 894 l 106 917 l 557 917 l 553 894 l 442 844 l 442 838 l 582 572 l 828 838 l 829 843 l 733 894 l 738 917 l 1042 917 l 1038 894 l 942 844 l 617 504 l 842 76 l 926 22 l 922 0 l 465 0 l 469 22 l 571 72 l 571 78 l 425 363 l 163 82 l 157 76 l 251 22 l 247 0 l -64 0 z "},"Ц":{"ha":1054,"x_min":-42,"x_max":1096,"o":"m 775 0 l -42 0 l -37 22 l 81 81 l 214 836 l 115 894 l 119 917 l 564 917 l 560 894 l 451 836 l 318 76 l 600 76 l 733 836 l 646 894 l 650 917 l 1096 917 l 1092 894 l 971 836 l 836 76 l 961 76 l 904 -244 l 882 -244 l 775 0 z "},"Ч":{"ha":1051,"x_min":115,"x_max":1093,"o":"m 488 0 l 492 22 l 600 81 l 658 411 q 565 378 615 392 q 453 364 514 364 q 233 438 306 364 q 188 665 161 513 l 217 836 l 115 894 l 119 917 l 565 917 l 561 894 l 454 836 l 422 658 q 435 512 403 556 q 550 468 467 468 q 609 473 578 468 q 672 489 640 478 l 733 836 l 644 894 l 649 917 l 1093 917 l 1089 894 l 971 836 l 838 81 l 936 22 l 932 0 l 488 0 z "},"Ш":{"ha":1496,"x_min":-42,"x_max":1538,"o":"m 564 917 l 560 894 l 451 836 l 318 76 l 563 76 l 696 836 l 601 894 l 606 917 l 1050 917 l 1046 894 l 933 836 l 800 76 l 1042 76 l 1175 836 l 1088 894 l 1092 917 l 1538 917 l 1533 894 l 1413 836 l 1279 81 l 1381 22 l 1376 0 l -42 0 l -37 22 l 81 81 l 214 836 l 115 894 l 119 917 l 564 917 z "},"Щ":{"ha":1496,"x_min":-42,"x_max":1538,"o":"m 564 917 l 560 894 l 451 836 l 318 76 l 563 76 l 696 836 l 601 894 l 606 917 l 1050 917 l 1046 894 l 933 836 l 800 76 l 1042 76 l 1175 836 l 1088 894 l 1092 917 l 1538 917 l 1533 894 l 1413 836 l 1279 76 l 1404 76 l 1347 -244 l 1325 -244 l 1218 0 l -42 0 l -37 22 l 81 81 l 214 836 l 115 894 l 119 917 l 564 917 z "},"Ъ":{"ha":1046,"x_min":63,"x_max":1018,"o":"m 743 917 l 739 894 l 604 836 l 554 551 l 622 551 q 912 489 806 551 q 1018 297 1018 426 q 959 145 1018 213 q 800 39 900 78 q 578 0 700 0 l 108 0 l 113 22 l 233 82 l 367 840 l 250 840 l 85 596 l 63 596 l 119 917 l 743 917 m 471 76 l 535 76 q 660 106 608 76 q 740 187 713 136 q 767 299 767 238 q 715 435 767 394 q 567 475 664 475 l 540 475 l 471 76 z "},"Ы":{"ha":1433,"x_min":-42,"x_max":1475,"o":"m 119 917 l 593 917 l 589 894 l 454 836 l 404 551 l 472 551 q 762 489 656 551 q 868 297 868 426 q 809 145 868 213 q 650 39 750 78 q 428 0 550 0 l -42 0 l -37 22 l 83 82 l 217 836 l 115 894 l 119 917 m 321 76 l 385 76 q 510 106 458 76 q 590 187 563 136 q 617 299 617 238 q 565 435 617 394 q 417 475 514 475 l 390 475 l 321 76 m 854 0 l 858 22 l 979 81 l 1113 836 l 1011 894 l 1015 917 l 1475 917 l 1471 894 l 1350 836 l 1217 81 l 1318 22 l 1314 0 l 854 0 z "},"Ь":{"ha":896,"x_min":-42,"x_max":868,"o":"m 119 917 l 593 917 l 589 894 l 454 836 l 404 551 l 472 551 q 762 489 656 551 q 868 297 868 426 q 809 145 868 213 q 650 39 750 78 q 428 0 550 0 l -42 0 l -37 22 l 83 82 l 217 836 l 115 894 l 119 917 m 321 76 l 385 76 q 510 106 458 76 q 590 187 563 136 q 617 299 617 238 q 565 435 617 394 q 417 475 514 475 l 390 475 l 321 76 z "},"Э":{"ha":914,"x_min":42,"x_max":858,"o":"m 335 633 l 397 514 l 611 514 q 613 574 613 543 q 565 787 613 717 q 428 857 517 857 q 373 850 401 857 q 314 828 344 843 l 136 613 l 111 613 l 169 856 q 302 910 222 890 q 457 931 382 931 q 666 884 575 931 q 808 753 757 838 q 858 556 858 669 q 814 342 858 444 q 691 160 769 240 q 507 33 613 79 q 279 -14 401 -14 q 141 5 193 -14 q 42 53 89 24 l 65 322 l 90 322 l 201 74 q 242 57 219 61 q 300 53 265 53 q 442 103 379 53 q 545 242 504 154 q 603 438 586 329 l 383 438 l 279 315 l 257 315 l 313 633 l 335 633 z "},"Ю":{"ha":1485,"x_min":-42,"x_max":1429,"o":"m -42 0 l -37 22 l 83 81 l 217 836 l 115 894 l 119 917 l 565 917 l 561 894 l 454 836 l 397 511 l 501 511 q 606 727 531 632 q 789 876 681 822 q 1026 931 897 931 q 1246 881 1156 931 q 1383 744 1336 832 q 1429 542 1429 656 q 1390 324 1429 425 q 1278 147 1350 224 q 1106 28 1206 71 q 888 -14 1007 -14 q 667 35 757 -14 q 532 173 578 85 q 486 376 486 261 q 489 435 486 406 l 383 435 l 321 81 l 408 22 l 404 0 l -42 0 m 901 58 q 1015 99 964 58 q 1102 213 1065 140 q 1158 378 1139 285 q 1178 578 1178 472 q 1163 724 1178 661 q 1112 822 1147 786 q 1015 857 1076 857 q 906 816 957 857 q 818 703 856 775 q 759 538 781 631 q 738 340 738 444 q 778 137 738 215 q 901 58 819 58 z "},"Я":{"ha":1025,"x_min":-69,"x_max":1067,"o":"m 263 0 l -69 0 l -65 22 l 50 82 l 353 432 q 208 501 260 450 q 157 633 157 553 q 215 783 157 719 q 372 882 272 847 q 597 917 471 917 l 1067 917 l 1063 894 l 942 835 l 808 81 l 910 22 l 906 0 l 446 0 l 450 22 l 571 81 l 626 400 l 582 400 l 263 0 m 608 469 l 639 469 l 704 840 l 640 840 q 469 779 529 840 q 408 632 408 718 q 460 506 408 543 q 608 469 511 469 z "},"Ґ":{"ha":801,"x_min":-42,"x_max":864,"o":"m -42 0 l -37 22 l 83 81 l 217 836 l 115 894 l 119 917 l 649 917 l 842 1161 l 864 1161 l 808 840 l 454 840 l 321 81 l 463 22 l 458 0 l -42 0 z "},"Қ":{"ha":1047,"x_min":-42,"x_max":1019,"o":"m -42 0 l -37 22 l 83 81 l 217 836 l 115 894 l 119 917 l 581 917 l 575 894 l 454 836 l 321 81 l 424 22 l 418 0 l -42 0 m 639 0 l 392 460 l 792 846 l 701 894 l 706 917 l 1019 917 l 1014 894 l 931 861 l 596 549 l 872 76 l 989 76 l 932 -244 l 910 -244 l 803 0 l 639 0 z "},"Җ":{"ha":1528,"x_min":-97,"x_max":1500,"o":"m 440 0 l 443 22 l 565 81 l 699 836 l 597 894 l 600 917 l 1061 917 l 1057 894 l 936 836 l 803 81 l 904 22 l 900 0 l 440 0 m 1119 0 l 872 460 l 1272 846 l 1182 894 l 1186 917 l 1500 917 l 1494 894 l 1411 861 l 1076 549 l 1353 76 l 1474 76 l 1417 -244 l 1394 -244 l 1288 0 l 1119 0 m 219 0 l -97 0 l -93 22 l 1 72 l 451 567 l 260 847 l 144 894 l 147 917 l 475 917 l 471 894 l 374 850 l 628 460 l 219 0 z "},"Ҳ":{"ha":1029,"x_min":-64,"x_max":1042,"o":"m -64 0 l -60 22 l 51 76 l 388 435 l 176 847 l 101 894 l 106 917 l 557 917 l 553 894 l 442 844 l 442 838 l 582 572 l 828 838 l 829 843 l 733 894 l 738 917 l 1042 917 l 1038 894 l 942 844 l 618 504 l 843 76 l 961 76 l 904 -244 l 882 -244 l 775 0 l 465 0 l 469 22 l 571 72 l 571 78 l 425 363 l 163 82 l 157 76 l 251 22 l 247 0 l -64 0 z "},"Ң":{"ha":1068,"x_min":-42,"x_max":1110,"o":"m -42 0 l -37 22 l 83 81 l 217 836 l 115 894 l 119 917 l 565 917 l 561 894 l 454 836 l 397 511 l 693 511 l 750 836 l 661 894 l 665 917 l 1110 917 l 1106 894 l 988 836 l 854 76 l 979 76 l 922 -244 l 900 -244 l 793 0 l 504 0 l 508 22 l 617 81 l 679 435 l 383 435 l 321 81 l 408 22 l 404 0 l -42 0 z "},"Ҷ":{"ha":1051,"x_min":115,"x_max":1093,"o":"m 488 0 l 492 22 l 600 81 l 658 411 q 565 378 615 392 q 453 364 514 364 q 233 438 306 364 q 188 665 161 513 l 217 836 l 115 894 l 119 917 l 565 917 l 561 894 l 454 836 l 422 658 q 435 512 403 556 q 550 468 467 468 q 609 473 578 468 q 672 489 640 478 l 733 836 l 644 894 l 649 917 l 1093 917 l 1089 894 l 971 836 l 838 76 l 969 76 l 913 -244 l 890 -244 l 783 0 l 488 0 z "},"Ү":{"ha":958,"x_min":81,"x_max":1058,"o":"m 188 0 l 192 22 l 313 81 l 374 426 l 154 847 l 81 894 l 86 917 l 519 917 l 514 894 l 404 844 l 403 839 l 581 504 l 850 839 l 851 844 l 757 894 l 763 917 l 1058 917 l 1054 894 l 965 853 l 611 431 l 550 81 l 651 22 l 647 0 l 188 0 z "},"Ұ":{"ha":958,"x_min":81,"x_max":1058,"o":"m 188 0 l 192 22 l 313 81 l 360 351 l 158 351 l 172 428 l 372 428 l 154 847 l 81 894 l 86 917 l 519 917 l 514 894 l 404 844 l 403 839 l 581 504 l 850 839 l 851 844 l 757 894 l 763 917 l 1058 917 l 1054 894 l 965 853 l 611 431 l 611 428 l 813 428 l 799 351 l 597 351 l 550 81 l 651 22 l 647 0 l 188 0 z "},"Һ":{"ha":1051,"x_min":7,"x_max":985,"o":"m 613 917 l 608 894 l 500 836 l 442 506 q 535 539 485 525 q 647 553 586 553 q 867 478 794 553 q 913 251 939 404 l 883 81 l 985 22 l 981 0 l 535 0 l 539 22 l 646 81 l 678 258 q 665 405 697 361 q 550 449 633 449 q 491 444 522 449 q 428 428 460 439 l 367 81 l 456 22 l 451 0 l 7 0 l 11 22 l 129 81 l 263 836 l 164 894 l 168 917 l 613 917 z "},"Ӏ":{"ha":538,"x_min":-42,"x_max":579,"o":"m -42 0 l -37 22 l 83 81 l 217 836 l 115 894 l 119 917 l 579 917 l 575 894 l 454 836 l 321 81 l 422 22 l 418 0 l -42 0 z "},"Ә":{"ha":932,"x_min":49,"x_max":883,"o":"m 381 -12 q 133 72 217 -12 q 49 307 49 156 q 49 355 49 331 q 54 406 50 379 l 64 415 l 632 415 q 636 501 636 457 q 576 699 636 628 q 383 769 515 769 q 237 742 300 769 q 107 658 174 714 l 101 658 l 113 722 q 274 872 172 814 q 500 931 376 931 q 783 833 682 931 q 883 569 883 736 q 845 337 883 443 q 739 152 807 231 q 579 31 671 74 q 381 -12 488 -12 m 281 278 q 312 113 281 158 q 411 67 343 67 q 543 142 488 67 q 622 339 599 217 l 285 339 q 282 307 283 322 q 281 278 281 292 z "},"Ө":{"ha":1082,"x_min":56,"x_max":1026,"o":"m 471 -14 q 244 35 336 -14 q 103 173 151 85 q 56 376 56 261 q 98 594 56 493 q 216 770 140 694 q 392 888 292 846 q 610 931 493 931 q 837 881 744 931 q 978 744 929 832 q 1026 542 1026 656 q 986 324 1026 425 q 872 147 946 224 q 696 28 797 71 q 471 -14 594 -14 m 599 857 q 479 812 535 857 q 383 688 424 767 q 324 510 343 610 l 772 510 q 775 578 775 543 q 758 724 775 661 q 703 822 742 786 q 599 857 665 857 m 485 58 q 614 108 557 58 q 710 242 671 157 q 764 433 749 326 l 311 433 q 307 340 307 388 q 351 137 307 215 q 485 58 394 58 z "},"Ѣ":{"ha":1058,"x_min":38,"x_max":1017,"o":"m 213 690 l 60 515 l 38 515 l 82 767 l 338 767 l 350 836 l 236 894 l 240 917 l 779 917 l 775 894 l 614 836 l 601 767 l 899 767 l 854 515 l 832 515 l 740 690 l 588 690 l 549 468 l 621 468 q 910 416 804 468 q 1017 256 1017 364 q 958 125 1017 183 q 799 33 899 67 q 576 0 700 0 l 79 0 l 83 22 l 217 81 l 324 690 l 213 690 m 481 76 l 533 76 q 705 130 644 76 q 765 257 765 183 q 714 361 765 331 q 565 392 663 392 l 536 392 l 481 76 z "},"Ѳ":{"ha":1082,"x_min":56,"x_max":1026,"o":"m 471 -14 q 244 35 336 -14 q 103 173 151 85 q 56 376 56 261 q 98 594 56 493 q 216 770 140 694 q 392 888 292 846 q 610 931 493 931 q 837 881 744 931 q 978 744 929 832 q 1026 542 1026 656 q 986 324 1026 425 q 872 147 946 224 q 696 28 797 71 q 471 -14 594 -14 m 599 857 q 474 808 531 857 q 376 674 417 758 q 318 483 336 589 q 449 540 394 526 q 542 550 503 554 q 611 533 582 546 q 665 508 640 521 q 715 494 689 496 q 772 511 740 493 q 775 578 775 544 q 758 724 775 661 q 703 822 742 786 q 599 857 664 857 m 485 58 q 616 110 558 58 q 713 249 674 161 q 767 446 751 336 q 644 384 694 400 q 558 372 593 368 q 495 390 522 376 q 442 415 468 403 q 385 430 417 428 q 310 413 354 432 q 307 340 307 376 q 351 137 307 215 q 485 58 394 58 z "},"Ѵ":{"ha":1054,"x_min":81,"x_max":1113,"o":"m 807 563 l 479 -7 l 356 -7 l 161 844 l 81 894 l 86 917 l 517 917 l 511 894 l 406 846 l 536 269 l 549 269 l 732 603 q 771 673 744 628 q 829 767 797 718 q 896 850 861 817 q 985 913 942 894 q 1068 931 1028 931 q 1106 922 1100 931 q 1108 890 1113 914 l 1086 764 l 1076 756 l 1040 756 q 972 751 1000 756 q 922 727 944 746 q 872 669 899 708 q 807 563 846 631 z "},"ȷ":{"ha":410,"x_min":-107,"x_max":365,"o":"m -107 -319 l -107 -292 q -45 -244 -69 -265 q -6 -197 -21 -224 q 18 -126 8 -169 q 39 -14 28 -83 l 119 529 l 39 575 l 39 597 l 361 653 l 365 653 l 274 54 q 165 -166 254 -78 q -107 -319 76 -254 z "},"ĸ":{"ha":763,"x_min":24,"x_max":744,"o":"m 28 0 l 119 529 l 24 575 l 24 597 l 363 653 l 367 653 l 319 379 q 483 540 417 481 q 592 626 549 600 q 665 653 636 653 q 694 649 682 653 q 713 640 706 646 q 724 628 719 635 q 729 611 729 621 q 726 600 729 608 l 682 488 l 676 488 l 657 496 q 628 505 647 500 q 582 510 608 510 q 532 501 553 510 q 492 479 511 493 l 478 469 l 599 188 q 622 142 610 161 q 651 124 633 124 q 685 144 669 124 q 714 218 701 164 l 744 211 q 674 38 721 90 q 557 -14 626 -14 q 455 24 489 -14 q 401 115 421 61 l 315 353 l 254 0 l 28 0 z "},"ẗ":{"ha":506,"x_min":39,"x_max":586,"o":"m 224 -14 q 99 32 143 -14 q 54 167 54 78 q 56 202 54 183 q 61 240 58 221 l 119 578 l 39 578 l 44 604 l 213 683 l 344 782 l 381 782 l 356 639 l 521 639 l 521 578 l 344 578 l 290 272 q 285 234 286 246 q 283 214 283 222 q 338 151 283 151 q 399 177 369 151 q 454 271 428 203 l 486 261 q 381 62 447 138 q 224 -14 315 -14 m 229 915 q 171 940 193 915 q 149 996 149 964 q 171 1052 149 1028 q 229 1076 193 1076 q 288 1052 265 1076 q 310 996 310 1028 q 288 940 310 964 q 229 915 265 915 m 506 915 q 448 940 471 915 q 425 996 425 964 q 448 1052 425 1028 q 506 1076 471 1076 q 563 1052 540 1076 q 586 996 586 1028 q 563 940 586 964 q 506 915 540 915 z "},"a":{"ha":881,"x_min":-62,"x_max":786,"o":"m -62 0 l -58 22 l 14 65 l 432 785 l 557 785 l 715 74 l 786 22 l 782 0 l 374 0 l 376 22 l 474 69 l 438 240 l 206 240 l 104 65 l 183 22 l 179 0 l -62 0 m 246 311 l 422 311 l 374 533 l 246 311 z "},"b":{"ha":804,"x_min":-42,"x_max":757,"o":"m -42 0 l -37 22 l 68 81 l 175 697 l 90 756 l 94 778 l 494 778 q 683 735 608 778 q 757 607 757 692 q 693 483 757 536 q 511 419 629 431 q 696 365 635 411 q 757 244 757 318 q 718 127 757 183 q 602 35 679 71 q 410 0 525 0 l -42 0 m 407 701 l 406 701 l 360 439 l 374 439 q 482 483 443 439 q 521 601 521 528 q 495 676 521 650 q 407 701 469 701 m 374 369 l 349 369 l 297 76 l 340 76 q 439 101 400 76 q 496 165 478 126 q 514 246 514 204 q 481 338 514 307 q 374 369 449 369 z "},"c":{"ha":826,"x_min":56,"x_max":765,"o":"m 411 -14 q 223 28 303 -14 q 99 142 143 69 q 56 307 56 214 q 94 489 56 401 q 200 645 132 576 q 359 753 268 714 q 556 793 450 793 q 679 777 633 793 q 765 736 725 761 l 746 493 l 724 493 l 626 701 q 595 715 613 710 q 551 719 578 719 q 420 660 479 719 q 326 501 361 601 q 292 275 292 400 q 335 121 292 179 q 454 63 378 63 q 503 67 478 63 q 553 86 528 71 l 711 271 l 733 271 l 681 50 q 559 3 633 19 q 411 -14 485 -14 z "},"d":{"ha":889,"x_min":-42,"x_max":868,"o":"m -42 0 l -37 22 l 64 81 l 171 697 l 92 756 l 96 778 l 465 778 q 764 686 660 778 q 868 443 868 594 q 828 262 868 343 q 719 122 789 181 q 556 31 649 63 q 358 0 464 0 l -42 0 m 406 701 l 403 701 l 293 71 l 346 71 q 490 119 425 71 q 594 255 556 168 q 633 457 633 342 q 572 636 633 571 q 406 701 511 701 z "},"e":{"ha":763,"x_min":-42,"x_max":742,"o":"m -42 0 l -37 22 l 68 81 l 175 697 l 92 756 l 96 778 l 742 778 l 707 572 l 685 572 l 625 701 l 406 701 l 360 435 l 503 435 l 590 532 l 613 532 l 567 274 l 544 274 l 490 369 l 349 369 l 299 76 l 533 76 l 660 258 l 682 258 l 636 0 l -42 0 z "},"f":{"ha":707,"x_min":-42,"x_max":742,"o":"m -42 0 l -37 22 l 68 81 l 175 697 l 92 756 l 96 778 l 742 778 l 707 572 l 685 572 l 625 701 l 406 701 l 360 435 l 489 435 l 576 532 l 599 532 l 553 274 l 531 274 l 476 369 l 349 369 l 299 81 l 406 22 l 403 0 l -42 0 z "},"g":{"ha":842,"x_min":56,"x_max":826,"o":"m 408 -14 q 222 26 301 -14 q 99 137 143 65 q 56 306 56 208 q 97 492 56 404 q 211 648 139 581 q 374 754 283 715 q 563 793 464 793 q 701 777 647 793 q 800 736 756 761 l 778 521 l 756 521 l 665 696 q 628 711 647 706 q 582 717 610 717 q 466 681 519 717 q 374 582 413 644 q 313 440 335 519 q 292 274 292 361 q 333 120 292 176 q 440 64 375 64 q 460 65 449 64 l 499 281 l 414 342 l 418 360 l 826 360 l 822 342 l 728 281 l 690 71 q 569 11 639 36 q 408 -14 499 -14 z "},"h":{"ha":922,"x_min":-42,"x_max":964,"o":"m -42 0 l -37 22 l 67 81 l 174 697 l 90 756 l 94 778 l 501 778 l 497 756 l 404 697 l 360 438 l 582 438 l 628 697 l 554 756 l 558 778 l 964 778 l 960 756 l 857 697 l 749 81 l 832 22 l 828 0 l 421 0 l 425 22 l 519 81 l 569 367 l 347 367 l 297 81 l 374 22 l 369 0 l -42 0 z "},"i":{"ha":474,"x_min":-42,"x_max":515,"o":"m -42 0 l -37 22 l 68 81 l 175 697 l 92 756 l 96 778 l 515 778 l 511 756 l 406 697 l 299 81 l 382 22 l 378 0 l -42 0 z "},"ı":{"ha":474,"x_min":-42,"x_max":515,"o":"m -42 0 l -37 22 l 68 81 l 175 697 l 92 756 l 96 778 l 515 778 l 511 756 l 406 697 l 299 81 l 382 22 l 378 0 l -42 0 z "},"j":{"ha":465,"x_min":-139,"x_max":510,"o":"m -61 -204 q -122 -153 -139 -204 l -96 -74 l -89 -74 q -32 -89 -61 -89 q 15 -74 -6 -89 q 50 -19 35 -60 q 79 103 65 22 l 182 697 l 85 756 l 89 778 l 510 778 l 506 756 l 413 697 l 342 288 q 258 65 317 156 q 136 -89 199 -25 q 22 -183 65 -161 q -61 -204 -22 -204 z "},"k":{"ha":889,"x_min":-42,"x_max":889,"o":"m -42 0 l -37 22 l 68 81 l 175 697 l 92 756 l 96 778 l 517 778 l 511 756 l 406 697 l 299 81 l 383 22 l 378 0 l -42 0 m 539 0 l 356 390 l 676 710 l 607 756 l 611 778 l 889 778 l 883 756 l 800 718 l 549 475 l 758 74 l 833 22 l 829 0 l 539 0 z "},"l":{"ha":701,"x_min":-42,"x_max":653,"o":"m -42 0 l -37 22 l 68 81 l 175 697 l 92 756 l 96 778 l 525 778 l 522 756 l 406 697 l 297 76 l 478 76 l 631 289 l 653 289 l 599 0 l -42 0 z "},"m":{"ha":1133,"x_min":-42,"x_max":1133,"o":"m -42 0 l -37 22 l 67 82 l 197 701 l 108 756 l 113 778 l 451 778 l 556 325 l 807 778 l 1133 778 l 1131 756 l 1028 701 l 958 82 l 1033 22 l 1029 0 l 628 0 l 632 22 l 729 81 l 785 565 l 461 -6 l 394 -6 l 260 582 l 158 81 l 246 22 l 242 0 l -42 0 z "},"n":{"ha":903,"x_min":-35,"x_max":944,"o":"m -35 0 l -31 22 l 75 82 l 185 710 l 99 760 l 103 778 l 360 778 l 668 292 l 739 697 l 619 757 l 622 778 l 944 778 l 942 757 l 838 697 l 714 -6 l 594 -6 l 251 526 l 174 82 l 293 22 l 290 0 l -35 0 z "},"o":{"ha":938,"x_min":56,"x_max":882,"o":"m 410 -14 q 222 27 301 -14 q 99 143 142 68 q 56 319 56 218 q 88 493 56 408 q 183 646 121 578 q 332 753 244 714 q 528 793 419 793 q 715 752 636 793 q 838 636 794 711 q 882 460 882 561 q 849 285 882 369 q 755 133 817 201 q 606 26 693 65 q 410 -14 518 -14 m 417 63 q 512 97 469 63 q 583 192 554 132 q 628 329 613 253 q 643 489 643 406 q 634 603 643 551 q 599 686 625 656 q 524 717 572 717 q 432 681 474 717 q 360 585 390 646 q 314 448 331 525 q 297 289 297 371 q 306 175 297 226 q 341 93 315 124 q 417 63 367 63 z "},"p":{"ha":758,"x_min":-42,"x_max":779,"o":"m -42 0 l -37 22 l 68 81 l 175 697 l 92 756 l 96 778 l 483 778 q 708 731 638 778 q 779 594 779 683 q 737 469 779 525 q 606 378 694 413 q 379 344 517 344 l 344 344 l 299 81 l 407 22 l 403 0 l -42 0 m 407 701 l 356 408 l 367 408 q 497 461 456 408 q 538 594 538 514 q 509 673 538 644 q 426 701 481 701 l 407 701 z "},"q":{"ha":939,"x_min":56,"x_max":967,"o":"m 783 -207 q 650 -190 731 -207 q 477 -127 569 -172 q 296 0 385 -82 q 119 112 183 28 q 56 319 56 196 q 88 493 56 408 q 183 646 121 578 q 332 753 244 714 q 528 793 419 793 q 715 752 636 793 q 838 636 794 711 q 882 460 882 561 q 844 272 882 363 q 734 113 806 182 q 563 10 663 43 q 699 -87 644 -54 q 796 -132 754 -121 q 881 -143 838 -143 q 929 -139 906 -143 q 967 -129 953 -135 l 954 -169 q 879 -197 922 -186 q 783 -207 836 -207 m 417 63 q 512 97 469 63 q 583 192 554 132 q 628 329 613 253 q 643 489 643 406 q 634 603 643 551 q 599 686 625 656 q 524 717 572 717 q 432 681 474 717 q 360 585 390 646 q 314 448 331 525 q 297 289 297 371 q 306 175 297 226 q 341 93 315 124 q 417 63 367 63 z "},"r":{"ha":892,"x_min":-42,"x_max":799,"o":"m -42 0 l -39 22 l 67 81 l 174 697 l 90 756 l 94 778 l 475 778 q 681 733 608 778 q 754 603 754 688 q 710 490 754 538 q 590 411 667 442 l 722 82 l 799 22 l 796 0 l 497 0 l 375 358 l 344 358 l 296 81 l 379 22 l 376 0 l -42 0 m 424 701 l 403 701 l 356 422 l 385 422 q 488 474 451 422 q 525 597 525 525 q 424 701 525 701 z "},"s":{"ha":663,"x_min":14,"x_max":642,"o":"m 258 -14 q 121 3 181 -14 q 14 50 61 19 l 35 254 l 57 254 l 126 100 q 175 74 144 86 q 250 61 206 61 q 348 88 307 61 q 389 161 389 114 q 374 218 389 194 q 324 267 360 242 q 226 332 289 292 q 153 389 181 361 q 114 451 126 417 q 101 538 101 486 q 144 666 101 608 q 262 758 188 724 q 431 793 336 793 q 547 778 492 793 q 642 736 603 764 l 621 535 l 599 535 l 528 683 q 491 707 513 697 q 438 717 469 717 q 350 689 386 717 q 314 611 314 661 q 341 545 314 574 q 438 475 368 517 q 529 410 493 442 q 583 342 565 379 q 601 251 601 306 q 556 117 601 178 q 433 22 511 57 q 258 -14 356 -14 z "},"t":{"ha":781,"x_min":63,"x_max":836,"o":"m 106 0 l 108 22 l 236 81 l 343 701 l 215 701 l 85 506 l 63 506 l 108 778 l 836 778 l 790 506 l 769 506 l 703 701 l 574 701 l 467 81 l 574 22 l 571 0 l 106 0 z "},"u":{"ha":943,"x_min":122,"x_max":1000,"o":"m 457 -14 q 216 58 294 -14 q 138 260 138 131 q 140 307 138 283 q 147 357 143 331 l 208 697 l 122 756 l 126 778 l 547 778 l 543 756 l 438 697 l 372 321 q 368 288 369 304 q 367 258 367 272 q 408 139 367 181 q 529 97 449 97 q 672 154 624 97 q 739 314 721 211 l 804 697 l 719 756 l 724 778 l 1000 778 l 997 756 l 890 697 l 832 346 q 758 133 810 211 q 629 20 706 54 q 457 -14 553 -14 z "},"v":{"ha":843,"x_min":81,"x_max":929,"o":"m 310 -6 l 151 708 l 81 756 l 85 778 l 493 778 l 490 756 l 393 708 l 490 261 l 501 261 l 763 714 l 683 756 l 688 778 l 929 778 l 925 756 l 856 718 l 435 -6 l 310 -6 z "},"w":{"ha":1153,"x_min":81,"x_max":1239,"o":"m 239 -6 l 156 708 l 81 757 l 85 778 l 496 778 l 494 757 l 397 704 l 433 328 l 444 328 l 682 785 l 814 785 l 894 328 l 904 328 l 1064 710 l 982 757 l 986 778 l 1239 778 l 1236 757 l 1156 713 l 843 -6 l 710 -6 l 631 494 l 622 494 l 372 -6 l 239 -6 z "},"x":{"ha":863,"x_min":-64,"x_max":903,"o":"m -64 0 l -60 22 l 40 71 l 322 365 l 144 713 l 76 756 l 81 778 l 500 778 l 496 756 l 404 713 l 404 706 l 510 501 l 701 707 l 703 713 l 624 756 l 626 778 l 903 778 l 899 756 l 817 717 l 544 432 l 729 75 l 804 22 l 801 0 l 386 0 l 389 22 l 472 69 l 472 74 l 360 293 l 154 75 l 150 69 l 225 22 l 221 0 l -64 0 z "},"y":{"ha":840,"x_min":81,"x_max":940,"o":"m 171 0 l 175 22 l 281 81 l 329 361 l 144 717 l 81 756 l 85 778 l 493 778 l 488 756 l 399 711 l 397 707 l 535 449 l 744 707 l 746 711 l 668 756 l 672 778 l 940 778 l 938 756 l 856 715 l 560 364 l 511 81 l 594 22 l 590 0 l 171 0 z "},"z":{"ha":740,"x_min":-14,"x_max":746,"o":"m -14 0 l -7 43 l 464 701 l 238 701 l 104 519 l 82 519 l 131 778 l 746 778 l 739 735 l 269 76 l 515 76 l 656 271 l 678 271 l 626 0 l -14 0 z "},"à":{"ha":881,"x_min":-62,"x_max":786,"o":"m -62 0 l -58 22 l 14 65 l 432 785 l 557 785 l 715 74 l 786 22 l 782 0 l 374 0 l 376 22 l 474 69 l 438 240 l 206 240 l 104 65 l 183 22 l 179 0 l -62 0 m 246 311 l 422 311 l 374 533 l 246 311 m 492 882 l 281 1040 q 251 1084 253 1061 q 251 1128 249 1107 l 408 1128 l 526 882 l 492 882 z "},"á":{"ha":881,"x_min":-62,"x_max":793,"o":"m -62 0 l -58 22 l 14 65 l 432 785 l 557 785 l 715 74 l 786 22 l 782 0 l 374 0 l 376 22 l 474 69 l 438 240 l 206 240 l 104 65 l 183 22 l 179 0 l -62 0 m 246 311 l 422 311 l 374 533 l 246 311 m 490 882 l 618 1128 l 793 1128 q 778 1086 789 1107 q 733 1040 767 1065 l 525 882 l 490 882 z "},"â":{"ha":881,"x_min":-62,"x_max":786,"o":"m -62 0 l -58 22 l 14 65 l 432 785 l 557 785 l 715 74 l 786 22 l 782 0 l 374 0 l 376 22 l 474 69 l 438 240 l 206 240 l 104 65 l 183 22 l 179 0 l -62 0 m 246 311 l 422 311 l 374 533 l 246 311 m 285 882 l 514 1128 l 589 1128 l 721 882 l 686 882 l 528 994 l 319 882 l 285 882 z "},"ã":{"ha":881,"x_min":-62,"x_max":786,"o":"m -62 0 l -58 22 l 14 65 l 432 785 l 557 785 l 715 74 l 786 22 l 782 0 l 374 0 l 376 22 l 474 69 l 438 240 l 206 240 l 104 65 l 183 22 l 179 0 l -62 0 m 246 311 l 422 311 l 374 533 l 246 311 m 288 904 q 352 1033 325 990 q 404 1090 379 1076 q 460 1104 429 1104 q 515 1091 490 1104 q 563 1060 540 1078 q 607 1030 585 1043 q 653 1017 629 1017 q 692 1033 675 1017 q 736 1104 708 1049 l 771 1104 q 706 975 733 1018 q 654 918 679 932 q 599 904 629 904 q 543 917 568 904 q 496 948 518 931 q 451 978 474 965 q 406 992 429 992 q 367 976 385 992 q 322 904 350 960 l 288 904 z "},"ä":{"ha":881,"x_min":-62,"x_max":786,"o":"m -62 0 l -58 22 l 14 65 l 432 785 l 557 785 l 715 74 l 786 22 l 782 0 l 374 0 l 376 22 l 474 69 l 438 240 l 206 240 l 104 65 l 183 22 l 179 0 l -62 0 m 246 311 l 422 311 l 374 533 l 246 311 m 392 922 q 333 947 356 922 q 311 1003 311 971 q 333 1059 311 1035 q 392 1083 356 1083 q 450 1059 428 1083 q 472 1003 472 1035 q 450 947 472 971 q 392 922 428 922 m 668 922 q 610 947 633 922 q 588 1003 588 971 q 610 1059 588 1035 q 668 1083 633 1083 q 726 1059 703 1083 q 749 1003 749 1035 q 726 947 749 971 q 668 922 703 922 z "},"ā":{"ha":881,"x_min":-62,"x_max":786,"o":"m -62 0 l -58 22 l 14 65 l 432 785 l 557 785 l 715 74 l 786 22 l 782 0 l 374 0 l 376 22 l 474 69 l 438 240 l 206 240 l 104 65 l 183 22 l 179 0 l -62 0 m 246 311 l 422 311 l 374 533 l 246 311 m 308 957 l 325 1049 l 750 1049 l 733 957 l 308 957 z "},"ă":{"ha":881,"x_min":-62,"x_max":786,"o":"m -62 0 l -58 22 l 14 65 l 432 785 l 557 785 l 715 74 l 786 22 l 782 0 l 374 0 l 376 22 l 474 69 l 438 240 l 206 240 l 104 65 l 183 22 l 179 0 l -62 0 m 246 311 l 422 311 l 374 533 l 246 311 m 510 896 q 363 956 406 896 q 318 1128 321 1015 l 353 1128 q 416 1030 375 1051 q 531 1008 457 1008 q 652 1032 601 1008 q 744 1128 703 1056 l 779 1128 q 667 948 731 1000 q 510 896 604 896 z "},"å":{"ha":881,"x_min":-62,"x_max":786,"o":"m -62 0 l -58 22 l 14 65 l 432 785 l 557 785 l 715 74 l 786 22 l 782 0 l 374 0 l 376 22 l 474 69 l 438 240 l 206 240 l 104 65 l 183 22 l 179 0 l -62 0 m 246 311 l 422 311 l 374 533 l 246 311 m 515 885 q 437 914 461 885 q 413 989 413 943 q 449 1084 413 1044 q 544 1124 486 1124 q 623 1094 597 1124 q 649 1019 649 1065 q 612 924 649 964 q 515 885 575 885 m 521 918 q 560 946 544 918 q 575 1022 575 974 q 540 1090 575 1090 q 501 1063 517 1090 q 486 986 486 1035 q 521 918 486 918 z "},"ǻ":{"ha":881,"x_min":-62,"x_max":849,"o":"m -62 0 l -58 22 l 14 65 l 432 785 l 557 785 l 715 74 l 786 22 l 782 0 l 374 0 l 376 22 l 474 69 l 438 240 l 206 240 l 104 65 l 183 22 l 179 0 l -62 0 m 246 311 l 422 311 l 374 533 l 246 311 m 515 885 q 437 914 461 885 q 413 989 413 943 q 449 1084 413 1044 q 544 1124 486 1124 q 623 1094 597 1124 q 649 1019 649 1065 q 612 924 649 964 q 515 885 575 885 m 521 918 q 560 946 544 918 q 575 1022 575 974 q 540 1090 575 1090 q 501 1063 517 1090 q 486 986 486 1035 q 521 918 486 918 m 546 1192 l 674 1438 l 849 1438 q 833 1396 844 1417 q 789 1350 822 1375 l 581 1192 l 546 1192 z "},"ạ":{"ha":881,"x_min":-62,"x_max":786,"o":"m -62 0 l -58 22 l 14 65 l 432 785 l 557 785 l 715 74 l 786 22 l 782 0 l 374 0 l 376 22 l 474 69 l 438 240 l 206 240 l 104 65 l 183 22 l 179 0 l -62 0 m 246 311 l 422 311 l 374 533 l 246 311 m 253 -318 q 176 -289 207 -318 q 146 -212 146 -260 q 176 -135 146 -165 q 253 -104 207 -104 q 330 -135 300 -104 q 360 -212 360 -165 q 330 -289 360 -260 q 253 -318 300 -318 z "},"ą":{"ha":881,"x_min":-62,"x_max":786,"o":"m -62 0 l -58 22 l 14 65 l 432 785 l 557 785 l 715 74 l 786 22 l 782 0 l 619 0 q 579 -88 596 -42 q 563 -181 563 -135 q 636 -254 563 -254 q 667 -248 650 -254 q 694 -232 683 -242 l 700 -232 l 692 -262 q 638 -314 671 -294 q 560 -333 606 -333 q 467 -303 500 -333 q 433 -222 433 -274 q 474 -105 433 -161 q 568 0 515 -49 l 374 0 l 376 22 l 474 69 l 438 240 l 206 240 l 104 65 l 183 22 l 179 0 l -62 0 m 246 311 l 422 311 l 374 533 l 246 311 z "},"ȁ":{"ha":881,"x_min":-62,"x_max":786,"o":"m -62 0 l -58 22 l 14 65 l 432 785 l 557 785 l 715 74 l 786 22 l 782 0 l 374 0 l 376 22 l 474 69 l 438 240 l 206 240 l 104 65 l 183 22 l 179 0 l -62 0 m 246 311 l 422 311 l 374 533 l 246 311 m 590 882 l 417 1040 q 388 1128 379 1076 l 531 1128 l 625 882 l 590 882 m 379 882 l 179 1040 q 150 1081 156 1058 q 149 1128 144 1103 l 292 1128 l 414 882 l 379 882 z "},"ȃ":{"ha":881,"x_min":-62,"x_max":786,"o":"m -62 0 l -58 22 l 14 65 l 432 785 l 557 785 l 715 74 l 786 22 l 782 0 l 374 0 l 376 22 l 474 69 l 438 240 l 206 240 l 104 65 l 183 22 l 179 0 l -62 0 m 246 311 l 422 311 l 374 533 l 246 311 m 289 896 q 401 1076 338 1024 q 558 1128 464 1128 q 705 1068 663 1128 q 750 896 747 1008 l 715 896 q 652 994 693 972 q 538 1015 611 1015 q 416 992 467 1015 q 324 896 365 968 l 289 896 z "},"ắ":{"ha":881,"x_min":-62,"x_max":786,"o":"m -62 0 l -58 22 l 14 65 l 432 785 l 557 785 l 715 74 l 786 22 l 782 0 l 374 0 l 376 22 l 474 69 l 438 240 l 206 240 l 104 65 l 183 22 l 179 0 l -62 0 m 246 311 l 422 311 l 374 533 l 246 311 z "},"ặ":{"ha":881,"x_min":-62,"x_max":786,"o":"m -62 0 l -58 22 l 14 65 l 432 785 l 557 785 l 715 74 l 786 22 l 782 0 l 374 0 l 376 22 l 474 69 l 438 240 l 206 240 l 104 65 l 183 22 l 179 0 l -62 0 m 246 311 l 422 311 l 374 533 l 246 311 m 510 896 q 363 956 406 896 q 318 1128 321 1015 l 353 1128 q 416 1030 375 1051 q 531 1008 457 1008 q 652 1032 601 1008 q 744 1128 703 1056 l 779 1128 q 667 948 731 1000 q 510 896 604 896 m 253 -318 q 176 -289 207 -318 q 146 -212 146 -260 q 176 -135 146 -165 q 253 -104 207 -104 q 330 -135 300 -104 q 360 -212 360 -165 q 330 -289 360 -260 q 253 -318 300 -318 z "},"ằ":{"ha":881,"x_min":-62,"x_max":786,"o":"m -62 0 l -58 22 l 14 65 l 432 785 l 557 785 l 715 74 l 786 22 l 782 0 l 374 0 l 376 22 l 474 69 l 438 240 l 206 240 l 104 65 l 183 22 l 179 0 l -62 0 m 246 311 l 422 311 l 374 533 l 246 311 z "},"ẳ":{"ha":881,"x_min":-62,"x_max":786,"o":"m -62 0 l -58 22 l 14 65 l 432 785 l 557 785 l 715 74 l 786 22 l 782 0 l 374 0 l 376 22 l 474 69 l 438 240 l 206 240 l 104 65 l 183 22 l 179 0 l -62 0 m 246 311 l 422 311 l 374 533 l 246 311 z "},"ẵ":{"ha":881,"x_min":-62,"x_max":804,"o":"m -62 0 l -58 22 l 14 65 l 432 785 l 557 785 l 715 74 l 786 22 l 782 0 l 374 0 l 376 22 l 474 69 l 438 240 l 206 240 l 104 65 l 183 22 l 179 0 l -62 0 m 246 311 l 422 311 l 374 533 l 246 311 z "},"ấ":{"ha":881,"x_min":-62,"x_max":935,"o":"m -62 0 l -58 22 l 14 65 l 432 785 l 557 785 l 715 74 l 786 22 l 782 0 l 374 0 l 376 22 l 474 69 l 438 240 l 206 240 l 104 65 l 183 22 l 179 0 l -62 0 m 246 311 l 422 311 l 374 533 l 246 311 m 683 1031 l 775 1229 l 935 1229 q 919 1187 931 1208 q 875 1142 908 1165 l 718 1031 l 683 1031 m 285 882 l 514 1128 l 589 1128 l 721 882 l 686 882 l 528 994 l 319 882 l 285 882 z "},"ậ":{"ha":881,"x_min":-62,"x_max":786,"o":"m -62 0 l -58 22 l 14 65 l 432 785 l 557 785 l 715 74 l 786 22 l 782 0 l 374 0 l 376 22 l 474 69 l 438 240 l 206 240 l 104 65 l 183 22 l 179 0 l -62 0 m 246 311 l 422 311 l 374 533 l 246 311 m 285 882 l 514 1128 l 589 1128 l 721 882 l 686 882 l 528 994 l 319 882 l 285 882 m 253 -318 q 176 -289 207 -318 q 146 -212 146 -260 q 176 -135 146 -165 q 253 -104 207 -104 q 330 -135 300 -104 q 360 -212 360 -165 q 330 -289 360 -260 q 253 -318 300 -318 z "},"ầ":{"ha":881,"x_min":-62,"x_max":786,"o":"m -62 0 l -58 22 l 14 65 l 432 785 l 557 785 l 715 74 l 786 22 l 782 0 l 374 0 l 376 22 l 474 69 l 438 240 l 206 240 l 104 65 l 183 22 l 179 0 l -62 0 m 246 311 l 422 311 l 374 533 l 246 311 m 340 1031 l 183 1142 q 140 1179 153 1164 q 131 1229 126 1194 l 283 1229 l 375 1031 l 340 1031 m 285 882 l 514 1128 l 589 1128 l 721 882 l 686 882 l 528 994 l 319 882 l 285 882 z "},"ẩ":{"ha":881,"x_min":-62,"x_max":786,"o":"m -62 0 l -58 22 l 14 65 l 432 785 l 557 785 l 715 74 l 786 22 l 782 0 l 374 0 l 376 22 l 474 69 l 438 240 l 206 240 l 104 65 l 183 22 l 179 0 l -62 0 m 246 311 l 422 311 l 374 533 l 246 311 z "},"ẫ":{"ha":881,"x_min":-62,"x_max":829,"o":"m -62 0 l -58 22 l 14 65 l 432 785 l 557 785 l 715 74 l 786 22 l 782 0 l 374 0 l 376 22 l 474 69 l 438 240 l 206 240 l 104 65 l 183 22 l 179 0 l -62 0 m 246 311 l 422 311 l 374 533 l 246 311 z "},"ả":{"ha":881,"x_min":-62,"x_max":786,"o":"m -62 0 l -58 22 l 14 65 l 432 785 l 557 785 l 715 74 l 786 22 l 782 0 l 374 0 l 376 22 l 474 69 l 438 240 l 206 240 l 104 65 l 183 22 l 179 0 l -62 0 m 246 311 l 422 311 l 374 533 l 246 311 m 449 901 l 449 903 q 515 930 496 914 q 535 968 535 946 q 517 1005 535 989 q 457 1029 499 1021 l 493 1128 q 593 1086 563 1118 q 624 1017 624 1054 q 580 930 624 960 q 458 888 536 900 l 449 901 z "},"æ":{"ha":1185,"x_min":-62,"x_max":1164,"o":"m -62 0 l -58 22 l 22 67 l 590 778 l 1164 778 l 1129 572 l 1107 572 l 1047 701 l 828 701 l 783 440 l 926 440 l 1014 538 l 1036 538 l 988 268 l 965 268 l 911 364 l 769 364 l 721 76 l 956 76 l 1082 258 l 1104 258 l 1058 0 l 381 0 l 385 22 l 490 81 l 518 240 l 260 240 l 118 64 l 190 22 l 186 0 l -62 0 m 317 311 l 531 311 l 589 649 l 317 311 z "},"ǽ":{"ha":1185,"x_min":-62,"x_max":1164,"o":"m -62 0 l -58 22 l 22 67 l 590 778 l 1164 778 l 1129 572 l 1107 572 l 1047 701 l 828 701 l 783 440 l 926 440 l 1014 538 l 1036 538 l 988 268 l 965 268 l 911 364 l 769 364 l 721 76 l 956 76 l 1082 258 l 1104 258 l 1058 0 l 381 0 l 385 22 l 490 81 l 518 240 l 260 240 l 118 64 l 190 22 l 186 0 l -62 0 m 317 311 l 531 311 l 589 649 l 317 311 m 736 882 l 864 1128 l 1039 1128 q 1024 1086 1035 1107 q 979 1040 1013 1065 l 771 882 l 736 882 z "},"ć":{"ha":826,"x_min":56,"x_max":829,"o":"m 411 -14 q 223 28 303 -14 q 99 142 143 69 q 56 307 56 214 q 94 489 56 401 q 200 645 132 576 q 359 753 268 714 q 556 793 450 793 q 679 777 633 793 q 765 736 725 761 l 746 493 l 724 493 l 626 701 q 595 715 613 710 q 551 719 578 719 q 420 660 479 719 q 326 501 361 601 q 292 275 292 400 q 335 121 292 179 q 454 63 378 63 q 503 67 478 63 q 553 86 528 71 l 711 271 l 733 271 l 681 50 q 559 3 633 19 q 411 -14 485 -14 m 526 882 l 654 1128 l 829 1128 q 814 1086 825 1107 q 769 1040 803 1065 l 561 882 l 526 882 z "},"ĉ":{"ha":826,"x_min":56,"x_max":765,"o":"m 411 -14 q 223 28 303 -14 q 99 142 143 69 q 56 307 56 214 q 94 489 56 401 q 200 645 132 576 q 359 753 268 714 q 556 793 450 793 q 679 777 633 793 q 765 736 725 761 l 746 493 l 724 493 l 626 701 q 595 715 613 710 q 551 719 578 719 q 420 660 479 719 q 326 501 361 601 q 292 275 292 400 q 335 121 292 179 q 454 63 378 63 q 503 67 478 63 q 553 86 528 71 l 711 271 l 733 271 l 681 50 q 559 3 633 19 q 411 -14 485 -14 m 321 882 l 550 1128 l 625 1128 l 757 882 l 722 882 l 564 994 l 356 882 l 321 882 z "},"č":{"ha":826,"x_min":56,"x_max":807,"o":"m 411 -14 q 223 28 303 -14 q 99 142 143 69 q 56 307 56 214 q 94 489 56 401 q 200 645 132 576 q 359 753 268 714 q 556 793 450 793 q 679 777 633 793 q 765 736 725 761 l 746 493 l 724 493 l 626 701 q 595 715 613 710 q 551 719 578 719 q 420 660 479 719 q 326 501 361 601 q 292 275 292 400 q 335 121 292 179 q 454 63 378 63 q 503 67 478 63 q 553 86 528 71 l 711 271 l 733 271 l 681 50 q 559 3 633 19 q 411 -14 485 -14 m 514 882 l 371 1128 l 406 1128 l 564 1015 l 772 1128 l 807 1128 l 589 882 l 514 882 z "},"ċ":{"ha":826,"x_min":56,"x_max":765,"o":"m 411 -14 q 223 28 303 -14 q 99 142 143 69 q 56 307 56 214 q 94 489 56 401 q 200 645 132 576 q 359 753 268 714 q 556 793 450 793 q 679 777 633 793 q 765 736 725 761 l 746 493 l 724 493 l 626 701 q 595 715 613 710 q 551 719 578 719 q 420 660 479 719 q 326 501 361 601 q 292 275 292 400 q 335 121 292 179 q 454 63 378 63 q 503 67 478 63 q 553 86 528 71 l 711 271 l 733 271 l 681 50 q 559 3 633 19 q 411 -14 485 -14 m 564 899 q 488 928 518 899 q 457 1004 457 957 q 488 1082 457 1051 q 564 1113 518 1113 q 641 1082 611 1113 q 671 1004 671 1051 q 641 928 671 957 q 564 899 611 899 z "},"ç":{"ha":826,"x_min":56,"x_max":765,"o":"m 371 -333 q 312 -326 336 -333 q 269 -307 288 -318 l 275 -276 l 281 -276 q 313 -286 293 -283 q 349 -289 332 -289 q 405 -274 383 -289 q 426 -232 426 -258 q 401 -185 426 -207 q 306 -149 375 -162 l 385 -14 q 210 34 283 -8 q 96 147 136 76 q 56 307 56 218 q 94 489 56 401 q 200 645 132 576 q 359 753 268 714 q 556 793 450 793 q 679 777 633 793 q 765 736 725 761 l 746 493 l 724 493 l 626 701 q 595 715 613 710 q 551 719 578 719 q 420 660 479 719 q 326 501 361 601 q 292 275 292 400 q 335 121 292 179 q 454 63 378 63 q 503 67 478 63 q 553 86 528 71 l 711 271 l 733 271 l 681 50 q 570 5 638 21 q 435 -14 503 -11 l 408 -60 q 509 -111 479 -76 q 539 -190 539 -146 q 492 -293 539 -253 q 371 -333 444 -333 z "},"ḉ":{"ha":826,"x_min":56,"x_max":829,"o":"m 526 882 l 654 1128 l 829 1128 q 814 1086 825 1107 q 769 1040 803 1065 l 561 882 l 526 882 m 371 -333 q 312 -326 336 -333 q 269 -307 288 -318 l 275 -276 l 281 -276 q 313 -286 293 -283 q 349 -289 332 -289 q 405 -274 383 -289 q 426 -232 426 -258 q 401 -185 426 -207 q 306 -149 375 -162 l 385 -14 q 210 34 283 -8 q 96 147 136 76 q 56 307 56 218 q 94 489 56 401 q 200 645 132 576 q 359 753 268 714 q 556 793 450 793 q 679 777 633 793 q 765 736 725 761 l 746 493 l 724 493 l 626 701 q 595 715 613 710 q 551 719 578 719 q 420 660 479 719 q 326 501 361 601 q 292 275 292 400 q 335 121 292 179 q 454 63 378 63 q 503 67 478 63 q 553 86 528 71 l 711 271 l 733 271 l 681 50 q 570 5 638 21 q 435 -14 503 -11 l 408 -60 q 509 -111 479 -76 q 539 -190 539 -146 q 492 -293 539 -253 q 371 -333 444 -333 z "},"ď":{"ha":889,"x_min":-42,"x_max":868,"o":"m -42 0 l -37 22 l 64 81 l 171 697 l 92 756 l 96 778 l 465 778 q 764 686 660 778 q 868 443 868 594 q 828 262 868 343 q 719 122 789 181 q 556 31 649 63 q 358 0 464 0 l -42 0 m 406 701 l 403 701 l 293 71 l 346 71 q 490 119 425 71 q 594 255 556 168 q 633 457 633 342 q 572 636 633 571 q 406 701 511 701 m 449 882 l 306 1128 l 340 1128 l 499 1015 l 707 1128 l 742 1128 l 524 882 l 449 882 z "},"đ":{"ha":889,"x_min":-42,"x_max":868,"o":"m -42 0 l -37 22 l 64 81 l 114 367 l 24 367 l 36 436 l 125 436 l 171 697 l 92 756 l 96 778 l 465 778 q 764 686 660 778 q 868 443 868 594 q 828 262 868 343 q 719 122 789 181 q 556 31 649 63 q 358 0 464 0 l -42 0 m 472 367 l 344 367 l 293 71 l 346 71 q 490 119 425 71 q 594 255 556 168 q 633 457 633 342 q 572 636 633 571 q 406 701 511 701 l 403 701 l 357 436 l 485 436 l 472 367 z "},"ḍ":{"ha":889,"x_min":-42,"x_max":868,"o":"m -42 0 l -37 22 l 64 81 l 171 697 l 92 756 l 96 778 l 465 778 q 764 686 660 778 q 868 443 868 594 q 828 262 868 343 q 719 122 789 181 q 556 31 649 63 q 358 0 464 0 l -42 0 m 406 701 l 403 701 l 293 71 l 346 71 q 490 119 425 71 q 594 255 556 168 q 633 457 633 342 q 572 636 633 571 q 406 701 511 701 m 325 -318 q 249 -289 279 -318 q 218 -212 218 -260 q 249 -135 218 -165 q 325 -104 279 -104 q 402 -135 372 -104 q 432 -212 432 -165 q 402 -289 432 -260 q 325 -318 372 -318 z "},"ḏ":{"ha":889,"x_min":-42,"x_max":868,"o":"m -42 0 l -37 22 l 64 81 l 171 697 l 92 756 l 96 778 l 465 778 q 764 686 660 778 q 868 443 868 594 q 828 262 868 343 q 719 122 789 181 q 556 31 649 63 q 358 0 464 0 l -42 0 m 406 701 l 403 701 l 293 71 l 346 71 q 490 119 425 71 q 594 255 556 168 q 633 457 633 342 q 572 636 633 571 q 406 701 511 701 m 104 -253 l 121 -161 l 546 -161 l 529 -253 l 104 -253 z "},"è":{"ha":763,"x_min":-42,"x_max":742,"o":"m -42 0 l -37 22 l 68 81 l 175 697 l 92 756 l 96 778 l 742 778 l 707 572 l 685 572 l 625 701 l 406 701 l 360 435 l 503 435 l 590 532 l 613 532 l 567 274 l 544 274 l 490 369 l 349 369 l 299 76 l 533 76 l 660 258 l 682 258 l 636 0 l -42 0 m 454 882 l 243 1040 q 213 1084 215 1061 q 214 1128 211 1107 l 371 1128 l 489 882 l 454 882 z "},"é":{"ha":763,"x_min":-42,"x_max":756,"o":"m -42 0 l -37 22 l 68 81 l 175 697 l 92 756 l 96 778 l 742 778 l 707 572 l 685 572 l 625 701 l 406 701 l 360 435 l 503 435 l 590 532 l 613 532 l 567 274 l 544 274 l 490 369 l 349 369 l 299 76 l 533 76 l 660 258 l 682 258 l 636 0 l -42 0 m 453 882 l 581 1128 l 756 1128 q 740 1086 751 1107 q 696 1040 729 1065 l 488 882 l 453 882 z "},"ê":{"ha":763,"x_min":-42,"x_max":742,"o":"m -42 0 l -37 22 l 68 81 l 175 697 l 92 756 l 96 778 l 742 778 l 707 572 l 685 572 l 625 701 l 406 701 l 360 435 l 503 435 l 590 532 l 613 532 l 567 274 l 544 274 l 490 369 l 349 369 l 299 76 l 533 76 l 660 258 l 682 258 l 636 0 l -42 0 m 247 882 l 476 1128 l 551 1128 l 683 882 l 649 882 l 490 994 l 282 882 l 247 882 z "},"ě":{"ha":763,"x_min":-42,"x_max":742,"o":"m -42 0 l -37 22 l 68 81 l 175 697 l 92 756 l 96 778 l 742 778 l 707 572 l 685 572 l 625 701 l 406 701 l 360 435 l 503 435 l 590 532 l 613 532 l 567 274 l 544 274 l 490 369 l 349 369 l 299 76 l 533 76 l 660 258 l 682 258 l 636 0 l -42 0 m 440 882 l 297 1128 l 332 1128 l 490 1015 l 699 1128 l 733 1128 l 515 882 l 440 882 z "},"ẽ":{"ha":763,"x_min":-42,"x_max":742,"o":"m -42 0 l -37 22 l 68 81 l 175 697 l 92 756 l 96 778 l 742 778 l 707 572 l 685 572 l 625 701 l 406 701 l 360 435 l 503 435 l 590 532 l 613 532 l 567 274 l 544 274 l 490 369 l 349 369 l 299 76 l 533 76 l 660 258 l 682 258 l 636 0 l -42 0 m 250 904 q 315 1033 288 990 q 367 1090 342 1076 q 422 1104 392 1104 q 478 1091 453 1104 q 525 1060 503 1078 q 569 1030 547 1043 q 615 1017 592 1017 q 654 1033 638 1017 q 699 1104 671 1049 l 733 1104 q 669 975 696 1018 q 617 918 642 932 q 561 904 592 904 q 506 917 531 904 q 458 948 481 931 q 414 978 436 965 q 368 992 392 992 q 330 976 347 992 q 285 904 313 960 l 250 904 z "},"ë":{"ha":763,"x_min":-42,"x_max":742,"o":"m -42 0 l -37 22 l 68 81 l 175 697 l 92 756 l 96 778 l 742 778 l 707 572 l 685 572 l 625 701 l 406 701 l 360 435 l 503 435 l 590 532 l 613 532 l 567 274 l 544 274 l 490 369 l 349 369 l 299 76 l 533 76 l 660 258 l 682 258 l 636 0 l -42 0 m 354 922 q 296 947 318 922 q 274 1003 274 971 q 296 1059 274 1035 q 354 1083 318 1083 q 413 1059 390 1083 q 435 1003 435 1035 q 413 947 435 971 q 354 922 390 922 m 631 922 q 573 947 596 922 q 550 1003 550 971 q 573 1059 550 1035 q 631 1083 596 1083 q 688 1059 665 1083 q 711 1003 711 1035 q 688 947 711 971 q 631 922 665 922 z "},"ē":{"ha":763,"x_min":-42,"x_max":742,"o":"m -42 0 l -37 22 l 68 81 l 175 697 l 92 756 l 96 778 l 742 778 l 707 572 l 685 572 l 625 701 l 406 701 l 360 435 l 503 435 l 590 532 l 613 532 l 567 274 l 544 274 l 490 369 l 349 369 l 299 76 l 533 76 l 660 258 l 682 258 l 636 0 l -42 0 m 271 957 l 288 1049 l 713 1049 l 696 957 l 271 957 z "},"ĕ":{"ha":763,"x_min":-42,"x_max":742,"o":"m -42 0 l -37 22 l 68 81 l 175 697 l 92 756 l 96 778 l 742 778 l 707 572 l 685 572 l 625 701 l 406 701 l 360 435 l 503 435 l 590 532 l 613 532 l 567 274 l 544 274 l 490 369 l 349 369 l 299 76 l 533 76 l 660 258 l 682 258 l 636 0 l -42 0 m 472 896 q 326 956 368 896 q 281 1128 283 1015 l 315 1128 q 378 1030 338 1051 q 493 1008 419 1008 q 615 1032 564 1008 q 707 1128 665 1056 l 742 1128 q 630 948 693 1000 q 472 896 567 896 z "},"ė":{"ha":763,"x_min":-42,"x_max":742,"o":"m -42 0 l -37 22 l 68 81 l 175 697 l 92 756 l 96 778 l 742 778 l 707 572 l 685 572 l 625 701 l 406 701 l 360 435 l 503 435 l 590 532 l 613 532 l 567 274 l 544 274 l 490 369 l 349 369 l 299 76 l 533 76 l 660 258 l 682 258 l 636 0 l -42 0 m 490 899 q 414 928 444 899 q 383 1004 383 957 q 414 1082 383 1051 q 490 1113 444 1113 q 567 1082 538 1113 q 597 1004 597 1051 q 567 928 597 957 q 490 899 538 899 z "},"ę":{"ha":763,"x_min":-42,"x_max":742,"o":"m -42 0 l -37 22 l 68 81 l 175 697 l 92 756 l 96 778 l 742 778 l 707 572 l 685 572 l 625 701 l 406 701 l 360 435 l 503 435 l 590 532 l 613 532 l 567 274 l 544 274 l 490 369 l 349 369 l 299 76 l 533 76 l 660 258 l 682 258 l 636 0 l 535 0 q 494 -88 511 -42 q 478 -181 478 -135 q 551 -254 478 -254 q 583 -248 567 -254 q 610 -232 600 -242 l 615 -232 l 607 -262 q 553 -314 586 -294 q 475 -333 521 -333 q 382 -303 415 -333 q 349 -222 349 -274 q 390 -105 349 -161 q 483 0 431 -49 l -42 0 z "},"ẹ":{"ha":763,"x_min":-42,"x_max":742,"o":"m -42 0 l -37 22 l 68 81 l 175 697 l 92 756 l 96 778 l 742 778 l 707 572 l 685 572 l 625 701 l 406 701 l 360 435 l 503 435 l 590 532 l 613 532 l 567 274 l 544 274 l 490 369 l 349 369 l 299 76 l 533 76 l 660 258 l 682 258 l 636 0 l -42 0 m 313 -318 q 236 -289 267 -318 q 206 -212 206 -260 q 236 -135 206 -165 q 313 -104 267 -104 q 390 -135 360 -104 q 419 -212 419 -165 q 390 -289 419 -260 q 313 -318 360 -318 z "},"ȅ":{"ha":763,"x_min":-42,"x_max":742,"o":"m -42 0 l -37 22 l 68 81 l 175 697 l 92 756 l 96 778 l 742 778 l 707 572 l 685 572 l 625 701 l 406 701 l 360 435 l 503 435 l 590 532 l 613 532 l 567 274 l 544 274 l 490 369 l 349 369 l 299 76 l 533 76 l 660 258 l 682 258 l 636 0 l -42 0 m 553 882 l 379 1040 q 350 1128 342 1076 l 493 1128 l 588 882 l 553 882 m 342 882 l 142 1040 q 113 1081 118 1058 q 111 1128 107 1103 l 254 1128 l 376 882 l 342 882 z "},"ȇ":{"ha":763,"x_min":-42,"x_max":742,"o":"m -42 0 l -37 22 l 68 81 l 175 697 l 92 756 l 96 778 l 742 778 l 707 572 l 685 572 l 625 701 l 406 701 l 360 435 l 503 435 l 590 532 l 613 532 l 567 274 l 544 274 l 490 369 l 349 369 l 299 76 l 533 76 l 660 258 l 682 258 l 636 0 l -42 0 m 251 896 q 363 1076 300 1024 q 521 1128 426 1128 q 667 1068 625 1128 q 713 896 710 1008 l 678 896 q 615 994 656 972 q 500 1015 574 1015 q 378 992 429 1015 q 286 896 328 968 l 251 896 z "},"ế":{"ha":763,"x_min":-42,"x_max":897,"o":"m -42 0 l -37 22 l 68 81 l 175 697 l 92 756 l 96 778 l 742 778 l 707 572 l 685 572 l 625 701 l 406 701 l 360 435 l 503 435 l 590 532 l 613 532 l 567 274 l 544 274 l 490 369 l 349 369 l 299 76 l 533 76 l 660 258 l 682 258 l 636 0 l -42 0 m 646 1031 l 738 1229 l 897 1229 q 882 1187 893 1208 q 838 1142 871 1165 l 681 1031 l 646 1031 m 247 882 l 476 1128 l 551 1128 l 683 882 l 649 882 l 490 994 l 282 882 l 247 882 z "},"ệ":{"ha":763,"x_min":-42,"x_max":742,"o":"m -42 0 l -37 22 l 68 81 l 175 697 l 92 756 l 96 778 l 742 778 l 707 572 l 685 572 l 625 701 l 406 701 l 360 435 l 503 435 l 590 532 l 613 532 l 567 274 l 544 274 l 490 369 l 349 369 l 299 76 l 533 76 l 660 258 l 682 258 l 636 0 l -42 0 m 247 882 l 476 1128 l 551 1128 l 683 882 l 649 882 l 490 994 l 282 882 l 247 882 m 313 -318 q 236 -289 267 -318 q 206 -212 206 -260 q 236 -135 206 -165 q 313 -104 267 -104 q 390 -135 360 -104 q 419 -212 419 -165 q 390 -289 419 -260 q 313 -318 360 -318 z "},"ề":{"ha":763,"x_min":-42,"x_max":742,"o":"m -42 0 l -37 22 l 68 81 l 175 697 l 92 756 l 96 778 l 742 778 l 707 572 l 685 572 l 625 701 l 406 701 l 360 435 l 503 435 l 590 532 l 613 532 l 567 274 l 544 274 l 490 369 l 349 369 l 299 76 l 533 76 l 660 258 l 682 258 l 636 0 l -42 0 m 303 1031 l 146 1142 q 102 1179 115 1164 q 93 1229 89 1194 l 246 1229 l 338 1031 l 303 1031 m 247 882 l 476 1128 l 551 1128 l 683 882 l 649 882 l 490 994 l 282 882 l 247 882 z "},"ể":{"ha":763,"x_min":-42,"x_max":742,"o":"m -42 0 l -37 22 l 68 81 l 175 697 l 92 756 l 96 778 l 742 778 l 707 572 l 685 572 l 625 701 l 406 701 l 360 435 l 503 435 l 590 532 l 613 532 l 567 274 l 544 274 l 490 369 l 349 369 l 299 76 l 533 76 l 660 258 l 682 258 l 636 0 l -42 0 z "},"ễ":{"ha":763,"x_min":-42,"x_max":792,"o":"m -42 0 l -37 22 l 68 81 l 175 697 l 92 756 l 96 778 l 742 778 l 707 572 l 685 572 l 625 701 l 406 701 l 360 435 l 503 435 l 590 532 l 613 532 l 567 274 l 544 274 l 490 369 l 349 369 l 299 76 l 533 76 l 660 258 l 682 258 l 636 0 l -42 0 z "},"ẻ":{"ha":763,"x_min":-42,"x_max":742,"o":"m -42 0 l -37 22 l 68 81 l 175 697 l 92 756 l 96 778 l 742 778 l 707 572 l 685 572 l 625 701 l 406 701 l 360 435 l 503 435 l 590 532 l 613 532 l 567 274 l 544 274 l 490 369 l 349 369 l 299 76 l 533 76 l 660 258 l 682 258 l 636 0 l -42 0 m 411 901 l 411 903 q 478 930 458 914 q 497 968 497 946 q 479 1005 497 989 q 419 1029 461 1021 l 456 1128 q 556 1086 525 1118 q 586 1017 586 1054 q 542 930 586 960 q 421 888 499 900 l 411 901 z "},"ḕ":{"ha":763,"x_min":-42,"x_max":742,"o":"m -42 0 l -37 22 l 68 81 l 175 697 l 92 756 l 96 778 l 742 778 l 707 572 l 685 572 l 625 701 l 406 701 l 360 435 l 503 435 l 590 532 l 613 532 l 567 274 l 544 274 l 490 369 l 349 369 l 299 76 l 533 76 l 660 258 l 682 258 l 636 0 l -42 0 z "},"ḗ":{"ha":763,"x_min":-42,"x_max":797,"o":"m -42 0 l -37 22 l 68 81 l 175 697 l 92 756 l 96 778 l 742 778 l 707 572 l 685 572 l 625 701 l 406 701 l 360 435 l 503 435 l 590 532 l 613 532 l 567 274 l 544 274 l 490 369 l 349 369 l 299 76 l 533 76 l 660 258 l 682 258 l 636 0 l -42 0 z "},"ḝ":{"ha":763,"x_min":-42,"x_max":742,"o":"m 472 896 q 326 956 368 896 q 281 1128 283 1015 l 315 1128 q 378 1030 338 1051 q 493 1008 419 1008 q 615 1032 564 1008 q 707 1128 665 1056 l 742 1128 q 630 948 693 1000 q 472 896 567 896 m -42 0 l -37 22 l 68 81 l 175 697 l 92 756 l 96 778 l 742 778 l 707 572 l 685 572 l 625 701 l 406 701 l 360 435 l 503 435 l 590 532 l 613 532 l 567 274 l 544 274 l 490 369 l 349 369 l 299 76 l 533 76 l 660 258 l 682 258 l 636 0 l 379 0 l 346 -60 q 447 -111 417 -76 q 476 -190 476 -146 q 429 -293 476 -253 q 308 -333 382 -333 q 249 -326 274 -333 q 207 -307 225 -318 l 213 -276 l 218 -276 q 250 -286 231 -283 q 286 -289 269 -289 q 343 -274 322 -289 q 364 -232 364 -258 q 338 -185 364 -207 q 243 -149 311 -162 l 331 0 l -42 0 z "},"ĝ":{"ha":842,"x_min":56,"x_max":826,"o":"m 408 -14 q 222 26 301 -14 q 99 137 143 65 q 56 306 56 208 q 97 492 56 404 q 211 648 139 581 q 374 754 283 715 q 563 793 464 793 q 701 777 647 793 q 800 736 756 761 l 778 521 l 756 521 l 665 696 q 628 711 647 706 q 582 717 610 717 q 466 681 519 717 q 374 582 413 644 q 313 440 335 519 q 292 274 292 361 q 333 120 292 176 q 440 64 375 64 q 460 65 449 64 l 499 281 l 414 342 l 418 360 l 826 360 l 822 342 l 728 281 l 690 71 q 569 11 639 36 q 408 -14 499 -14 m 336 882 l 565 1128 l 640 1128 l 772 882 l 738 882 l 579 994 l 371 882 l 336 882 z "},"ğ":{"ha":842,"x_min":56,"x_max":831,"o":"m 408 -14 q 222 26 301 -14 q 99 137 143 65 q 56 306 56 208 q 97 492 56 404 q 211 648 139 581 q 374 754 283 715 q 563 793 464 793 q 701 777 647 793 q 800 736 756 761 l 778 521 l 756 521 l 665 696 q 628 711 647 706 q 582 717 610 717 q 466 681 519 717 q 374 582 413 644 q 313 440 335 519 q 292 274 292 361 q 333 120 292 176 q 440 64 375 64 q 460 65 449 64 l 499 281 l 414 342 l 418 360 l 826 360 l 822 342 l 728 281 l 690 71 q 569 11 639 36 q 408 -14 499 -14 m 561 896 q 415 956 457 896 q 369 1128 372 1015 l 404 1128 q 467 1030 426 1051 q 582 1008 508 1008 q 703 1032 653 1008 q 796 1128 754 1056 l 831 1128 q 719 948 782 1000 q 561 896 656 896 z "},"ġ":{"ha":842,"x_min":56,"x_max":826,"o":"m 408 -14 q 222 26 301 -14 q 99 137 143 65 q 56 306 56 208 q 97 492 56 404 q 211 648 139 581 q 374 754 283 715 q 563 793 464 793 q 701 777 647 793 q 800 736 756 761 l 778 521 l 756 521 l 665 696 q 628 711 647 706 q 582 717 610 717 q 466 681 519 717 q 374 582 413 644 q 313 440 335 519 q 292 274 292 361 q 333 120 292 176 q 440 64 375 64 q 460 65 449 64 l 499 281 l 414 342 l 418 360 l 826 360 l 822 342 l 728 281 l 690 71 q 569 11 639 36 q 408 -14 499 -14 m 579 899 q 503 928 533 899 q 472 1004 472 957 q 503 1082 472 1051 q 579 1113 533 1113 q 656 1082 626 1113 q 686 1004 686 1051 q 656 928 686 957 q 579 899 626 899 z "},"ģ":{"ha":842,"x_min":56,"x_max":826,"o":"m 408 -14 q 222 26 301 -14 q 99 137 143 65 q 56 306 56 208 q 97 492 56 404 q 211 648 139 581 q 374 754 283 715 q 563 793 464 793 q 701 777 647 793 q 800 736 756 761 l 778 521 l 756 521 l 665 696 q 628 711 647 706 q 582 717 610 717 q 466 681 519 717 q 374 582 413 644 q 313 440 335 519 q 292 274 292 361 q 333 120 292 176 q 440 64 375 64 q 460 65 449 64 l 499 281 l 414 342 l 418 360 l 826 360 l 822 342 l 728 281 l 690 71 q 569 11 639 36 q 408 -14 499 -14 m 603 890 q 500 918 535 890 q 465 996 465 946 q 517 1088 465 1056 q 644 1119 569 1119 q 674 1118 658 1119 q 700 1114 689 1117 l 694 1088 q 672 1091 685 1090 q 653 1092 660 1092 q 582 1042 582 1092 q 606 1002 582 1014 q 678 990 631 990 l 664 919 q 648 899 661 907 q 603 890 635 890 z "},"ǧ":{"ha":842,"x_min":56,"x_max":826,"o":"m 408 -14 q 222 26 301 -14 q 99 137 143 65 q 56 306 56 208 q 97 492 56 404 q 211 648 139 581 q 374 754 283 715 q 563 793 464 793 q 701 777 647 793 q 800 736 756 761 l 778 521 l 756 521 l 665 696 q 628 711 647 706 q 582 717 610 717 q 466 681 519 717 q 374 582 413 644 q 313 440 335 519 q 292 274 292 361 q 333 120 292 176 q 440 64 375 64 q 460 65 449 64 l 499 281 l 414 342 l 418 360 l 826 360 l 822 342 l 728 281 l 690 71 q 569 11 639 36 q 408 -14 499 -14 m 529 882 l 386 1128 l 421 1128 l 579 1015 l 788 1128 l 822 1128 l 604 882 l 529 882 z "},"ḡ":{"ha":842,"x_min":56,"x_max":826,"o":"m 408 -14 q 222 26 301 -14 q 99 137 143 65 q 56 306 56 208 q 97 492 56 404 q 211 648 139 581 q 374 754 283 715 q 563 793 464 793 q 701 777 647 793 q 800 736 756 761 l 778 521 l 756 521 l 665 696 q 628 711 647 706 q 582 717 610 717 q 466 681 519 717 q 374 582 413 644 q 313 440 335 519 q 292 274 292 361 q 333 120 292 176 q 440 64 375 64 q 460 65 449 64 l 499 281 l 414 342 l 418 360 l 826 360 l 822 342 l 728 281 l 690 71 q 569 11 639 36 q 408 -14 499 -14 m 360 957 l 376 1049 l 801 1049 l 785 957 l 360 957 z "},"ĥ":{"ha":922,"x_min":-42,"x_max":964,"o":"m -42 0 l -37 22 l 67 81 l 174 697 l 90 756 l 94 778 l 501 778 l 497 756 l 404 697 l 360 438 l 582 438 l 628 697 l 554 756 l 558 778 l 964 778 l 960 756 l 857 697 l 749 81 l 832 22 l 828 0 l 421 0 l 425 22 l 519 81 l 569 367 l 347 367 l 297 81 l 374 22 l 369 0 l -42 0 m 326 882 l 556 1128 l 631 1128 l 763 882 l 728 882 l 569 994 l 361 882 l 326 882 z "},"ħ":{"ha":922,"x_min":-42,"x_max":964,"o":"m -42 0 l -37 22 l 67 81 l 149 557 l 54 557 l 68 626 l 161 626 l 174 697 l 90 756 l 94 778 l 501 778 l 497 756 l 404 697 l 392 626 l 615 626 l 628 697 l 554 756 l 558 778 l 964 778 l 960 756 l 857 697 l 844 626 l 938 626 l 924 557 l 832 557 l 749 81 l 832 22 l 828 0 l 421 0 l 425 22 l 519 81 l 569 367 l 347 367 l 297 81 l 374 22 l 369 0 l -42 0 m 360 438 l 582 438 l 603 557 l 379 557 l 360 438 z "},"ḥ":{"ha":922,"x_min":-42,"x_max":964,"o":"m -42 0 l -37 22 l 67 81 l 174 697 l 90 756 l 94 778 l 501 778 l 497 756 l 404 697 l 360 438 l 582 438 l 628 697 l 554 756 l 558 778 l 964 778 l 960 756 l 857 697 l 749 81 l 832 22 l 828 0 l 421 0 l 425 22 l 519 81 l 569 367 l 347 367 l 297 81 l 374 22 l 369 0 l -42 0 m 356 -318 q 279 -289 310 -318 q 249 -212 249 -260 q 279 -135 249 -165 q 356 -104 310 -104 q 433 -135 403 -104 q 463 -212 463 -165 q 433 -289 463 -260 q 356 -318 403 -318 z "},"ḫ":{"ha":922,"x_min":-42,"x_max":964,"o":"m -42 0 l -37 22 l 67 81 l 174 697 l 90 756 l 94 778 l 501 778 l 497 756 l 404 697 l 360 438 l 582 438 l 628 697 l 554 756 l 558 778 l 964 778 l 960 756 l 857 697 l 749 81 l 832 22 l 828 0 l 421 0 l 425 22 l 519 81 l 569 367 l 347 367 l 297 81 l 374 22 l 369 0 l -42 0 m 339 -322 q 192 -262 235 -322 q 147 -90 150 -203 l 182 -90 q 245 -188 204 -167 q 360 -210 286 -210 q 481 -186 431 -210 q 574 -90 532 -162 l 608 -90 q 497 -270 560 -218 q 339 -322 433 -322 z "},"ì":{"ha":474,"x_min":-42,"x_max":515,"o":"m -42 0 l -37 22 l 68 81 l 175 697 l 92 756 l 96 778 l 515 778 l 511 756 l 406 697 l 299 81 l 382 22 l 378 0 l -42 0 m 307 882 l 96 1040 q 66 1084 68 1061 q 67 1128 64 1107 l 224 1128 l 342 882 l 307 882 z "},"í":{"ha":474,"x_min":-42,"x_max":608,"o":"m -42 0 l -37 22 l 68 81 l 175 697 l 92 756 l 96 778 l 515 778 l 511 756 l 406 697 l 299 81 l 382 22 l 378 0 l -42 0 m 306 882 l 433 1128 l 608 1128 q 593 1086 604 1107 q 549 1040 582 1065 l 340 882 l 306 882 z "},"î":{"ha":474,"x_min":-42,"x_max":536,"o":"m -42 0 l -37 22 l 68 81 l 175 697 l 92 756 l 96 778 l 515 778 l 511 756 l 406 697 l 299 81 l 382 22 l 378 0 l -42 0 m 100 882 l 329 1128 l 404 1128 l 536 882 l 501 882 l 343 994 l 135 882 l 100 882 z "},"ĩ":{"ha":474,"x_min":-42,"x_max":586,"o":"m -42 0 l -37 22 l 68 81 l 175 697 l 92 756 l 96 778 l 515 778 l 511 756 l 406 697 l 299 81 l 382 22 l 378 0 l -42 0 m 103 904 q 167 1033 140 990 q 219 1090 194 1076 q 275 1104 244 1104 q 331 1091 306 1104 q 378 1060 356 1078 q 422 1030 400 1043 q 468 1017 444 1017 q 507 1033 490 1017 q 551 1104 524 1049 l 586 1104 q 522 975 549 1018 q 469 918 494 932 q 414 904 444 904 q 358 917 383 904 q 311 948 333 931 q 267 978 289 965 q 221 992 244 992 q 183 976 200 992 q 138 904 165 960 l 103 904 z "},"ï":{"ha":474,"x_min":-42,"x_max":564,"o":"m -42 0 l -37 22 l 68 81 l 175 697 l 92 756 l 96 778 l 515 778 l 511 756 l 406 697 l 299 81 l 382 22 l 378 0 l -42 0 m 207 922 q 149 947 171 922 q 126 1003 126 971 q 149 1059 126 1035 q 207 1083 171 1083 q 265 1059 243 1083 q 288 1003 288 1035 q 265 947 288 971 q 207 922 243 922 m 483 922 q 426 947 449 922 q 403 1003 403 971 q 426 1059 403 1035 q 483 1083 449 1083 q 541 1059 518 1083 q 564 1003 564 1035 q 541 947 564 971 q 483 922 518 922 z "},"ī":{"ha":474,"x_min":-42,"x_max":565,"o":"m -42 0 l -37 22 l 68 81 l 175 697 l 92 756 l 96 778 l 515 778 l 511 756 l 406 697 l 299 81 l 382 22 l 378 0 l -42 0 m 124 957 l 140 1049 l 565 1049 l 549 957 l 124 957 z "},"ĭ":{"ha":474,"x_min":-42,"x_max":594,"o":"m -42 0 l -37 22 l 68 81 l 175 697 l 92 756 l 96 778 l 515 778 l 511 756 l 406 697 l 299 81 l 382 22 l 378 0 l -42 0 m 325 896 q 178 956 221 896 q 133 1128 136 1015 l 168 1128 q 231 1030 190 1051 q 346 1008 272 1008 q 467 1032 417 1008 q 560 1128 518 1056 l 594 1128 q 483 948 546 1000 q 325 896 419 896 z "},"į":{"ha":474,"x_min":-42,"x_max":515,"o":"m -42 0 l -37 22 l 68 81 l 175 697 l 92 756 l 96 778 l 515 778 l 511 756 l 406 697 l 299 81 l 382 22 l 378 0 l 190 0 q 150 -88 167 -42 q 133 -181 133 -135 q 207 -254 133 -254 q 239 -248 222 -254 q 265 -232 256 -242 l 271 -232 l 263 -262 q 209 -314 242 -294 q 131 -333 176 -333 q 38 -303 71 -333 q 4 -222 4 -274 q 45 -105 4 -161 q 139 0 86 -49 l -42 0 z "},"ị":{"ha":474,"x_min":-42,"x_max":515,"o":"m -42 0 l -37 22 l 68 81 l 175 697 l 92 756 l 96 778 l 515 778 l 511 756 l 406 697 l 299 81 l 382 22 l 378 0 l -42 0 m 129 -318 q 53 -289 83 -318 q 22 -212 22 -260 q 53 -135 22 -165 q 129 -104 83 -104 q 206 -135 176 -104 q 236 -212 236 -165 q 206 -289 236 -260 q 129 -318 176 -318 z "},"ȉ":{"ha":474,"x_min":-42,"x_max":515,"o":"m -42 0 l -37 22 l 68 81 l 175 697 l 92 756 l 96 778 l 515 778 l 511 756 l 406 697 l 299 81 l 382 22 l 378 0 l -42 0 m 406 882 l 232 1040 q 203 1128 194 1076 l 346 1128 l 440 882 l 406 882 m 194 882 l -6 1040 q -35 1081 -29 1058 q -36 1128 -40 1103 l 107 1128 l 229 882 l 194 882 z "},"ȋ":{"ha":474,"x_min":-42,"x_max":565,"o":"m -42 0 l -37 22 l 68 81 l 175 697 l 92 756 l 96 778 l 515 778 l 511 756 l 406 697 l 299 81 l 382 22 l 378 0 l -42 0 m 104 896 q 216 1076 153 1024 q 374 1128 279 1128 q 520 1068 478 1128 q 565 896 563 1008 l 531 896 q 467 994 508 972 q 353 1015 426 1015 q 231 992 282 1015 q 139 896 181 968 l 104 896 z "},"ỉ":{"ha":474,"x_min":-42,"x_max":515,"o":"m -42 0 l -37 22 l 68 81 l 175 697 l 92 756 l 96 778 l 515 778 l 511 756 l 406 697 l 299 81 l 382 22 l 378 0 l -42 0 m 264 901 l 264 903 q 331 930 311 914 q 350 968 350 946 q 332 1005 350 989 q 272 1029 314 1021 l 308 1128 q 408 1086 378 1118 q 439 1017 439 1054 q 395 930 439 960 q 274 888 351 900 l 264 901 z "},"ḯ":{"ha":474,"x_min":-42,"x_max":650,"o":"m -42 0 l -37 22 l 68 81 l 175 697 l 92 756 l 96 778 l 515 778 l 511 756 l 406 697 l 299 81 l 382 22 l 378 0 l -42 0 z "},"ĳ":{"ha":939,"x_min":-42,"x_max":983,"o":"m -42 0 l -37 22 l 68 81 l 175 697 l 92 756 l 96 778 l 515 778 l 511 756 l 406 697 l 299 81 l 382 22 l 378 0 l -42 0 m 413 -204 q 351 -153 335 -204 l 378 -74 l 385 -74 q 442 -89 413 -89 q 488 -74 468 -89 q 524 -19 508 -60 q 553 103 539 22 l 656 697 l 558 756 l 563 778 l 983 778 l 979 756 l 886 697 l 815 288 q 731 65 790 156 q 610 -89 672 -25 q 495 -183 539 -161 q 413 -204 451 -204 z "},"ĵ":{"ha":465,"x_min":-139,"x_max":543,"o":"m -61 -204 q -122 -153 -139 -204 l -96 -74 l -89 -74 q -32 -89 -61 -89 q 15 -74 -6 -89 q 50 -19 35 -60 q 79 103 65 22 l 182 697 l 85 756 l 89 778 l 510 778 l 506 756 l 413 697 l 342 288 q 258 65 317 156 q 136 -89 199 -25 q 22 -183 65 -161 q -61 -204 -22 -204 m 107 882 l 336 1128 l 411 1128 l 543 882 l 508 882 l 350 994 l 142 882 l 107 882 z "},"ķ":{"ha":889,"x_min":-42,"x_max":889,"o":"m -42 0 l -37 22 l 68 81 l 175 697 l 92 756 l 96 778 l 517 778 l 511 756 l 406 697 l 299 81 l 383 22 l 378 0 l -42 0 m 539 0 l 356 390 l 676 710 l 607 756 l 611 778 l 889 778 l 883 756 l 800 718 l 549 475 l 758 74 l 833 22 l 829 0 l 539 0 m 306 -332 q 276 -331 292 -332 q 250 -326 260 -329 l 256 -300 q 278 -303 265 -303 q 297 -304 290 -304 q 368 -254 368 -304 q 344 -215 368 -226 q 272 -203 321 -203 l 286 -132 q 301 -111 288 -119 q 347 -103 315 -103 q 450 -131 415 -103 q 485 -208 485 -158 q 433 -300 485 -268 q 306 -332 381 -332 z "},"ĺ":{"ha":701,"x_min":-42,"x_max":653,"o":"m -42 0 l -37 22 l 68 81 l 175 697 l 92 756 l 96 778 l 525 778 l 522 756 l 406 697 l 297 76 l 478 76 l 631 289 l 653 289 l 599 0 l -42 0 m 297 882 l 425 1128 l 600 1128 q 585 1086 596 1107 q 540 1040 574 1065 l 332 882 l 297 882 z "},"ľ":{"ha":701,"x_min":-42,"x_max":719,"o":"m -42 0 l -37 22 l 68 81 l 175 697 l 92 756 l 96 778 l 525 778 l 522 756 l 406 697 l 297 76 l 478 76 l 631 289 l 653 289 l 599 0 l -42 0 m 499 518 l 564 778 l 717 778 q 715 734 719 757 q 688 685 711 711 l 533 518 l 499 518 z "},"ļ":{"ha":701,"x_min":-42,"x_max":653,"o":"m -42 0 l -37 22 l 68 81 l 175 697 l 92 756 l 96 778 l 525 778 l 522 756 l 406 697 l 297 76 l 478 76 l 631 289 l 653 289 l 599 0 l -42 0 m 215 -332 q 185 -331 201 -332 q 160 -326 169 -329 l 165 -300 q 188 -303 175 -303 q 207 -304 200 -304 q 278 -254 278 -304 q 254 -215 278 -226 q 182 -203 231 -203 l 196 -132 q 211 -111 197 -119 q 257 -103 225 -103 q 360 -131 325 -103 q 394 -208 394 -158 q 342 -300 394 -268 q 215 -332 290 -332 z "},"ł":{"ha":701,"x_min":-42,"x_max":653,"o":"m -42 0 l -37 22 l 68 81 l 92 215 l -22 151 l -3 240 l 107 301 l 175 697 l 92 756 l 96 778 l 525 778 l 522 756 l 406 697 l 358 424 l 569 542 l 550 453 l 343 339 l 297 76 l 478 76 l 631 289 l 653 289 l 599 0 l -42 0 z "},"ŀ":{"ha":701,"x_min":-42,"x_max":699,"o":"m -42 0 l -37 22 l 68 81 l 175 697 l 92 756 l 96 778 l 525 778 l 522 756 l 406 697 l 297 76 l 478 76 l 631 289 l 653 289 l 599 0 l -42 0 m 592 332 q 515 361 546 332 q 485 438 485 390 q 515 515 485 485 q 592 546 546 546 q 669 515 639 546 q 699 438 699 485 q 669 361 699 390 q 592 332 639 332 z "},"ḷ":{"ha":701,"x_min":-42,"x_max":653,"o":"m -42 0 l -37 22 l 68 81 l 175 697 l 92 756 l 96 778 l 525 778 l 522 756 l 406 697 l 297 76 l 478 76 l 631 289 l 653 289 l 599 0 l -42 0 m 281 -318 q 204 -289 235 -318 q 174 -212 174 -260 q 204 -135 174 -165 q 281 -104 235 -104 q 358 -135 328 -104 q 388 -212 388 -165 q 358 -289 388 -260 q 281 -318 328 -318 z "},"ḻ":{"ha":701,"x_min":-42,"x_max":653,"o":"m -42 0 l -37 22 l 68 81 l 175 697 l 92 756 l 96 778 l 525 778 l 522 756 l 406 697 l 297 76 l 478 76 l 631 289 l 653 289 l 599 0 l -42 0 m 60 -253 l 76 -161 l 501 -161 l 485 -253 l 60 -253 z "},"ṃ":{"ha":1133,"x_min":-42,"x_max":1133,"o":"m -42 0 l -37 22 l 67 82 l 197 701 l 108 756 l 113 778 l 451 778 l 556 325 l 807 778 l 1133 778 l 1131 756 l 1028 701 l 958 82 l 1033 22 l 1029 0 l 628 0 l 632 22 l 729 81 l 785 565 l 461 -6 l 394 -6 l 260 582 l 158 81 l 246 22 l 242 0 l -42 0 m 390 -318 q 314 -289 344 -318 q 283 -212 283 -260 q 314 -135 283 -165 q 390 -104 344 -104 q 467 -135 438 -104 q 497 -212 497 -165 q 467 -289 497 -260 q 390 -318 438 -318 z "},"ń":{"ha":903,"x_min":-35,"x_max":944,"o":"m -35 0 l -31 22 l 75 82 l 185 710 l 99 760 l 103 778 l 360 778 l 668 292 l 739 697 l 619 757 l 622 778 l 944 778 l 942 757 l 838 697 l 714 -6 l 594 -6 l 251 526 l 174 82 l 293 22 l 290 0 l -35 0 m 528 882 l 656 1128 l 831 1128 q 815 1086 826 1107 q 771 1040 804 1065 l 563 882 l 528 882 z "},"ň":{"ha":903,"x_min":-35,"x_max":944,"o":"m -35 0 l -31 22 l 75 82 l 185 710 l 99 760 l 103 778 l 360 778 l 668 292 l 739 697 l 619 757 l 622 778 l 944 778 l 942 757 l 838 697 l 714 -6 l 594 -6 l 251 526 l 174 82 l 293 22 l 290 0 l -35 0 m 515 882 l 372 1128 l 407 1128 l 565 1015 l 774 1128 l 808 1128 l 590 882 l 515 882 z "},"ñ":{"ha":903,"x_min":-35,"x_max":944,"o":"m -35 0 l -31 22 l 75 82 l 185 710 l 99 760 l 103 778 l 360 778 l 668 292 l 739 697 l 619 757 l 622 778 l 944 778 l 942 757 l 838 697 l 714 -6 l 594 -6 l 251 526 l 174 82 l 293 22 l 290 0 l -35 0 m 325 904 q 390 1033 363 990 q 442 1090 417 1076 q 497 1104 467 1104 q 553 1091 528 1104 q 600 1060 578 1078 q 644 1030 622 1043 q 690 1017 667 1017 q 729 1033 713 1017 q 774 1104 746 1049 l 808 1104 q 744 975 771 1018 q 692 918 717 932 q 636 904 667 904 q 581 917 606 904 q 533 948 556 931 q 489 978 511 965 q 443 992 467 992 q 405 976 422 992 q 360 904 388 960 l 325 904 z "},"ņ":{"ha":903,"x_min":-35,"x_max":944,"o":"m -35 0 l -31 22 l 75 82 l 185 710 l 99 760 l 103 778 l 360 778 l 668 292 l 739 697 l 619 757 l 622 778 l 944 778 l 942 757 l 838 697 l 714 -6 l 594 -6 l 251 526 l 174 82 l 293 22 l 290 0 l -35 0 m 296 -333 q 266 -332 282 -333 q 240 -328 250 -331 l 246 -301 q 268 -305 256 -304 q 288 -306 281 -306 q 358 -256 358 -306 q 335 -216 358 -228 q 263 -204 311 -204 l 276 -133 q 292 -112 278 -121 q 338 -104 306 -104 q 440 -132 406 -104 q 475 -210 475 -160 q 423 -301 475 -269 q 296 -333 371 -333 z "},"ṅ":{"ha":903,"x_min":-35,"x_max":944,"o":"m -35 0 l -31 22 l 75 82 l 185 710 l 99 760 l 103 778 l 360 778 l 668 292 l 739 697 l 619 757 l 622 778 l 944 778 l 942 757 l 838 697 l 714 -6 l 594 -6 l 251 526 l 174 82 l 293 22 l 290 0 l -35 0 m 565 899 q 489 928 519 899 q 458 1004 458 957 q 489 1082 458 1051 q 565 1113 519 1113 q 642 1082 613 1113 q 672 1004 672 1051 q 642 928 672 957 q 565 899 613 899 z "},"ṇ":{"ha":903,"x_min":-35,"x_max":944,"o":"m -35 0 l -31 22 l 75 82 l 185 710 l 99 760 l 103 778 l 360 778 l 668 292 l 739 697 l 619 757 l 622 778 l 944 778 l 942 757 l 838 697 l 714 -6 l 594 -6 l 251 526 l 174 82 l 293 22 l 290 0 l -35 0 m 361 -319 q 285 -290 315 -319 q 254 -214 254 -261 q 285 -136 254 -167 q 361 -106 315 -106 q 438 -136 408 -106 q 468 -214 468 -167 q 438 -290 468 -261 q 361 -319 408 -319 z "},"ṉ":{"ha":903,"x_min":-35,"x_max":944,"o":"m -35 0 l -31 22 l 75 82 l 185 710 l 99 760 l 103 778 l 360 778 l 668 292 l 739 697 l 619 757 l 622 778 l 944 778 l 942 757 l 838 697 l 714 -6 l 594 -6 l 251 526 l 174 82 l 293 22 l 290 0 l -35 0 m 140 -254 l 157 -162 l 582 -162 l 565 -254 l 140 -254 z "},"ò":{"ha":938,"x_min":56,"x_max":882,"o":"m 410 -14 q 222 27 301 -14 q 99 143 142 68 q 56 319 56 218 q 88 493 56 408 q 183 646 121 578 q 332 753 244 714 q 528 793 419 793 q 715 752 636 793 q 838 636 794 711 q 882 460 882 561 q 849 285 882 369 q 755 133 817 201 q 606 26 693 65 q 410 -14 518 -14 m 417 63 q 512 97 469 63 q 583 192 554 132 q 628 329 613 253 q 643 489 643 406 q 634 603 643 551 q 599 686 625 656 q 524 717 572 717 q 432 681 474 717 q 360 585 390 646 q 314 448 331 525 q 297 289 297 371 q 306 175 297 226 q 341 93 315 124 q 417 63 367 63 m 540 882 l 329 1040 q 299 1084 301 1061 q 300 1128 297 1107 l 457 1128 l 575 882 l 540 882 z "},"ó":{"ha":938,"x_min":56,"x_max":882,"o":"m 410 -14 q 222 27 301 -14 q 99 143 142 68 q 56 319 56 218 q 88 493 56 408 q 183 646 121 578 q 332 753 244 714 q 528 793 419 793 q 715 752 636 793 q 838 636 794 711 q 882 460 882 561 q 849 285 882 369 q 755 133 817 201 q 606 26 693 65 q 410 -14 518 -14 m 417 63 q 512 97 469 63 q 583 192 554 132 q 628 329 613 253 q 643 489 643 406 q 634 603 643 551 q 599 686 625 656 q 524 717 572 717 q 432 681 474 717 q 360 585 390 646 q 314 448 331 525 q 297 289 297 371 q 306 175 297 226 q 341 93 315 124 q 417 63 367 63 m 539 882 l 667 1128 l 842 1128 q 826 1086 838 1107 q 782 1040 815 1065 l 574 882 l 539 882 z "},"ô":{"ha":938,"x_min":56,"x_max":882,"o":"m 410 -14 q 222 27 301 -14 q 99 143 142 68 q 56 319 56 218 q 88 493 56 408 q 183 646 121 578 q 332 753 244 714 q 528 793 419 793 q 715 752 636 793 q 838 636 794 711 q 882 460 882 561 q 849 285 882 369 q 755 133 817 201 q 606 26 693 65 q 410 -14 518 -14 m 417 63 q 512 97 469 63 q 583 192 554 132 q 628 329 613 253 q 643 489 643 406 q 634 603 643 551 q 599 686 625 656 q 524 717 572 717 q 432 681 474 717 q 360 585 390 646 q 314 448 331 525 q 297 289 297 371 q 306 175 297 226 q 341 93 315 124 q 417 63 367 63 m 333 882 l 563 1128 l 638 1128 l 769 882 l 735 882 l 576 994 l 368 882 l 333 882 z "},"õ":{"ha":938,"x_min":56,"x_max":882,"o":"m 410 -14 q 222 27 301 -14 q 99 143 142 68 q 56 319 56 218 q 88 493 56 408 q 183 646 121 578 q 332 753 244 714 q 528 793 419 793 q 715 752 636 793 q 838 636 794 711 q 882 460 882 561 q 849 285 882 369 q 755 133 817 201 q 606 26 693 65 q 410 -14 518 -14 m 417 63 q 512 97 469 63 q 583 192 554 132 q 628 329 613 253 q 643 489 643 406 q 634 603 643 551 q 599 686 625 656 q 524 717 572 717 q 432 681 474 717 q 360 585 390 646 q 314 448 331 525 q 297 289 297 371 q 306 175 297 226 q 341 93 315 124 q 417 63 367 63 m 336 904 q 401 1033 374 990 q 453 1090 428 1076 q 508 1104 478 1104 q 564 1091 539 1104 q 611 1060 589 1078 q 656 1030 633 1043 q 701 1017 678 1017 q 740 1033 724 1017 q 785 1104 757 1049 l 819 1104 q 755 975 782 1018 q 703 918 728 932 q 647 904 678 904 q 592 917 617 904 q 544 948 567 931 q 500 978 522 965 q 454 992 478 992 q 416 976 433 992 q 371 904 399 960 l 336 904 z "},"ö":{"ha":938,"x_min":56,"x_max":882,"o":"m 410 -14 q 222 27 301 -14 q 99 143 142 68 q 56 319 56 218 q 88 493 56 408 q 183 646 121 578 q 332 753 244 714 q 528 793 419 793 q 715 752 636 793 q 838 636 794 711 q 882 460 882 561 q 849 285 882 369 q 755 133 817 201 q 606 26 693 65 q 410 -14 518 -14 m 417 63 q 512 97 469 63 q 583 192 554 132 q 628 329 613 253 q 643 489 643 406 q 634 603 643 551 q 599 686 625 656 q 524 717 572 717 q 432 681 474 717 q 360 585 390 646 q 314 448 331 525 q 297 289 297 371 q 306 175 297 226 q 341 93 315 124 q 417 63 367 63 m 440 922 q 382 947 404 922 q 360 1003 360 971 q 382 1059 360 1035 q 440 1083 404 1083 q 499 1059 476 1083 q 521 1003 521 1035 q 499 947 521 971 q 440 922 476 922 m 717 922 q 659 947 682 922 q 636 1003 636 971 q 659 1059 636 1035 q 717 1083 682 1083 q 774 1059 751 1083 q 797 1003 797 1035 q 774 947 797 971 q 717 922 751 922 z "}}}
